<svg xmlns="http://www.w3.org/2000/svg" width="45" height="62.88">
  <path fill="#5e5e5e" fill-rule="evenodd" stroke="#252525" stroke-width=".701" d="M35.156.35c-1.46 0-2.436.216-4.077.897-1.095.456-1.587.759-2.832 1.747-1.212.959-1.678 1.425-2.378 2.366-1.433 1.933-2.152 3.81-2.215 5.782-.016.519.1 1.468.26 2.114.232.947.462 1.397 1.205 2.356 1.215 1.569 2.545 2.342 4.487 2.608 1.605.221 3.265-.053 5.184-.851 1.1-.456 1.583-.756 2.812-1.734 1.588-1.264 2.4-2.184 3.343-3.788.46-.783.636-1.253.955-2.54.32-1.286.374-1.754.302-2.536-.148-1.605-.503-2.525-1.464-3.789-.742-.978-1.08-1.28-1.952-1.735-1.3-.681-2.172-.897-3.632-.897zm-22.67 23.36l-.544 2.192-.54 2.194 4.296.037 4.298.035-3.677 14.985-3.678 14.988H3.953l-.543 2.191-.542 2.198h32.918l.544-2.196.544-2.193H29.17l4.266-17.216L37.7 23.711H25.093z"/>
</svg>
