<?xml version='1.0' encoding='utf-8'?>
<svg xmlns="http://www.w3.org/2000/svg" viewBox="0 0 2047 2041" width="401" height="400"><path d="M732 1343q26 0 44 18t18 44q0 25-18 42.5t-44 17.5H343q-4 0-22.5-1.5t-45.5-10-59.5-26.5-64.5-51q-65-67-98-170.5T20 961q0-243 129-363 36-33 74-52t71.5-28.5 59-12T389 503h168v-99q0-23 17-42.5t46-19.5q14 0 23 4l391 161q17 8 28 23t11 35q0 18-11 34t-28 23L643 781l-2 1q-12 5-22 5-25 0-43.5-19T557 725v-99H392q0 1-16 1.5t-39.5 5.5-51.5 18-53 38q-42 41-65 105.5T144 947q0 119 22 206t72 137q19 19 38 29.5t34 15.5q18 6 33 8h389zm-51-710l168-68-168-69v137zm1215-40q131 134 131 414 0 122-31 211.5t-97 151.5q-36 33-73.5 52t-71 28.5-59 12-36.5 2.5h-170v99q0 26-17 44t-44 18q-14 0-23-4l-392-161q-17-7-27.5-21.5T975 1405t10.5-35 27.5-23l392-161q5-2 11-3t12-1q27 0 44 18.5t17 43.5v98h167q1 0 2.5.5t3.5.5h1q7 0 24-2t38-8.5 44.5-19 45.5-33.5q42-42 65-105.5t23-151.5q0-121-22.5-207T1808 679q-19-19-37.5-29.5t-33-15.5-24-6.5-10.5-1.5h-389q-25 0-42.5-18t-17.5-43q0-26 17.5-44t42.5-18h389q4 0 22.5 2t45.5 10.5 60 26.5 65 51zm-530 743l-168 69 168 67v-136z" fill="#000000"></path></svg>