<?xml version='1.0' encoding='utf-8'?>
<svg xmlns="http://www.w3.org/2000/svg" viewBox="0 0 1418 2041" width="278" height="400"><path d="M151 1600q0 8 4.5 18t12 20 16.5 16.5 18 6.5q238 54 475 54 235 0 466-54 17 0 34-15t17-40v-496q0-45-25.5-63.5T1101 1028H243q-17 0-33.5 6t-29.5 16.5-21 26-8 33.5v490zm910-684l163-286q6-6 8.5-18.5t2.5-22.5v-10q0-16-8-30t-23-22q-125-109-265-199T642 169h-51q-15 8-29 17t-22 24L356 527l-92-51L489 88q12-22 38-35.5T576 39q17 0 36 8 398 155 725 449 8 16 19.5 31.5T1368 558q0 16-1.5 32t-9.5 40l-173 286h20q21 0 39.5 8t32.5 21.5 22 32 8 39.5v655q0 21-14.5 42.5T1244 1753q-278 69-568 69t-576-69q-9-10-17.5-16t-16-13.5-12-19T50 1672v-655q0-45 25-73t76-28h910zm-439 613v6q0 18 6 29t14 16.5 16.5 7.5 13.5 2q7 0 16.5-2.5t18-7.5 14-12.5 5.5-17.5q0-6-1.5-11t-1.5-10v-318q0-7 1.5-13t1.5-12q0-4-3.5-12t-10-15.5-17-13-23.5-5.5q-12 0-21.5 6t-16 15-9.5 20-3 21v327z" fill="#000000"></path></svg>