<?xml version='1.0' encoding='utf-8'?>
<svg xmlns="http://www.w3.org/2000/svg" viewBox="0 0 1977 2041" width="387" height="400"><path d="M102 686l143-146L50 345 297 97l197 196 144-144v537H102zm257-146L153 345l144-144 197 206 62-62v268H297zm712 702v-52L875 995v-93l83 21 195 195q9 0 18-5t24-5q28 0 50.5 11t39 29.5 25.5 42.5 9 51q0 24-9 46t-25.5 39.5-39 27.5-50.5 10q-27 0-50-10t-39.5-27.5-25.5-39.5-9-46zm474-525l-82 133-72-31 83-144q-110-62-237-62v135h-84V613q-127 0-237 62l62 114q-15 8-30.5 20.5T916 830l-72-113q-55 31-99 75.5T669 892l113 62q-7 24-15.5 40.5T751 1026l-123-72q-31 62-46.5 119.5T566 1201h134v83H566q0 127 62 237l123-72q7 15 16 35.5t25 36.5l-123 73q15 23 36 45.5t36 46.5l-72 72q-102-102-159-234.5T453 1242q0-103 26-198t74-177.5 115.5-150 150-115.5 178-74.5T1195 500q101 0 194.5 26.5T1564 601t148 115.5 115 150 74 177.5 26 198q0 156-57 285t-159 231l-73-72q24-24 41.5-46.5t41.5-45.5l-124-73q16-16 25-36.5t16-35.5l114 72q31-55 48-114.5t23-122.5h-143q7-15 8.5-24t1.5-18q0-7-1.5-20t-8.5-21h143q0-34-5-65.5t-13.5-61.5-19.5-59.5-23-60.5l-124 72q-7-15-16-31.5t-25-40.5l124-62q-39-55-80-99.5t-96-75.5z" fill="#000000"></path></svg>