<?xml version='1.0' encoding='utf-8'?>
<svg xmlns="http://www.w3.org/2000/svg" viewBox="0 0 2349 2041" width="460" height="400"><path d="M1173 1821q-227 0-432-67t-367-192q-162-128-248-291.5T40 926t86-345 248-291Q536 164 741 97t432-67q229 0 433.5 67T1972 290q81 63 144 136.5T2222 581t65 168 22 177q0 181-86.5 344.5T1972 1562q-161 125-365.5 192t-433.5 67zm0-1712q-146 0-280.5 29t-252 82-214 128-165 165.5-106.5 195T117 926t38 217 106.5 195 165 165.5 214 127.5 252.5 82.5 280 29.5q146 0 281-29.5t252.5-82.5 214.5-127.5 165.5-165.5 106.5-195.5 38-216.5q0-113-38-217.5t-106.5-195T1921 348t-214.5-128-252.5-82-281-29zM990 1412q-100 0-188-38t-154-104-104-154.5T506 927t38-188 104-154 154-104 188-38v152q-69 0-129.5 26T755 692t-71 105.5T658 927t26 129.5 71 105.5 105.5 71 129.5 26v153zm359 0q-100 0-188.5-38T1006 1270t-104-154.5T864 927t38-188 104-154 154.5-104 188.5-38v152q-69 0-129.5 26t-106 71-71.5 105.5-26 129.5 26 129.5 71.5 105.5 106 71 129.5 26v153zm357 0q-100 0-188-38t-153.5-104-103.5-154.5-38-188.5 38-188 103.5-154T1518 481t188-38v152q-68 0-128.5 26T1472 692t-71.5 105.5T1374 927t26.5 129.5T1472 1162t105.5 71 128.5 26v153zm184-500q-1-10-11-14t-22-4q-8 0-19 2.5t-11 13.5q0 5 5 8t11 4l39 5q13 2 21.5 8t8.5 17q0 15-17.5 21t-35.5 6q-19 0-27.5-3t-12.5-6q-9-5-12-10.5t-3-13.5h18q0 14 12 18t25 4q10 0 23-2.5t13-12.5q0-7-6.5-10.5T1865 937l-28-3q-5-2-16.5-6.5T1809 912t11-20 36-9q18 0 28 3t15 7.5 6.5 9.5 1.5 9h-17z" fill="#000000"></path></svg>