<?xml version='1.0' encoding='utf-8'?>
<svg xmlns="http://www.w3.org/2000/svg" viewBox="0 0 1889 2041" width="370" height="400"><path d="M864 280h166v566h78v165h-78v79H864v-79H458V892l-2-28q0-5 2-13l12-5q7-1 20-1h30q24 0 55.5.5t64.5 1l66 1 62 .5q30 0 48.5-.5t29-2 14-4 3.5-5.5v-84.5l1-83.5V280zm823 644q0-102-26.5-196.5t-75-177-116-150.5-150-116.5-177.5-75T945 182q-103 0-198 26.5t-177.5 75-150 116.5-116 150.5-75 177T202 924q0 103 26.5 198t75 178 116 151 150 116.5 177.5 75 198 26.5q102 0 197-26.5t177.5-75 150-116.5 116-151 75-178 26.5-198zM945 32q124 0 238 32t213.5 90 181 139.5T1717 474t90 213 32 237q0 124-32 238.5t-90 213.5-139.5 181-181 140-213.5 90-238 32q-123 0-237.5-32t-214-90-181-140-140-181T82 1162.5 50 924q0-123 32-237t90.5-213 140-180.5 181-139.5T707 64t238-32z" fill="#000000"></path></svg>