<?xml version='1.0' encoding='utf-8'?>
<svg xmlns="http://www.w3.org/2000/svg" viewBox="0 0 1872 2041" width="367" height="400"><path d="M936 31q124 0 238.5 32t214 90.5 181 140 140 181 90.5 214 32 238.5-32 238.5-90.5 214-140 181-181 140-214 90.5-238.5 32q-123 0-237.5-32t-214-90.5-181.5-140-140.5-181-90.5-214T40 927t32-238.5 90.5-214 140.5-181 181.5-140T698 63t238-32zm0 1614q122 0 234-39t207-113l-315-314-52 61q-21 24-34 30.5t-25 10.5-27.5 12-41.5 34-34.5 45.5T837 1409t-3.5 32-14.5 32q-17 20-40 31.5t-48 11.5q-17 0-33-5.5t-31-18.5q-11-9-15-25t-2.5-33 8.5-33 17-27q17-18 34.5-24t35.5-10.5 37.5-13T823 1295q21-22 25.5-40t5.5-35 4.5-35 23.5-41q8-9 25.5-29t41.5-49l-48-48q-21 68-58 121t-71 98q5-6 10-8.5t10.5-5 11.5-7 14-15.5q1 26-1 45t-10 33-24 24-43 18q-17-18-29-29t-25-17.5-30.5-9-45.5-3.5q-35-1-59-11t-39-22q-18-14-28-31h34q-27-8-48-25-18-14-33-38.5t-15-62.5q15 10 20.5 13.5t9 2.5 8-5.5T475 1072q-21-34-36.5-64t-21-63.5 0-75T443 772q6 11 10.5 18t9 12 11.5 10.5 18 14.5q-11-57-2.5-103t33.5-84L370 487q-74 94-112.5 206T219 927q0 145 54 275t156 232q102 103 232.5 157t274.5 54zm-190-366q-2-29 0-49t9-37 18-33.5 27-39.5q16-22 26-46.5t6.5-50-24.5-52-66-53.5q-5 8-2.5 19.5T747 962t10 27.5 5 28.5q-14-12-27-31t-29.5-36.5-38-28T615 917q0 6 2 13 2 6 4.5 13t7.5 12q-9-3-22.5-6.5t-27-12T554 913t-19-42q-14 39-11.5 74.5t14 66.5 28.5 54.5 33 38.5q-23 14-45.5 5t-50.5-29q11 48 38 83t82 58q27 11 43.5 13.5t28.5 5 23 10 28 28.5zm411-257l293-344v-51h-2l-317 369zm-143 110l-118 138q3 3 5 4 14-9 24-13t18-7q11-3 19.5-8t25.5-24l54-63zm396-505h-45l-279 324 25 25zm-441 460l-65 76q-15 17-18 30t-4 28v11l-1 12 113-133zm534 280q74-94 112.5-206.5T1654 927q0-145-54-275t-156-232q-103-103-233-156.5T936 210q-121 0-233 38.5T496 360l155 155q35-25 73.5-48t78.5-46q-21 15-32.5 37T754 506t-4 55.5 6 58.5l49 50q-2-19-3-40.5t1-48.5q33 48 55 92t36 86l172 172q50-58 100-117.5t92-107.5q48-56 94-108h126v90l-300 354z" fill="#000000"></path></svg>