<?xml version='1.0' encoding='utf-8'?>
<svg xmlns="http://www.w3.org/2000/svg" viewBox="0 0 1714 2041" width="336" height="400"><path d="M1331 580q85 85 137 191t69 224h-96q-16-99-60.5-188.5T1264 644q-6-5-9.5-14t-3.5-17q0-19 13.5-33t32.5-14q9 0 18 3t16 11zm-365 723q52-42 78-102h99q-15 51-45 96t-74 80q-15 10-30 10-17 0-31.5-13t-14.5-34q0-22 18-37zm205-598q63 60 103.5 133.5T1332 995h-96q-14-63-46.5-119T1107 775q-15-15-15-35t14.5-34 33.5-14 31 13zm-64 717q50-46 82.5-102t46.5-119h96q-17 82-57.5 156T1171 1491q-13 13-32 13-20 0-33.5-14t-13.5-33q0-22 15-35zm-83-602q44 34 74 79t45 96h-99q-26-60-78-102-9-7-13.5-17t-4.5-20q0-21 14.5-34t31.5-13q16 0 30 11zm-548 602q15 14 15 35 0 19-14 33t-33 14q-20 0-33-13-81-76-125.5-178.5T241 1097q0-111 44.5-213T411 705q12-13 32-13t34 14.5 14 33.5q0 22-15 35-69 63-105 146t-36 176q0 94 36 178t105 147zm788 130q72-74 116.5-163t60.5-188h96q-17 118-69 223.5T1331 1617q-7 7-16 10t-18 3q-19 0-32.5-13.5T1251 1584q0-8 3.5-17.5t9.5-14.5zm-647-249q18 15 18 37 0 20-14 33.5t-33 13.5q-15 0-30-10-63-51-99-124t-36-156q0-81 36-153.5T558 820q12-11 31-11 17 0 31.5 13.5T635 856q0 10-4.5 20T617 893q-48 38-73 91t-25 113q0 62 25 115t73 91zm-298 249q8 5 11 14t3 18q0 19-14 32.5t-34 13.5-33-13q-103-105-157.5-238.5T40 1097q0-146 54.5-279.5T252 580q13-14 34-14 19 0 33 14t14 33q0 18-14 31-90 94-137.5 210T134 1097q0 130 47.5 246T319 1552zm1307-501q20 0 34 13t14 33-14 34-34 14H843v101l-255-149 255-147v101h783z" fill="#000000"></path></svg>