<?xml version='1.0' encoding='utf-8'?>
<svg xmlns="http://www.w3.org/2000/svg" viewBox="0 0 2174 2041" width="426" height="400"><path d="M1026 1816v-75H887v75H700v-75H577v75q-260 0-268-23-2-12-5.5-27t-8.5-34q-8-38-22-84.5t-33-92.5q-24-52-58-112.5T116.5 1306t-54-171T40 919t22.5-218 55-172 69-129.5T252 309q24-45 37-92t19-88q2-21 4.5-44.5T315 34h262q-5 61-19 117-6 24-14.5 49.5t-20 49.5-26 45.5T464 333q-24 28-55.5 59t-65 68-65.5 81.5T221 642t-40.5 124.5T165 919q0 62 14.5 130t39 136 57 132.5 69 120 73.5 99 72 67.5h1196q34-25 70.5-68t70.5-98.5 64.5-120T1945 1185t36.5-136 13.5-130q0-84-14-152.5T1943.5 642 1890 541.5t-61.5-81.5-62.5-68-56-59q-19-16-33-37.5t-24.5-45.5-18-49.5T1623 151q-11-56-12-117 248 0 250 27 1 14 2.5 30.5t5.5 37.5q8 41 22.5 88t43.5 92q23 36 57 90.5t65.5 129.5 54 172 22.5 218-22.5 216-54 171-65.5 136.5-57 112.5q-19 46-31 92.5t-20 84.5q-3 19-6.5 40t-5.5 44h-274v-75h-113v75h-210v-75h-125v75h-124zm-355-476V642H466V499h548v143H810v698H671zm874-309l134 52q-17 71-42.5 123t-61.5 84q-38 32-82 47.5t-99 15.5q-67 0-121.5-25t-96.5-78q-97-119-97-323 0-213 97-336 85-106 226-106 117 0 195 80 28 28 48.5 69t32.5 98l-138 39q-12-68-52-103-37-37-92-37-76 0-125 67-48 65-48 219 0 158 47 226 46 66 122 66 56 0 95-42 20-23 34-55.5t24-80.5z" fill="#ffd100"></path></svg>