<?xml version='1.0' encoding='utf-8'?>
<svg xmlns="http://www.w3.org/2000/svg" viewBox="0 0 1990 2041" width="390" height="400"><path d="M1763 1579v133l-55-29-32-10h-33l-31 10-70 37-41 17-41 8h-42l-43-8-39-17-71-37-31-10h-34l-31 10-72 37-40 17-40 8h-42l-43-8-39-17-71-37-32-10h-33l-29 10-74 37-39 17-42 8h-42l-41-8-40-17-71-37-31-10h-35l-30 10-57 29v-133l51-18 53-8 53 7 51 18 70 37 32 10h33l31-10 72-37 39-16 41-8h43l41 8 41 16 70 37 32 10h33l31-10 72-37 39-16 42-8h42l42 8 39 16 72 37 32 10h32l31-10 72-37 50-18 53-7 52 8zM907 211l4-28 13-24 19-21 25-11 28-4 27 4 24 11 20 21 13 24 4 28v88h354v118h-354v177h354v118h-354v178h354v118h-354v159l29 25 22 29 16 34 6 38-2 39-10 36-20 32-25 27-32 20-35 14-37 4-38-4-35-14-32-20-25-27-20-32-11-36-1-39 6-38 15-34 23-29 29-25V211zm1033 1062v123l-205-54-45-9-42 1-43 9-40 16-63 25-67 11-66-2-65-17-61-29 2-67-13-66 97 45 45 14 47 5 45-6 44-18 49-20 50-14 52-6 52 2 52 10zm-1192 74l-59 29-67 17-68 2-64-11-63-25-41-16-43-9-43-1-43 9-207 54v-123l174-47 53-10 53-2 52 6 51 14 48 20 43 18 46 6 47-5 44-14 99-45-15 66z" fill="#e4002c"></path></svg>