<?xml version='1.0' encoding='utf-8'?>
<svg xmlns="http://www.w3.org/2000/svg" viewBox="0 0 2408 2041" width="472" height="400"><path d="M1991 1251v-128h-877l271 270h162v-90h286v330h-286v-90h-225l-421-420H477q-12 35-33.5 64t-50.5 50-64 33-74 12q-49 0-91.5-18.5T89 1213t-50.5-74.5T20 1047t18.5-91.5T89 881t74.5-50.5T255 812q39 0 74 12t64 33 50.5 50.5T477 972h235l344-304h259q21-48 65.5-77.5T1481 561q38 0 71.5 14.5t58 39 39 58T1664 744t-14.5 71.5-39 58-58 39T1481 927q-56 0-100.5-30t-65.5-78h-202L939 972h1052V844l397 203z" fill="#000000"></path></svg>