<?xml version='1.0' encoding='utf-8'?>
<svg xmlns="http://www.w3.org/2000/svg" viewBox="0 0 1998 2041" width="392" height="400"><path d="M1859 1117q-3-50-11-96t-16-78q-2-7-6-7-37-4-101-21-26-8-50.5-18.5T1627 875q-22-13-45.5-26.5T1534 821q-48-29-89-45.5t-74-24.5q-42-10-97-16.5t-112.5-8-112.5 3-95 15.5q-27 8-52.5 23.5T848 807q-29 25-55.5 50T740 902q-14 12-22 19t-13 11-8 7l-7.5 1.5-5.5 1-8 1-15 1.5q-33 5-56 9t-41.5 7.5-37.5 7-44 7.5q-52 9-89 20.5t-65 22.5q-5 2-14 6.5t-11 8.5q-5 6-8.5 17t-6 24-4 26-.5 23q2 8 9 8 9 2 26 3t31 1q11 1 23.5 1.5t22.5.5h23v7q0 26 9.5 48.5t26.5 39 39 26.5 48 10q24 0 46-9.5t38.5-25.5 26.5-37.5 11-45.5q0-2 .5-8t.5-11l826 1 2 10q2 10 2 14 1 23 11.5 43t27 35 38 23.5 44.5 8.5 45-8.5 39-23.5 27.5-35 10.5-43v-25q17 0 36-1 16-1 36.5-2t40.5-3q8-2 8-8zm-431 108q-85 1-192 1H728q-17 42-51 72t-82 42q-36 10-72.5 6t-68-19-57-39.5T357 1232q-6 0-28.5-2t-71.5-4q-20-1-32.5-10.5t-20.5-24-11-31-3-30.5q0-60 11-94.5t21-48.5q12-15 26-27.5t35-24 51.5-21.5 75.5-20q26-5 64.5-12t75.5-14q43-8 90-16 10-1 14-5 4-1 8-4.5t15-13.5q25-21 52-47.5t57.5-51.5 65.5-46 76-32q48-14 110-19t126-3.5 124.5 8.5 106.5 18q45 11 93 35t95 49.5 90 48 77 31.5q40 10 68 12.5t48 8 33 19 22 45.5q12 45 24.5 113t12.5 146q0 17-11 28t-27 17-35.5 8.5-36 3.5-28.5 1h-14q-18 42-52 73t-81 45q-40 11-77 6.5t-69.5-20.5-57.5-42-41-59zm-637 281q25 0 54 7.5t52 33.5q23 27 30.5 58t7.5 54q0 33-9.5 65.5T897 1777q-12 14-27 22t-29.5 12.5-28 6-22.5 1.5q-29 0-57-9.5t-50-31.5q-12-13-19-28.5t-10.5-30.5-4.5-28.5-1-23.5q0-30 7-58.5t24-51.5 44-37 68-14zm-54 241q7 11 19 18t35 7q38 0 57-28 6-11 12.5-30.5t6.5-55.5q0-11-1-25t-6-29q-9-27-27.5-39.5T791 1552q-18 0-32 7t-22 18q-13 16-17.5 38.5T715 1664q0 22 4.5 44.5T737 1747zm243-235h193v49h-128v73h120v50h-120v127h-65v-299zm231 0h193v49h-129v73h120v50h-120v127h-64v-299zM816 558V239H712L585 112h-74v574h78l123-128h104zM320 658q-42-54-64-116.5T234 410q0-70 24-136t69-120l57 47q-37 45-56 98.5T309 410q0 56 18 107t53 95zM169 779q-63-79-96-172.5T40 410q0-104 35-201.5T176 31l58 48q-57 69-87.5 154.5T116 410q0 88 28 170t85 152z" fill="#ffd100"></path></svg>