<?xml version='1.0' encoding='utf-8'?>
<svg xmlns="http://www.w3.org/2000/svg" viewBox="0 0 1182 2041" width="232" height="400"><path d="M1064 1025l-4-26-10-24-16-20-21-14-24-9-26-2-25 6-23 12-19 17-14 22-6 25v25l6 26 14 21 19 18 23 12 25 6 26-2 24-9 21-15 16-20 10-24zm68-82v339l-4 61-10 60-17 57-23 55-30 54-34 50-41 45-45 40-49 35-54 30-56 22-57 17-61 10-60 3-61-3-60-10-58-17-55-22-54-30-50-35-45-40-41-45-34-50-29-54-24-55-17-57-9-60-4-61V943l4-21 8-19 15-14 20-9 20-4h54v-54l-21-4-16-11-12-18-5-21V511l4-57 11-57 16-55 23-48 29-50 37-45 40-40 46-37 47-30 52-22 55-18 57-11 57-4 57 4 57 11 53 18 52 22 49 30 45 37 42 40 34 45 30 50 23 48 17 55 11 57 3 57v365l21 4 18 9 16 14 9 19zm-620 676h157l13-4 10-11 3-15-25-290 26-21 21-25 13-30 8-32v-34l-8-32-13-31-21-25-26-21-31-15-32-8h-33l-32 8-31 15-26 21-22 25-13 31-7 32v34l7 32 13 30 22 25 26 21-25 290 3 15 9 11zm390-743V511l-4-46-10-46-17-43-24-40-29-37-34-30-38-25-41-21-44-15-47-5h-47l-46 5-44 15-41 21-39 25-34 30-30 37-22 40-18 43-11 46-2 46v365h622z" fill="#000000"></path></svg>