<?xml version='1.0' encoding='utf-8'?>
<svg xmlns="http://www.w3.org/2000/svg" viewBox="0 0 2167 2041" width="425" height="400"><path d="M1233 1747H917v-346l375-374q-6-36-6-71 0-87 33-163.5t90-134 133.5-90.5 163.5-33 163.5 33 134 90.5 90.5 134 33 163.5-33 163.5-90.5 133.5-134 90-163.5 33q-105 0-198-49v133h-138v135h-137v152zm-224-92h132v-152h138v-135h137v-138h109l11 7q38 23 81.5 35.5t88.5 12.5q68 0 128-26t104.5-70.5T2009 1084t26-128-26-128-70.5-104.5T1834 653t-128-26-128 26-104.5 70.5T1403 828t-26 128q0 39 9 75l6 25-383 383v216zm879-784q0 37-26 63t-63 26-63-26-26-63 26-63 63-26 63 26 26 63zM858 1375v322q-18 2-36 3t-37 1q-103 0-198-26.5t-178-75T258 1483t-116.5-151-75-178T40 956t26.5-198 75-178T258 429t151-116.5 178-75T785 211q101 0 194.5 25.5t175 72.5T1304 422t117 146l-66 55q-22-36-47.5-69.5T1251 489l-9.5-9.5-9.5-9.5q-20 3-37.5 11t-28.5 22-16 27-23 24q-8 5-15 7.5t-12.5 4-10.5 4-8 7.5q-6 11-3.5 24.5t9.5 24.5q6 10 14.5 15t17 8.5 16 9T1148 674q5 8 6.5 19t-4.5 19q-1 2-8 5.5t-30 4.5q-14 1-22.5 0t-14.5-1.5-10-.5-9 2q-5 3-8 7.5t-5 10.5-5.5 14-9.5 19q-5 9-9 14.5t-8 10-9 10-12 14.5-19 30.5-19 50.5q-5 20-5 32.5t1 22.5 0 18.5-7 18.5q-6 11-13.5 16t-15 9-15 10-14.5 18q-2 5-8.5 21t-1.5 38q0 1 1.5 7t5.5 14 10.5 16.5T908 1160q3 2 7.5 4t13.5 3.5 24 3 39 2.5q30 2 43.5 2t21.5 2zm-92 17q1-3 5.5-14.5t6.5-27.5.5-34.5T766 1280q-8-12-17.5-19t-15.5-12q-12-7-21.5-9.5t-17.5-4-16-3.5-17-8-12.5-12-7-12.5-9-15T616 1165q-8-7-20-16t-29-14-39-4.5-42 9.5q-13 6-30.5 14.5T427 1158l-4-2q-8-5-12.5-12t-6.5-9q-6-11-15.5-25.5T374 1089q-6-7-11-10.5t-12-6.5-16.5-8-24.5-16q-19-13-28.5-21t-12.5-19q-4-15 3-30t18-24q15-12 33.5-13t32.5 5q18 9 42 23t34 36q5 11 7.5 17t3.5 9.5 1.5 7.5 1.5 10q2 17 9.5 22.5t15.5-2.5q1-2 4-11.5t1-26.5q-2-15-4.5-24.5t-5.5-16-5-13.5-3-18q-2-21 8-37.5t17-25.5q16-20 31.5-28.5T534 857q7-3 12.5-3.5t11.5-.5 14-.5 21-2.5q23-4 41-8t35-15q3-2 10-7t14-12.5 12-17.5 5-22q0-8-6.5-18.5T684 722q-16-22-25.5-33.5T636 671q-2-1-7.5-3t-13.5-3.5-17-.5-18 5q-7 3-10 7.5t-6 10-7 12-13 13.5q-4 4-17.5 13T491 738q-9 1-20.5 1.5T448 733q-17-11-21-28t-5-23q-2-26 9-47.5t29-49.5q14-21 23-32t23-16q17-6 36.5-3.5T572 549q5 6 6 12.5t1.5 13 1.5 13 7 12.5 13 9 13.5 4 11 .5 5.5-.5 5.5-1 10.5-4 12-8 10-13q9-16 4-32t-9-24q-2-4-6.5-11t-13-15-22-17-34.5-18q-8-3-17-6.5t-23.5-7-37-7.5-55.5-9q-23-4-39.5-6t-30.5-4q-17 14-34 28.5T318 489q-45 46-80.5 98T177 699q-34 78-46 164 6 5 12 12t14 21q10 18 13.5 31.5t6 27T183 983t15 35q7 13 16.5 27.5T241 1074q4 4 8.5 6.5t12 6 19.5 9.5l32 16 29 14.5 17 9.5 9 6.5 6 5.5q17 20 27.5 34.5T412 1199q1 9-1 18.5t-4.5 18-4 16.5 1.5 15q3 6 7 15.5t9.5 18.5 10.5 17 9 11q11 9 17.5 22t11 28 7.5 29.5 7 26.5q10 28 17 46t13.5 32 13.5 27 17 31q43 16 89 27 0-10 .5-23.5t7.5-33.5q2-7 7-19t16-26q7-9 14-15t14-10.5 15-10 18-14.5q8-8 19.5-21t21.5-33zm-3-794q7 8 22 5t29-8q12-4 23.5-9t24.5-12.5 29-18.5 38-26q21-15 34-25t21-16.5 12-10.5 7-9q5-8 15.5-27.5T1033 392q2-14 1.5-25.5T1032 344q-119-48-247-48-46 0-91 6 4 17 14.5 34t21.5 29q12 12 23 17.5l21 10.5 19.5 11.5L812 424q1 2 5 9t7 17 3.5 21-3.5 22q-3 8-7.5 12.5t-10.5 9-13 10.5-14 17q-4 6-8.5 13.5T763 571t-3.5 15.5T763 598z" fill="#000000"></path></svg>