<?xml version='1.0' encoding='utf-8'?>
<svg xmlns="http://www.w3.org/2000/svg" viewBox="0 0 2131 2041" width="418" height="400"><path d="M2084 1741q15 26 0 55-8 13-21 20t-27 7H95q-14 0-27-7t-21-20q-7-13-7-27.5t7-27.5L1018 59q8-12 20.5-19.5T1065 32q32 0 48 27zM1155 437q-20 40-36 73-14 28-25 52.5t-11 27.5l85-144zM691 966q5-37 9-73.5t8-71.5l-135 233q7 39 13.5 80t12.5 78q5 0 13 .5t19 .5 19 .5 14-.5q2-20 4.5-44t5.5-49q-2 2-3 1t-2.5-3-3.5-4-5-2q-8 0-14-2.5t-8-3.5q-1 0-6-4t-7-5-5.5-4.5-5.5-6.5q-1-2-1-9t-1-9-2-8 1-11 3-5 5-5q5-3 7-5t6-7q5-6 5-11 0-2-1.5-11t-2.5-11q0-4-2-12-2-7 8-10 5-2 8-.5t7 .5 3-2 0-2q0-5 9-4 5 2 9.5 4.5t9.5 4.5q4 1 6-7zm303 664q1 4 2 4-1 1-4 1.5t-5 .5q-2-2-6-1-1 1-1.5 2.5t-2.5 3.5q58 23 108.5 42.5t75.5 29.5h344q-31-7-83.5-19t-116.5-27-133.5-31.5-135-32.5-122-30.5T822 1547q0 1 1 1h2l24 12q2 1 4 3.5t4 3.5q1 1 2 5.5t1 6.5q-1 5-1 5.5t-4 1.5q-2 0-5.5 2t-7.5 4q24 8 51 17.5t55 20.5q0-1 .5-1t.5-1v-1l4-8q0-4 5-7h5.5l7.5 1q2 0 5.5 1t4.5 1 3 1l4 2q4 2 6 7 2 2 1 2.5t-1 2.5zm947 83l-74-127q-21-2-76-8.5t-131.5-15.5-167-20-182-23-178-23-154-21-110-17.5T822 1446q4 0 40.5 1.5t95 4 134.5 6 158.5 7.5 167 8 160 7.5 137 6.5 98.5 5l-35-59 1 4-698-18 671-33-64-109q-20 3-64.5 9t-104.5 14-129.5 17-140 18-136.5 17.5-118 15-85 10.5-37 4q2-2 32-10t79-19.5 111-26.5 129-30.5 133.5-30.5 123.5-28 100-22.5 62-14.5l-93-161q-15 7-48 22t-78 35-97.5 43.5-106 47.5-104 46.5-91 40.5-67.5 29.5-34 13.5q5-4 28.5-18.5t60-36 82.5-48.5 95-55.5 98.5-57 93-53 77.5-44 53-30.5l-56-99q-17 13-55.5 42t-90 67.5T1199 1068t-120.5 90-117 86.5-101 74T788 1371t-32 21q-3 1 20-22.5t63.5-63.5 93.5-92 110.5-107.5 115-110.5T1264 895t83-79.5 47-45.5l-49-82-413 429 383-483-85-146q-4 7-29 49l-62.5 105-84 141L960 940l-92.5 152.5L789 1221q1 2 1.5 3.5t2.5 2.5q5 3 6.5 4l4.5 3q2 2 3 7t3 10q1 5 0 7.5t-1 4.5 2 4.5 4 1.5q3-2 5.5-2.5t2.5-2.5 3.5-6.5 3.5-6.5q0-1 .5-3.5t.5-4.5q1-2 2-5t3-5 3.5-4.5 3.5-2.5q3 0 8 .5t6 .5q2 0 4.5 1.5t2.5 3.5q2 4 2 10 1 2 .5 4.5t-.5 4.5-2 6-3 4q-2 1-5 4.5t-5 4.5-3.5 1.5l-4.5 1.5q-8 2-12 6-3 3-7 10-2 2-2.5 4.5t-2.5 3.5q-2 2-4 6t-4 5h-6l-6-1q-3-1-3.5-2t-2.5-3q-6-6-11-6-3 0-5.5-.5t-6.5-.5q-5 0-7-1t-6-1q-5 0-6.5-.5t-3.5-.5h-4v-1q-12 20-19 29t-7 5q0-5 18-47.5t47.5-109 67-150 77.5-171 78.5-172 70-153 52.5-114 25-54.5l-87-151-260 447q-10 49-23 109.5t-26.5 124-27.5 127-26.5 118.5-23 98.5T663 1295q-3 25-5 25h-1q-4-2-13.5-4.5T629 1312q-5-2-11.5-1t-6.5-5v-5q0 12-2 11t-7.5-23.5T588 1233t-17.5-72-17.5-75l-33 59q12 25 24.5 53t23.5 51.5 18 39.5 7 18q-11 2-25-11t-31-33q-4 0-6 2-9 12-12 12-1 0-3.5.5t-4.5.5q-6 0-10-1-3-3-4-5.5t-3-5.5-4.5-7-4.5-6-4.5-5-4.5-5-2-6v-6q1-2 4-4.5t5-4.5l6-4 5-4q6-2 8-4-2-5-5-8.5t-5-7.5l-302 519h807q-18-10-44.5-25t-56-31.5T837 1623t-53.5-31-39-24-16.5-12q3-1 24 5-3-2-2-3 0-1 1.5-1.5t3.5-3.5q7-7 9-8 2-2 6-4.5t4-3.5q0-3 3-5-6-3-7-4 5 0 39.5 6t89 16 125 24 147.5 29 156.5 31 152.5 30.5 135 27 104 21.5h222zm-435-679q0-6-4-11.5t-9-7.5h-4q-1 0-2 2t-6 6l-16 8-11 9q-5 7 .5 11.5t7.5 4.5q7 2 14.5-4t15.5-11q9-4 11.5-3.5t2.5-3.5zm298 515q1 1 1-2v-3l-1-9-2-6-152-6 11.5 2 28 5 36.5 6.5 37 6 28.5 4.5 12.5 2zm-1096 7q1 6 8 11-20 29-52 46t-70 17q-31 0-58-11.5t-47.5-32-32-47.5-11.5-58q0-53 31.5-92.5T556 1336l3 3q2 2 4 6l3 6q2 2 5 3.5t5 3.5q3 4 5.5 9.5t2.5 10.5-.5 8-2.5 7q-4 4-9.5 5t-7.5 5q-2 3-4.5 5.5t-4.5 6.5q-5 7 1 13 3 3 8.5 2.5t9.5-.5q7 0 12.5-1t12.5-1 15 6q3 5 5.5 8.5t8.5 3.5 10 4q4 2 5 4.5t4 3.5q4 1 10-.5t9-1.5q1-1 2 1t2 2q8-2 9.5-2t.5 5v14q0 5-8 7.5t-10 6.5q-2 2-1.5 5t.5 6v5l-2 1q-5-2-3-.5t1 2.5q-4 4-7.5 5t-2.5 5 6 2.5 7 1.5 2 10q0 4 5.5 2.5t8.5-2.5q10-2 18 1 3 1 5 3.5t5 4.5q3 3 2.5 6.5t1.5 7.5zm-218-213q-7 0-8-1.5l-3-4.5q-2-5-2.5-8.5t4.5-6.5q13-8 23-4 5 4 7.5 9t-.5 10-9 5.5-12 .5zm42-21q-4-1-4.5-3t-2.5-4q-2-3-2.5-4.5t2.5-3.5q5-7 12-4 8 7 7 14-2 5-12 5zm79 78q-6-2-7.5-1.5t-3.5-4.5q-1-5-.5-8t3.5-8q5-5 9.5-6.5t9.5-3.5q7-2 7-1.5t6-1.5q7-2 11.5-4t12.5 0q7 1 8 4t7 5q7 3 9.5 2.5t9.5 3.5q13 7 13 11t-5.5 3.5-10.5 2.5q-5 4-6 6t-5 4q-6 3-7.5 3t-6.5 2q-3 2-4.5 5t-5.5 3-4-2-4-5-7.5-6-7.5-3q-2 0-9 .5t-12-.5zm166 16q8 1 7.5 1.5t1.5 2.5q4 5 1 11-1 4-7 10-3 3-4.5.5t-3.5 2.5q-6 6-4 12 2 3 4 1.5t4 1.5q8 8 8 13t-1.5 6-6.5 5l-4.5 3-8.5 3q-8 2-12 2.5l-12 1.5-12.5 1h-16l-11.5-1q-6-2-7.5-2t-4.5-4q-4-4-3-14 1-5 1.5-6t4.5-6q5-5 7.5-6t7.5-8q4-8 4.5-13t2.5-11q2-5 1-5t6-2q6-2 11-1t16 1 17-.5 14 .5zm-44 212q-3-2-2-4.5t0-7.5q0-4-1.5-5.5t2.5-3.5 8-1.5 9 .5q6 1 6 .5t8 2.5q7 2 12 2.5t11 6.5q5 5 4.5 9.5t-.5 10.5q1 5 2 6.5t-2 3.5q-4 5-15 2-5-3-5.5-5t-6.5-5q-5-3-7.5-5t-7.5-4-8-1-7-2zm117-883q0-1-1.5-7t.5-8q1-2 5-6l5-5q4-5 7.5-7.5t8.5-8.5q5-7 6-11t3-7q1-2 4.5-8t6.5-12q3-5 1.5-5.5t2.5-3.5q2-4 6-7t6-3 5.5 1.5 8.5 3.5 5.5 2h5.5l7-.5 6-1.5q5-2 6-4t6 0q10 1 16 10 3 3 2 5t-2 7q-2 5-4 8.5t-3 5.5-2 6.5-3 9.5q-2 4-3 3.5t-5 3.5-7 8.5-4 5.5q-2 1-6 4t-8 8q-3 5-2 6t-2 5q-3 5-4.5 6.5L917 756l-7 7-7 7-4.5 8-4.5 5-8.5 1-6.5-2-7.5-5.5-5.5-6.5q-1 0-4-4.5t-5-6.5zm228 51q-2-1-2-6t-2-7q-1-2-1-5.5V771q0-2 .5-5.5t2.5-5.5q1-2 2-3.5t2-6.5q2-5 4-8.5t2-4.5q1-2 4-6t5-6q1-2 4-4t4-3q2-2 5-2.5t8-1.5q5 0 7 .5t4 .5 5 .5 8-.5q5-2 10-3.5t6-2.5q2-4 9-8 4-3 4.5-4t6.5-1q5 0 10 .5t9 3.5q5 4 3.5 6t-.5 7q2 5 1 5.5t1 3.5q2 5 4 6t1 6q-1 4-3.5 7t-4.5 5l-5 5-7 8q-3 5-4 8t-3 5-7 6-7 5q-2 0-7 4t-7 6l-5.5 5.5-8.5 6.5q-10 7-13 7-1 0-6 1t-8 0q-6-4-11-4-6 0-12-4-2-1-4-4t-4-5zm140 468q-7 1-16-10-7-7-7-11 0-2 2.5-6t5.5-7q4-3 3-2.5t7-3.5q8-5 16-8.5t19-8.5q21-10 26-10 2 0 6 1t10 6q9 8 13 13 2 5 1.5 4.5t-1.5 4.5q-1 4 0 7t-2 9q-3 5-7 7l-6 3-3 5-6 6-9.5 1.5-9.5-2.5q-6-1-7-3t-3-1q-1 0-8 1.5t-9 1.5-6.5 1.5-8.5 1.5zm-141 286q6 3 8 3t4 4 2 5.5-5 3.5q-7 3-16.5 3H1058q-4-1-11.5-2.5t-13.5-4.5q-5-4-4-7t0-5-1-7 1-5q2 0 7 1l10 2q5 0 5.5-1.5t6.5 1.5q5 2 9.5 4t9.5 5zm189 1q2 4 1.5 5t-1.5 5v5l-3 5q-9 5-18 3-3 0-8.5-1l-11-2-10-1.5-5.5-.5-6.5-.5-11.5-.5-11-.5-6-.5q-4 1-12.5 0t-9.5-1h-5.5l-8.5-3q-4-2-5-9-1-4 1-6t2-3q0-2-.5-6t-2.5-6 2-6q1-2 3-4 6-2 13-1t18 0q11 0 16.5-.5t7.5-.5q1 0 6 .5t10 .5 10 .5 6 .5q2 1 3.5 3.5t6.5 5.5q6 4 9 4.5t8 4.5 8 5 5 5zm-112 135q-10-6-13.5-7.5t-8.5-4.5q-5-2-5-1.5t2-1.5q2-4 5.5-6t5.5-7q4-4 2-6t5-4h4.5l3.5 1 7 2.5 14 3.5q19 4 32.5 5.5t36.5 9.5q23 6 38.5 12.5t16.5 7.5q1 0 8 3t15 6q10 4 22 9h-166q3-2-7-9t-18-13zm-380-629q-1-1-3-5.5t-2-5.5q0-2-2.5-6.5T765 1028q2-6 3-7.5t6-7.5q4-5 7-6.5t8-6.5q4-5 4.5-6.5t4.5-2.5q5-2 7-1l4 2q4 2 4.5 3t2.5 6q3 8 3 12-1 4-2.5 4t-3.5 2q-1 1-2.5 4t-2.5 10q0 5 1.5 7t1.5 7 1.5 7-1.5 4q-2 3-5 3.5t-5 1.5-8.5 2.5-8.5-.5q-2-1-5.5-3.5t-4.5-4.5zm-13 72h-5.5l-6.5-2q-2-2-2-4.5v-4.5q0-3 1-7t1-5q2-4 10-5 5-1 9-2t8 3 5.5 10-.5 6q-1 1-2.5 5t-3.5 5q-3 0-7.5.5t-6.5.5zm-3 201q-5-1-5-5 0-2-1.5-2t1.5-4q4-4 4-5t4-3q3-2 3-2.5t5-.5q3 0 6.5.5t8.5 2.5q4 2 4.5 4.5t1.5 5.5q0 4-4 5-5 5-15 5-7-1-8.5-.5t-4.5-.5zm117 19q-1-5-1-9 0-2-1.5-4.5t2.5-4.5q5-2 6.5-3.5t3.5-.5q5 0 10 2 5 1 6 1t6 2 7.5 3.5 6.5 4.5q5 2 7 2t4 3q5 6 3 9-4 4-10 4-3 0-7-.5t-6-.5q-3-1-9.5-1H894l-10-4q-3-1-6 0t-3-3zm52-304q-2-4-4.5-4t-1.5-5q1-10 3-12 6-2 8-4 3-1 1.5 0t2.5-2 7-6.5 8-6.5q11-8 12-7 3 0 8 5 2 2 2 2.5t2 2.5 2.5 3.5 1.5 5.5q2 8-1 8-1 0-4 1.5t-4 1.5q-1 1-3.5 5.5t-4.5 5.5q-3 0-6 3-2 1-5 4-1 2-1 3l-3 3-4 3h-6q-3-1-5-4-2-2-2-1.5t-3-4.5zm14 457q0 1 2.5 3t3.5 5q2 3 1.5 4.5l-1.5 4.5q0 7-1 7-1-1-3-.5t-4-1.5q-7-2-7-5-2-2-1.5-2.5t-4.5-2.5q-6-1-9-4-4-2-4.5-2t-2.5-2-3.5-2-3.5-3q-2-5 0-7t.5-2.5 3.5-1.5l6-1h3q2 0 3.5 1t3.5 2q3 1 3 .5t3 1.5q4 2 8 4.5t4 3.5z" fill="#000000"></path></svg>