<?xml version='1.0' encoding='utf-8'?>
<svg xmlns="http://www.w3.org/2000/svg" viewBox="0 0 2044 2041" width="401" height="400"><path d="M50 934q0-59 7-109.5T72 723l178 45q-8 41-14.5 83t-6.5 83q0 43 6.5 82.5T250 1090l-178 44q-8-50-15-100t-7-100zm222 234q25 92 73 173t116 148l-122 133q-83-83-147-182.5T94 1223zM94 634q34-109 98-207t147-181l122 133q-68 58-116 138.5T272 691zm1611-388q83 83 141.5 181t91.5 207l-166 46q-34-85-83.5-164T1571 379zm255 477q17 51 25.5 101.5T1994 934q0 50-8.5 100t-25.5 100l-166-44q0-34 5-73.5t5-82.5q0-41-6.5-83t-15.5-83zm-12 500q-40 117-100 216.5T1705 1622l-134-133q68-67 117.5-147t83.5-163zM428 934q0 80 21 154.5t60 141 92.5 120 119.5 92 140.5 60T1016 1523q81 0 156-21.5t140.5-60 119-92 92.5-120 60-141 21-154.5q0-121-46.5-228T1432 519t-188-127-228-47-227.5 47-187 127T475 706t-47 228zm-111 0q0-97 24.5-186t70-167.5 109.5-142T662.5 330t167-70 186.5-25q147 0 274 54.5t222 149 149.5 222T1716 934q0 97-25 186.5t-70.5 167-109 142-141.5 110-167.5 70T1016 1634t-186.5-24.5-167-70-141.5-110-109.5-142-70-167T317 934z" fill="#ffd100"></path></svg>