<?xml version='1.0' encoding='utf-8'?>
<svg xmlns="http://www.w3.org/2000/svg" viewBox="0 0 1871 2041" width="367" height="400"><path d="M936 30q124 0 238.5 32t213.5 90 181 140 140 181.5 90 214 32 238.5-32 238.5-90 213.5-140 181-181 140-213.5 90-238.5 32-238.5-32-214-90T302 1559t-140-181-90-213.5T40 926t32-238.5 90-214T302 292t181.5-140 214-90T936 30zm-22 1420q1-3 6-17t8-33.5.5-41.5-14.5-43q-10-15-21.5-23.5T873 1278q-14-9-25-12t-21-4.5-19.5-3.5-20.5-10q-10-7-15-14.5t-9.5-15.5-11-18-19.5-23q-10-9-24-19.5t-34-17.5q-21-6-47-5t-51 12q-8 3-17.5 8t-19.5 8.5-18.5 5.5-14.5-1q-2 0-4-2l-1-1q-11-6-16-14t-7-11q-8-14-20-30.5t-18-24.5q-7-9-13-13t-14-7.5-19.5-10T364 1035q-21-16-32.5-25T317 987q-5-18 2.5-35.5T340 924q17-15 40-16t40 7q10 5 23.5 11t26.5 14.5 24 19.5 17 24l9 19.5 4.5 11 2 9 1.5 12.5q3 21 11.5 28t18.5-3q2-2 5-14.5t1-32.5q-2-18-5-29t-6.5-19-6.5-16.5-4-21.5q-1-12 2-23t8-21 10.5-18 10.5-13q18-23 37-33.5t24-12.5q9-3 15.5-4.5t13.5-2 16.5-1T705 797q27-4 49-8.5t42-18.5q3-2 11.5-8.5t17-15.5 15-20.5T846 700q0-11-7.5-23T815 644q-20-26-31.5-40T758 583q-2-1-9.5-3.5t-17-4-21-1T689 580q-8 4-12 9t-7.5 11.5T661 615t-15 17q-5 5-21.5 16T582 663q-11 2-24.5 2.5T530 657q-10-6-16-15t-9-18-4.5-17-1.5-12q-3-30 10-56t36-60q17-26 28-40t26-19q21-6 45-3t37 18q6 8 7 16t1 16 1.5 15.5T698 497q7 8 16 11t16.5 4 13.5.5 7-.5 6.5-1.5 12.5-5 14-9 12-14.5q5-10 5.5-20t-1-19.5-5-16.5l-5.5-11q-3-6-8-14t-15-17.5-27-20.5-42-23q-9-4-20-7.5t-28.5-7.5-44-8.5T539 306q-27-5-47.5-7.5T455 294q-22 17-41.5 33T374 363q-55 55-97 118.5T204 616q-39 96-54 197 8 7 15.5 15.5T181 853q12 22 16 38.5t7 32 8 33.5 19 43q8 14 19.5 32t31.5 35q5 5 10.5 8t14 7.5 23 11T367 1112q22 11 35 18t20.5 11.5 11 8l6.5 6.5q22 23 34.5 41t12.5 20q1 11-1.5 22.5t-5.5 22-4.5 20 2.5 18.5q3 7 8 18t11 22.5 12 20.5 11 13q13 10 21 26t13.5 34 9 36 8.5 32q12 33 20.5 54.5t16.5 38 16.5 32.5 20.5 37q52 21 108 33 0-12 1-29t9-40q2-9 8-22.5t18-30.5q9-12 17.5-19t17-13 18-12 21.5-16q8-8 23-24.5t27-40.5zm-3-956q8 9 25 5.5t34-8.5q15-4 29-10t29.5-15 34.5-22 45-32 41.5-31 25-20 14-13 7.5-11q8-8 20.5-31t17.5-59q2-15 1-30t-3-28q-71-28-145.5-42.5T936 132q-29 0-56 1.5t-53 5.5q5 20 17 41t26 35 27.5 21 25.5 13 23 14 21 23q1 3 6 11.5t9 19.5 5 25-4 27q-4 9-10 14.5t-13 11-15 12.5-16 19q-5 7-10 16.5t-8.5 19.5-4 18.5T911 494zm586 993q54-55 96.5-118.5T1667 1234q30-74 46-151.5t16-156.5q0-81-16-158.5T1667 616q-31-71-73.5-134.5T1497 363q-6-6-12-11.5t-12-11.5q-23 4-44.5 13.5T1393 381q-6 8-10 16t-8.5 15.5-10.5 15-16 13.5-18.5 9-15.5 5.5-12.5 5.5-9.5 9q-8 12-5 28.5t11 29.5q8 12 18 18t20.5 11 20 11 15.5 18q5 10 7.5 23.5T1375 632q-2 2-9.5 6.5T1329 644q-17 1-27 0t-17-2-12-1-11 3q-7 3-10 8.5t-6 13l-7 17.5-11 23q-6 11-11 17t-10 11.5-11 12-14 17.5-22.5 37-23.5 61q-6 24-6 39t1.5 26.5.5 21.5-8 23q-8 12-17 18t-18 11.5-18 12.5-17 21q-4 7-11.5 26t-2.5 45q0 1 2.5 8.5t7.5 17 13 20.5 21 19q4 3 9.5 5t16 3.5 28.5 3 47 2.5q24 2 38.5 2t23.5 1 15 2.5 13 4.5q25 14 37 34.5t17 30.5q7 15 9.5 35.5t5.5 56.5q2 21 3 34.5t1.5 22.5 2 16.5 4.5 17.5q5 18 11 36.5t21 32.5q13 11 27.5 16t28.5 7q14-10 27-22t27-26z" fill="#000000"></path></svg>