<?xml version='1.0' encoding='utf-8'?>
<svg xmlns="http://www.w3.org/2000/svg" viewBox="0 0 1851 2041" width="363" height="400"><path d="M1811 1819H40V30h1771v1789zM104 94v1659h1643V94H104zm410 317h379q65 0 113.5 4.5T1088 431q90 25 156 93t99 168q33 99 33 242 0 128-31 220-39 111-110 182-23 23-53 42t-69.5 32.5-90.5 21-117 7.5H514V411zm207 175v678h156q52 0 85.5-3t56-9 37.5-15.5 31-23.5q34-32 54.5-101.5T1162 926q0-93-13.5-153t-37-97-55.5-55-69-26q-23-5-65.5-7T815 586h-94z" fill="#000000"></path></svg>