<?xml version='1.0' encoding='utf-8'?>
<svg xmlns="http://www.w3.org/2000/svg" viewBox="0 0 2579 2041" width="505" height="400"><path d="M1819 655q35 14 67 31t64 37l151 101q30 21 61.5 36.5T2230 881l164 26q19 1 34.5 12t25.5 27q17 48 29 96t21 99q10 55 16.5 110t8.5 112q-1 24-16.5 39t-40.5 23.5-57 12.5-65.5 5.5-66.5 1.5q-32 0-58 1-8 42-31.5 75.5T2137 1579t-71.5 37-76.5 13-73.5-11-65.5-33-53-54.5-35-74.5H811q-11 35-34 67.5t-54 56-68 37-76 13.5-76.5-13-68.5-37-54-58.5-33-76.5l-8-3q-61-2-120-6t-116-15q-18-8-28.5-24.5t-16-35-7-37T50 1295q0-51 15.5-95t38.5-87q29-45 67-75t81-51 90-34 94-24l151-34q61-12 115-42t105-72q131-85 276-133.5t311-48.5q115 0 220 11.5t205 44.5zm-79 116q-149-38-310-38-90 0-170 12.5t-154 37-143.5 62T825 932q-42 31-84.5 53.5T650 1019l-174 37q-47 11-98.5 27.5T283 1126t-71 64-28 92q0 12 1 15l4 5 279 12q8 0 8 16 0 11-.5 23t-.5 23q0 22 6.5 43.5t19 38.5 32.5 27.5 47 10.5q23 0 42.5-9t33.5-25 22-37.5 8-46.5q0-9-.5-18.5t-.5-19.5q0-4 .5-8t.5-9l2-5h1189l5 7q0 26 3 55.5t14 55 32.5 42.5 59.5 17q15 0 30-4.5t26-13.5q21-12 32-30t15.5-39 5.5-43.5 2-44.5q1-4 10-4h8q5 0 6-1h261l5-15q-5-66-15-130.5t-29-124.5q-2-4-4.5-7.5t-7.5-4.5q-38-7-77.5-12.5T2181 1005q-61-16-115-47.5t-106.5-67-106-68.5-113.5-51z" fill="#000000"></path></svg>