<?xml version='1.0' encoding='utf-8'?>
<svg xmlns="http://www.w3.org/2000/svg" viewBox="0 0 1866 2041" width="366" height="400"><path d="M1702 1068q26 3 49 15.5t39.5 32 26 44 9.5 51.5v463q0 30-11.5 56.5t-31 46-46 31-56.5 11.5H996q-41 0-75.5-21t-53.5-56h-86v27q0 29-19.5 42t-48.5 13q-28 0-49-13t-21-42v-27h-64v27q0 29-20 42t-50 13q-27 0-47.5-13t-20.5-42v-72h-53q-78 0-134.5-14t-95-37-62-52-36-58.5-16.5-57-4-47.5q0-151 97-224 41-33 94.5-52.5T350 1116q5-2 10.5-3.5t10.5-3.5q24-7 49-13t48-11q54-13 89.5-24t57.5-23.5 31-29 9-40.5-18-42q-17-17-45-28t-62-17.5-70.5-9-70.5-3-63 .5-47 2q-12 1-21 1h-16q9-7 13-18 3-9 2-21.5T242 803q-13-17-14.5-27.5T229 758q4-8 13-13h13l18-1q64-3 129.5-2T528 752t111 28 87 53q56 54 56 135 0 119-102 180-41 23-88 36.5t-96 25.5q-22 5-44 10.5t-43 11.5q-6 2-12 3t-11 3q-64 19-106 34.5t-67 35.5-35 48.5-10 74.5q0 8 1 22t7 29.5 19.5 31 38 28 62 20.5 92.5 8h53v-73q0-29 20.5-42t47.5-13q30 0 50 13t20 42v27h64v-27q0-29 21-42t49-13q29 0 48.5 13t19.5 42v27h71q3-27 15.5-50.5T899 1433t44-26.5 53-9.5h118q6 0 12.5-1t11.5-6.5 8.5-17 3.5-33.5v-128q0-28 10.5-53.5t28.5-45 42-31.5 52-14V266q0-16 4-40t12.5-50.5 22-52.5 31.5-47 41-34 51-13h95q28 0 51 13t41 34 31.5 47 22 52.5T1698 226t4 40v802zm-292-623h165V266q0-13-4-29.5t-10.5-32.5-14-28.5T1532 157h-81q-6 6-13 18.5t-13.5 28.5-10.5 32.5-4 29.5v179zm0 227h165V555h-165v117zm0 395h165V779h-165v288zm288 144q0-7-5-12.5t-12-5.5h-386q-8 0-12.5 5.5t-4.5 12.5v128q0 44-11.5 77.5T1233 1476q-15 17-44 33t-75 16H996q-7 0-12 5.5t-5 13.5v130q0 7 5 12t12 5h685q7 0 12-5t5-12v-463z" fill="#000000"></path></svg>