<?xml version='1.0' encoding='utf-8'?>
<svg xmlns="http://www.w3.org/2000/svg" viewBox="0 0 1996 2041" width="391" height="400"><path d="M1055 1740v-68h113v68h191v-68h102v68h248l2.5-21 9-55 17.5-76.5 28-84.5q21-47 51.5-101.5t59-123.5 49-154.5T1946 928t-20.5-198-49-155.5-59-117T1766 375q-26-39-39.5-82.5t-20-80.5-7.5-61.5l-1-24.5h-226q0 2 .5 21t5 52 14 68.5 27 71T1563 397q34 38 78.5 82.5t84.5 106 67.5 144.5 27.5 198q0 56-12 117.5t-33 123-49 120-59 108.5-64 89.5-64 61.5H457q-31-22-65-61.5t-66.5-89.5-62-108.5-52-120-35.5-123T163 928q0-76 14-138.5t36.5-113 51.5-91 59-74 59-61.5 51-53q27-23 45.5-58.5t29.5-71 17-68.5 8-52 2-21H299l-1 24.5-6 61.5-17 80.5-33 82.5q-26 33-59 82.5t-62.5 117-50 155.5T50 928t20.5 195.5 49 154.5 59.5 123.5 52 101.5q17 42 29.5 84.5t21 76.5 13 55l4.5 21h237v-68h112v68h169v-68h125v68h113zm-148-350q0 17 6.5 33.5t18 29T960 1473t38 8 38-8 28.5-20.5 17.5-29 6-33.5q0-43-23.5-72.5T998 1288q-42 0-66.5 29.5T907 1390zm91-1208q-42 0-66.5 31T907 295v835q0 51 24.5 82t66.5 31q43 0 66.5-31t23.5-82V295q0-51-23.5-82T998 182z" fill="#000000"></path></svg>