<?xml version='1.0' encoding='utf-8'?>
<svg xmlns="http://www.w3.org/2000/svg" viewBox="0 0 2550 2041" width="500" height="400"><path d="M1944 1151L623 1419l-37 15-28 29-54 83-25 28-31 18-37 9-37-3-135-36-130-40-43-32-16-48h261l68-113 8-29-8-28-68-114H50l16-50 43-30 130-42 135-35 40-2 39 11 35 23 75 76 15 8h19l1343-361 36-17 25-30 28-48 22-27 27-21 32-13 34-6 35 4 124 33 127 34 37 21 24 35 9 41h-282l-76 136-10 32 10 34 76 134h282l-9 42-24 36-37 19-127 36-126 31-59 2-52-27-94-79-14-7h-14z" fill="#000000"></path></svg>