<?xml version='1.0' encoding='utf-8'?>
<svg xmlns="http://www.w3.org/2000/svg" viewBox="0 0 1970 2041" width="386" height="400"><path d="M1361 1241q-39 0-74-15t-60.5-40.5-40.5-60.5-15-74q0-40 15-74.5t40.5-60T1287 876t74-15q40 0 75 15t61 40.5 41 60 15 74.5q0 39-15 74t-41 60.5-61 40.5-75 15zm0-292q-21 0-39.5 8t-32.5 22-22 32.5-8 39.5 8 39.5 22 32.5 32.5 22.5 39.5 8.5q22 0 41-8.5t33-22.5 22-32.5 8-39.5-8-39.5-22-32.5-33-22-41-8zM422 785q-24 0-45.5-9t-37-25-25-37-9.5-45 9.5-45 25-37 37-25.5T422 552t45 9.5 37 25.5 25 37 9 45-9 45-25 37-37 25-45 9zm0-179q-26 0-44.5 18.5T359 669t18.5 45 44.5 19 45-19 19-45-19-44.5-45-18.5zm57-279q-8-2-19-3t-19-2v4q0 18-7.5 35T412 390q-24 20-55 20-11 0-16-1-12-3-25.5-10T293 379q-6-4-11-15-3-5-5-11-17 8-32 17t-30 20q11 11 17 26.5t6 32.5q0 9-2 14-5 29-28.5 49T153 532q-10 0-15-2h-3l-14-4-13-6q-6 13-10 25-4 11-7.5 22.5T85 588h4q17 4 33 14.5t25 27.5q5 11 9 21.5t4 22.5q0 21-11.5 40.5T116 746q-11 7-29 10 5 14 9 26 4 11 8 22.5t8 19.5q22-14 48-14h6.5l7.5 1 15 4q25 11 40 32.5t15 47.5q0 7-1 14t-4 14q-6 16-17 27 13 8 24 15 10 6 20.5 11.5T285 985q7-17 20-31.5t32-22.5q14-5 30-5 10 0 15 1 21 3 38.5 17.5T446 981q2 4 2 9t1 10q0 6 1 12 20-2 38-4.5t35-8.5q-1-5-2-11-1-5-1.5-11.5T519 962q0-21 8-39 11-21 31.5-31.5T601 881q10 0 14 1 1 0 1 1t2 1q5 2 12 3.5t12 5.5q4 2 8 5.5t8 6.5l8 8q13-12 24-26.5t21-29.5q-11-9-20-20-8-9-14.5-19t-8.5-21q-2-4-2-8v-8q0-29 20-53.5t49-29.5h8q4 0 7.5.5t7.5.5h8q1-9 1-18.5V645l-1-19q-8 3-16 3-10 0-17-3-21-1-39-19-15-12-23.5-29.5T662 542q0-29 21-52 9-14 24-21-8-10-17-21-8-8-16-17.5T659 414q-13 10-24 18-11 7-22 12t-22 5q-3 0-6.5-1t-7.5-2q-30-5-49.5-28T508 363q0-7 1-14.5t4-16.5q-5 0-10-1t-11-1.5-13-2.5zm9-51q15 2 25 4.5t11 2.5l59 13-23 55q-1 4-1 12 0 12 7.5 21.5T586 396l5 1q5-1 15.5-7.5T625 376l35-30 34 31q8 7 16.5 17t16.5 19 13.5 16 7.5 9l36 48-63 36q-7 7-7 20v4q1 7 4 12.5t7 10.5q7 6 17 6 1 2 6 2 4 0 7-2l69-15-7 65q3 24 3 49v14.5l-1 14.5-5 53-53-5q-3-2-8.5-2H743q-10 3-19 13-3 6-5.5 12.5T716 786q4 5 12 14t16 17l36 28-25 40q-12 18-25.5 34T702 949l-37 37-37-37-6.5-6.5-5.5-5.5-4.5-2.5-5.5-2.5h-4q-20 0-30 17-2 4-2 17v11.5l2 12.5 10 45-45 13q-20 7-41 10.5t-42 5.5l-54 4v-52q-1-5-1.5-10t-.5-7q-3-9-10.5-14t-15.5-7l-6-1q-7 0-11 3-17 3-20 21l-17 56-52-24q-10-4-21.5-10.5t-22-12-18.5-10-10-5.5l-51-33 42-45q1-3 2.5-6t2.5-7q1-3 2-5t1-5q0-10-6-18.5T170 863h-5q-3-1-7-1t-8.5 1.5-9.5 3.5l-47 31-26-53q-5-9-10-20.5T48 802t-6.5-19.5T39 771l-19-56 60-10q3 0 5.5-1.5T90 701q17-10 17-28 0-10-4-17-3-7-9.5-11T80 639h-2l-55-6 14-56q2-11 5.5-23.5t7-24 7-19.5 4.5-10l23-55 51 30q8 4 12 4 2 2 7 2 12 0 20.5-8t10.5-19l1-8q0-11-9-20l-39-43 47-33q17-14 34-24.5t36-20.5l49-20 28 62q4 6 9 8.5t10 2.5h7q12 0 20-7 12-9 12-24v-4l-3-56 58 2q7 2 18.5 3t24.5 4zm869 266q-15 0-30 .5t-26 2.5q1 7 2 13t1 13q0 22-7 42.5t-23 37.5q-17 23-42 34t-51 11q-42 0-81-30-5-3-10-9t-9-12q-4-7-9-15-21 16-41.5 33.5T991 701q23 17 36 43t13 57q0 25-9.5 47.5t-26.5 39-39.5 26T916 923q-25 0-45-7-4 20-8 38-3 16-6 34t-4 31h7q57 0 96 45 28 34 28 80 0 26-11.5 51t-32.5 43q-19 15-39 23 9 18 19 35 8 14 17.5 29.5T956 1352q16-15 37.5-24t46.5-9q9 0 19 2 48 7 76 43t28 82v9.5l-1 9.5q-3 12-6.5 22t-11.5 21q19 7 37 14 16 6 33 12t31 9q8-61 61-91 16-10 31-14t32-4q32 0 60.5 16t45.5 45q3 6 6 13.5t5 14.5l6 16q50-14 98-38-4-13-8-27-3-12-5.5-27t-2.5-30q0-17 4-26 13-37 45.5-59t70.5-22q10 0 20.5 1.5t21.5 6.5q6 2 13 6t13 8q7 4 14 10 14-23 27-46t24-50q-18-11-34-23-14-11-27-24t-18-27q-7-20-7-41 0-38 21.5-71t59.5-47q13-3 29-5 8-1 17-1-3-27-8.5-54t-13.5-53q-22 11-48 11-14 0-30-5t-30-13q-30-17-46.5-46t-16.5-61q0-33 18-62 9-19 28-35-14-14-29-26-13-11-27.5-22.5T1639 621q-14 17-29 31-13 12-29 23t-30 13q-7 1-12.5 1.5t-10.5.5q-45 0-79-28.5t-42-73.5q-1-6-1.5-11.5t-.5-11.5.5-11 1.5-11h-15q-7 0-16-.5t-19-.5zm0-75q11 0 20 .5t17 .5h16l88 4-16 85q-2 3-2 11 0 5 2 7 2 17 15.5 28.5T1528 615q5 0 7-1 8-3 21.5-15t24.5-24l43-53 56 37q13 9 28 21t28.5 23.5 23.5 20 12 10.5l67 59-71 55q-3 3-5.5 6t-5.5 7q-7 14-7 24 0 4 1 7t2 7q3 9 8 16.5t15 13.5q12 6 22 6 12 0 20-4l95-39 9 94q8 28 12 56.5t7 57.5l9 77-79 5q-5 0-13 .5t-12 2.5q-8 4-15 9.5t-12 14.5q-2 5-2 9.5v18l1 8.5q5 7 19 18t29 19l58 33-28 63q-24 56-59 106l-46 64-61-47q-4-3-11-7.5t-10-6.5q-5-2-15-2-14 0-27 8.5t-19 21.5q0 10 3.5 27.5t10.5 32.5l22 64-60 29q-56 28-116 44l-74 20-18-76-2.5-12.5-3.5-12.5q-7-9-17.5-15t-23.5-6-26 7q-18 11-23 35l-10 83-82-19q-14-3-30-8.5t-31.5-11-28-10.5l-17.5-7q-2 0-2-1-1 0-1-1l-82-33 45-75q2-4 3-8t2-9q1-4 1-10 0-17-11.5-30t-27.5-16h-8q-21 0-33 12l-63 57-49-67q-9-12-19.5-29t-19-32.5-15-27-7.5-13.5l-41-78 83-28 17-9q15-13 15-36 0-18-11-32-14-18-37-18h-3l-83 4 6-83q1-15 3.5-34.5T789 945t5.5-30 2.5-16l19-86 83 31q4 1 8 2.5t9 1.5q20 0 33.5-14t13.5-33q0-27-18-41l-68-49 59-63q20-22 44.5-41.5T1029 570l65-46 41 65q3 5 7 11.5t7 9.5q8 6 16 8t16 2q22 0 36-18 11-14 11-32l-1-9-18-82 83-10q12-1 28-1.5t37-.5z" fill="#000000"></path></svg>