<?xml version='1.0' encoding='utf-8'?>
<svg xmlns="http://www.w3.org/2000/svg" viewBox="0 0 2369 2041" width="464" height="400"><path d="M1962 914l10 6 9 1h78l42 6 36 21 28 30 19 38 29 144 9 144-9 48-26 41-39 27-47 13-59 3-59 4-13 46-23 44-32 38-37 30-44 22-47 12-50 1-48-7-46-19-40-26-35-35-25-42-19-44-388 5-390-5-18 44-25 42-33 35-43 26-46 19-49 7-48-1-47-12-43-22-38-30-34-38-22-44-13-46-60-4-58-3-33-7-33-17-26-23-18-31-9-35v-35l9-34 43-103 29-53 39-41 51-30 57-17 138-20 141-19 16-4 18-12 176-153 180-144 70-39 76-12 236-6 236 4 62 11 56 35 144 129zm-88 95l-135-135-139-127-19-13-21-3-231-5-231 5-38 8-34 19-186 147-175 156-34 23-38 11-149 20-146 20-47 21-30 39-26 67 4 29 24 15 86 5 87 5 11 4 3 12 3 73 8 34 19 31 26 21 36 12h35l33-12 28-21 19-31 6-34 4-63 4-11 12-4 493 9 490-9 12 4 5 11 4 63 7 34 19 31 28 21 32 12h37l34-12 27-21 19-31 6-34 4-73 5-12 10-4 93-5 93-6 23-11 8-22-8-99-20-97-11-18-19-7h-66l-36-4-32-16zm227-408l28-22 32-13 33-2 33 7 32 17 60 40-95 93-26-17-10-3-8 4-145 139-16 8-17-1-15-11-30-35-32-37z" fill="#000000"></path></svg>