<?xml version='1.0' encoding='utf-8'?>
<svg xmlns="http://www.w3.org/2000/svg" viewBox="0 0 2273 2041" width="445" height="400"><path d="M1654 942q49 38 75.5 93t26.5 118q0 60-24 112.5t-69 90.5l-83-96q24-20 37-47.5t13-59.5q0-34-14-62.5t-40-50.5zm146-180q92 72 141.5 174.5T1991 1154q0 112-44.5 211.5T1817 1537l-82-97q63-53 97-127.5t34-158.5q0-86-37-161.5T1723 861zm174-141q62 49 110 109t81 129 50.5 144.5T2233 1158q0 151-61.5 286.5T1995 1677l-83-95q94-80 144.5-190t50.5-234q0-129-55.5-243T1895 720zM806 1637q1-13 4.5-44t13-67.5 27-72T898 1395l4-2q23-14 60.5-19t77.5-5h21.5l21.5 1h-5q16 0 39 3t46 3 31-3 8-7q0-10-8.5-27.5t-8.5-43.5q0-15 4.5-29.5t11.5-27 13.5-21.5 11.5-14q-5-5-10.5-18.5t-5.5-27.5q0-7 3-15t7-15 7.5-12.5 4.5-6.5q-6-8-16-21t-10-30q0-11 4.5-27t22.5-33q17-19 42.5-24.5t48.5-6.5q-10-12-20.5-22.5L1284 924q-35-34-59-59t-39-45-21.5-36.5-6.5-33.5q0-15 .5-21t1.5-10 1.5-8.5 1.5-16 1.5-33.5.5-60q0-21-7.5-48t-23.5-57.5-41-63-59-64.5q-78-70-176-108t-206-38q-100 0-188.5 32T309 343 204.5 478 166 647q0 63 17.5 140T239 964l-116 51Q80 891 60 798.5T40 631q0-114 48.5-212t132-170T415 136t237-41q132 0 252 46t214 133q81 75 128 162t47 165q0 35-1.5 56.5t-3 36-3 24.5-1.5 21q5 8 15.5 20.5t23.5 26 25.5 26.5 22.5 22q54 54 82 87t28 62q0 3-1.5 14t-8.5 24.5-21.5 28-40.5 23.5q-12 5-27.5 6t-25.5 3q0 5 3.5 12t3.5 12q0 18-7.5 31.5T1341 1163q6 11 12 24.5t6 27.5q0 11-2.5 18.5t-8 14-13.5 13-19 15.5q-5 3-5 12 0 11 7.5 33t7.5 51q0 37-16 62t-41 40-54 21.5-54 6.5q-26 0-47.5-3t-35.5-3h-2q-17-1-36-2.5t-35-1.5q-28 0-35 7-8 9-14 25.5t-10.5 36-7 40-4.5 36.5H806z" fill="#000000"></path></svg>