<?xml version='1.0' encoding='utf-8'?>
<svg xmlns="http://www.w3.org/2000/svg" viewBox="0 0 2022 2041" width="396" height="400"><path d="M1936 1229q6 57 6 115 0 12-.5 37t-4 54.5-10 61-18.5 57-30 42-44 16.5h-16q-54-8-107-18t-105-21q-80-16-128.5-30.5T1404 1511t-34.5-38.5-8.5-52.5q0-29 5-57.5t11-56.5v-2q0-1 2-3-75-10-156.5-13.5T1040 1284q-123 0-247 6l-21 1q-48 2-96.5 6.5T580 1310l8 34q5 22 9 44.5t4 47.5q0 30-9 49t-25 31-38 19.5-48 15.5q-81 25-168.5 47T145 1632h-14q-37 0-59-27t-33.5-67-15-85-3.5-80q0-16 .5-28.5t.5-20.5v-12q0-34 3-63t14-45l3-4q69-57 129.5-97t129.5-73q103-49 214-78t225-46q12 35 32.5 66t46.5 58q-65 7-128.5 18T563 1074q-112 27-219 74t-197 124q-1 15-1 29.5v28.5q0 42 2 85t13 87q78-17 157-37.5t155-43.5q-2-26-8.5-51.5T453 1318l-8-22q-3-12-3-25 0-27 20-44t50.5-27 68-15 73.5-9l20-2q86-9 171-12t170-3h152q58 4 115.5 7.5T1397 1180l9 2q16 3 35.5 7t35.5 12.5 27 21.5 11 34q0 7-1 13.5t-3 13.5l-6 24q-7 26-12 51t-5 51q75 23 154 40.5t159 31.5q7-29 9-57.5t2-57.5q0-28-.5-56.5t-3.5-56.5l-13-10q-33-26-69-49t-77-43h236q7 6 14.5 12t14.5 14 13 20 9 31zm19-767q21 8 34 28.5t13 43.5-13 42.5-34 26.5l-489 202q-15 6-29 6-30 0-53-22t-23-54V610h-260q-31 0-60 12t-51 33.5-35.5 51T941 771t13 64 35 50 50.5 33 59.5 12h595q31 0 53 23t22 55-22 54-53 22h-593q-64 0-121-24.5T880 993t-68-99-25-123q0-67 25.5-124.5t69-99.5 99.5-66 118-24h262V334q0-33 23-55t53-22q14 0 29 6zm-231 72l-209-86v172z" fill="#000000"></path></svg>