<?xml version='1.0' encoding='utf-8'?>
<svg xmlns="http://www.w3.org/2000/svg" viewBox="0 0 2116 2041" width="415" height="400"><path d="M1037 508q-15 28-32 73t-32.5 106.5-26.5 140-11 172.5q0 91 12.5 171t29.5 143 33.5 109.5 26.5 70.5h37q48 10 99.5 8t102-10.5 99.5-21 91-27.5q38-10 71-21t57.5-21.5 40.5-19.5 21-14q10 0 21.5-7.5t29.5-17.5q19-9 46-28t55-48q29-23 54-53.5t42.5-65 26-71.5 4.5-76q4-42-4.5-79.5t-26-72.5-42.5-65.5-54-59.5q-28-19-55-38t-46-38q-18-10-29.5-17.5T1656 622q-5 0-21-7t-40.5-18-57.5-24-71-28q-42-14-91-25t-99.5-18.5-102-9.5-99.5 2q-18 0-23 2t-14 12zm860 859q-38 30-72.5 50t-53.5 39q-29 10-42 17.5t-22 7.5q0 5-15.5 14t-43 20.5-65 25.5-79.5 29q-47 14-101 27.5t-112 21.5-119 9-123-7q-19 0-33.5-1.5T973 1607q-14-4-23.5-13t-17-17.5-12.5-18-10-13.5v-25q-9-15-26.5-59t-35-111-32.5-156-20-194q5-104 20-194.5T847.5 646t31-111.5T898 482q9-9 10.5-17t6.5-18 17.5-27 40.5-26q28-10 42.5-18t33.5-8q62-10 123-6.5t119 13 112 22.5 101 22q42 18 79.5 35t65 28.5 43 18.5 17.5 9 7.5 5 12.5 6.5l17 8.5 25 15q19 10 53.5 35t72.5 53q33 30 64.5 67t55.5 83.5 36.5 101.5 7.5 115q5 62-7.5 116.5T2017 1217t-55.5 84.5-64.5 65.5zM796 1671L50 1914v-130l696-227q5 5 13 23t16.5 38 14.5 36.5zM734 457v13q-11 38-20 69t-18 70L50 811V685zm-89 442L50 1089V963l620-202q-9 28-12.5 64T645 899zm12 265L50 1367v-139l595-189q0 37 6 67t6 58zm51 267L50 1633v-126l620-203q9 29 19 63.5t19 63.5z" fill="#000000"></path></svg>