<?xml version='1.0' encoding='utf-8'?>
<svg xmlns="http://www.w3.org/2000/svg" viewBox="0 0 2215 2041" width="434" height="400"><path d="M1533 587H705q13 73 50 136t92 109.5T971 905t147 26 147.5-26 124.5-72.5 92.5-109.5 50.5-136zM50 471h2115v116h-506q-17 99-65 184.5T1474.5 921t-162 100.5T1118 1058q-103 0-193.5-36.5T764 921 649 771.5 590 587H50V471zm80 553l403-230q8 26 24 51.5t33 51.5l-402 230zm379 424l230-402q27 17 52 33.5t52 24.5l-230 402zm553 185v-471q8 8 23.5 9.5t32.5 1.5q18 0 29.5-1.5t28.5-9.5v471h-114zm551-116l-230-402q26-8 51.5-24t51.5-33l231 403zm425-390l-390-219q17-26 32.5-51.5T1705 805l391 230z" fill="#000000"></path></svg>