<?xml version='1.0' encoding='utf-8'?>
<svg xmlns="http://www.w3.org/2000/svg" viewBox="0 0 1403 2041" width="275" height="400"><path d="M1255 45q22 0 42 8t34.5 21.5 23 32 8.5 39.5v1563q0 21-8.5 39.5t-23 33-34.5 22.5-42 8H148q-23 0-42.5-8t-34-22.5-23-33T40 1709V446q0-11 21.5-45t56-79 76.5-93.5 83.5-89.5T355 71.5 413 45h842zM443 193q-13 13-33.5 34.5t-44.5 48-50 54.5-49 54.5-41.5 48T196 467v1197h1012V193H443zm623 650v754h-90v-578H861v578h-90v-578H656v578h-89v-578H454v578h-91V835h91v3h68l63 116h30l68-118 54 4 63 114h30l66-118h101l2 7h67z" fill="#000000"></path></svg>