<?xml version='1.0' encoding='utf-8'?>
<svg xmlns="http://www.w3.org/2000/svg" viewBox="0 0 2013 2041" width="395" height="400"><path d="M1776 283H224q-19 0-34.5 15T174 333v781q0 29 15.5 46t34.5 17h521L436 419l111-37 335 795h894q30 0 46-17t16-46V333q0-20-16-35t-46-15zM224 159h1552q38 0 71.5 13t59 36.5 41 55T1963 333v781q0 37-15.5 69t-41 56-59 37-71.5 13H932l86 210q38 9 63 35.5t25 65.5q0 22-8.5 42.5t-22.5 36-31.5 24-37.5 8.5q-22 0-42.5-8.5t-35.5-24-23.5-36-8.5-42.5q0-10 7.5-25.5T919 1549l-111-260H224q-37 0-68.5-13t-55.5-37-37-56-13-69V333q0-38 13-69.5t37-55 55.5-36.5 68.5-13z" fill="#ffffff"></path></svg>