<?xml version='1.0' encoding='utf-8'?>
<svg xmlns="http://www.w3.org/2000/svg" viewBox="0 0 1485 2041" width="291" height="400"><path d="M347 1498h776v-131q-56-25-116-44-51-17-113.5-31T771 1278q-77 0-153 13t-138 29q-72 18-138 41zM962 225q0 40-15.5 75.5t-41.5 62-60.5 42T771 420q-40 0-75.5-15.5t-62-42-42-62T576 225t15.5-75 42-61 62-40.5T771 34q39 0 73.5 14.5T905 89t41.5 61 15.5 75zM658 1823H469l-103-300h225zm167 2l64-302h224l-98 302H825zm190-1352l152-155-63-64-186 190h4q51 0 93 29zM752 615L474 903q-8 37-14.5 78.5T449 1064l430-449H752zm298 590q-42-13-83.5-24.5t-80-20.5-73-14-61.5-5q-65 3-122.5 10t-112 16.5-107 21.5-106.5 26l-25-10v-103L20 1367l83 73q0-1 30.5-16.5T215 1385t118-49 139.5-48.5 146-37.5 137.5-15q48 0 102 9.5t108.5 24.5 108.5 34.5 103 39.5q114 48 227 107l60-83q-62-28-131-57-59-25-133-53t-151-52zm15-14l102-6v-23q0-11 .5-26.5t.5-35.5q0-48-3-113.5T1153 850t-25.5-140-44.5-124-68.5-89-96.5-34H571q-1 0-22 5.5t-51.5 28T431 565t-66.5 126.5T314 894t-20 297l126-29q11-158 33-283 9-53 22-104t29.5-90.5 36.5-64 45-24.5q35 0 91 .5t110 1.5q62 1 131 2 2 0 13 6t27 26 33.5 58 32.5 101 25 156.5 10 223.5z" fill="#ffffff"></path></svg>