<?xml version='1.0' encoding='utf-8'?>
<svg xmlns="http://www.w3.org/2000/svg" viewBox="0 0 2023 2041" width="396" height="400"><path d="M446 1401H89q-28 0-48.5-21T20 1330q0-28 20.5-48.5T89 1261h351q20-10 60-46.5t89-85.5 100.5-104.5T785 922q100-110 169.5-181.5T1072 627t80-59 58-17h210V394q0-28 20.5-48.5T1492 325q8 0 15.5 1t15.5 6l441 227q19 9 29 26.5t10 37.5-13 36.5-30 24.5l-441 195q-8 3-15 4t-13 1q-30 0-50.5-21t-20.5-48V690h-203q-20 9-58 44.5t-85 83-96.5 101T886 1018q-96 104-165.5 177T600 1313.5t-87.5 66.5-66.5 21zm1114-781v88l210-93-210-107v112zm-69 1009q-30 0-50.5-21t-20.5-50v-156h-210q-23 0-46.5-10t-51.5-31-62-53.5-77-76.5q-19-19-19-45 0-30 21-51t50-21q28 0 49 21 34 35 58 58t41 38 27 22 16 9h204v-123q0-30 22-51t50-21q6 0 12.5 2t14.5 5l441 193q17 8 30 25.5t13 37.5q0 21-11 37.5t-28 26.5l-441 226q-8 4-16.5 6.5t-15.5 2.5zm69-298v113l210-107-210-91v85zM649 856q-14 0-27.5-5.5T599 835q-40-42-68.5-68.5t-47-42-29-22.5-14.5-10H89q-28 0-48.5-20T20 623q0-30 20.5-50T89 553h357q18 0 38.5 7t49 26.5T602 642t97 94q19 24 19 51 0 25-19 47t-50 22z" fill="#000000"></path></svg>