<?xml version='1.0' encoding='utf-8'?>
<svg xmlns="http://www.w3.org/2000/svg" viewBox="0 0 2030 2041" width="398" height="400"><path d="M375 901H218q-24 0-38.5 14.5T165 953q0 72 15.5 141t47.5 132h11q8 23 23.5 32.5t39.5 9.5l125-126q-23-40-37.5-92T375 943v-42zm807 251l127 116q23 0 38.5-9.5t24.5-32.5h9q32-63 48-132t16-141q0-23-14.5-37.5T1393 901h-157v42q0 55-14.5 108t-39.5 101zm-629 137l-105 83v11q-15 10-21 20.5t-6 22.5q0 14 6 30v11q79 55 177 85t201 30 196.5-30 180.5-85q-7-7-7-9t7-2q5-13 5-23 0-14-7.5-26.5T1161 1383v-11l-105-83q-55 32-117 57.5T805 1372t-134.5-25.5T553 1289zm252-997q-98 0-187.5 28t-165 78T317 517.5 218 669q0 16 13 31t29 23h1091q16-8 29-23t13-31q-39-82-99-151.5T1158 398t-165.5-78T805 292zm0 492q-47 0-87.5 18.5t-70 50-46 74T585 1016t16.5 89 46 73.5 70 50T805 1247q48 0 88-18.5t69.5-50 46-73.5 16.5-89-16.5-89.5-46-74-69.5-50-88-18.5zm0 903q-102 0-198-26.5T427.5 1585t-153-117T155 1317.5 77.5 1140 50 943q0-105 27.5-202T155 560t119.5-153 153-117.5T607 214t198-27q105 0 201 27t179 75.5T1335 407t115 153 74 181 26 202q0 102-26 197t-74 177.5-115 150.5-150 117-179 75.5-201 26.5zM1969 512q0-48-28-76.5t-76-28.5q-20 0-39 7.5t-33.5 21.5-23.5 33-9 43v546q0 20 9 38.5t23.5 33.5 33.5 24 39 9q24 0 43-9t32.5-24 21-33.5 7.5-38.5V512zm-220 860q0-23 9.5-44t25-36.5 36.5-25 45-9.5 44.5 9.5 36.5 25 25 36.5 9 44q0 24-9 45t-25 36.5-36.5 25-44.5 9.5-45-9.5-36.5-25-25-36.5-9.5-45z" fill="#ffd100"></path></svg>