<?xml version='1.0' encoding='utf-8'?>
<svg xmlns="http://www.w3.org/2000/svg" viewBox="0 0 1440 2041" width="282" height="400"><path d="M444 196q-11 11-31 33.5T368.5 280t-50 59.5-48.5 61-40.5 54.5-24.5 40v1167h1031V196H444zm852-164q17 0 35.5 8t33.5 21.5 25 33 10 41.5v1584q0 23-10 42t-25 33.5-33.5 22.5-35.5 8H145q-45 0-75-30.5T40 1720V465q0-11 22.5-47.5t58-84.5T199 232t84.5-97.5T360 61t54-29h882zM594 241v284h-60V241h60zm134 0v284h-60V241h60zm134 0v284h-60V241h60zm135 0v284h-60V241h60zm120 0v284h-46V241h46zM534 1497q-45 0-78.5-20.5T399 1422l45-45q23 23 45 41.5t45 18.5q33 0 46.5-18.5T594 1377q0-26-13.5-42.5T547 1306t-43-23.5-43-28-33.5-40T414 1153q0-22 10.5-43.5T453 1071t42.5-27 52.5-10q45 0 77 12.5t43 46.5l-44 45q-12-23-32.5-34t-43.5-11q-11 0-21.5 5t-19 13.5-13.5 19-5 22.5q0 23 14.5 36.5t36 24.5 47 21.5 47 26.5 36 39.5T684 1363q0 28-11 52.5t-30.5 42.5-47 28.5T534 1497zm463-359q-23-11-54.5-20.5T878 1108h-30v314h30q48 0 80-12t51-32 26.5-47.5 7.5-57.5q0-89-46-135zm60 284q-34 34-78 54.5T878 1497H772v-463h120q45 0 88 20t77 54q33 23 46.5 63.5t13.5 85.5q0 57-13.5 99.5T1057 1422z" fill="#000000"></path></svg>