<?xml version='1.0' encoding='utf-8'?>
<svg xmlns="http://www.w3.org/2000/svg" viewBox="0 0 1935 2041" width="379" height="400"><path d="M1646 377q19 0 36-7.5t29.5-20.5 20-31 7.5-38q0-19-7.5-36t-20-29.5-29.5-20-36-7.5q-20 0-37.5 7.5t-30.5 20-20.5 29.5-7.5 36q0 41 28 69t68 28zm0 530l-232-530q-19-46-19-97t19.5-96.5 53.5-79 80-53.5 98-20q51 0 96.5 20t79.5 53.5 53.5 79T1895 280t-19 97zm0 161q13 0 26-2.5t25-6.5q35 65 53.5 117.5t18.5 91.5v456q0 24-10 42t-24.5 30-31.5 18-32 6h-192q-2 1-5.5 1h-8.5q-15 0-34-4.5t-35-20.5q-26-23-26-68v-103H437v103q0 47-24 68-20 20-45 22.5t-39 1.5H138q-15 0-32.5-6t-32-18-24-30-9.5-42v-456q0-107 129-305 23-36 46.5-70t44.5-62 37.5-48.5T322 752q16-16 29.5-30t28.5-28 33-28.5 43-32.5q8-6 23.5-13t44.5-13.5 75-12.5 116-10q36-2 69.5-3.5t59.5-2 42.5-.5H922l42 .5 60 2 70 3.5q68 4 113.5 10t74.5 12.5 44.5 13T1351 632l78 179q-2-1-2-2t-2-2q-14-16-26-28.5t-25.5-24.5-30-24.5T1303 700q-1-1-10-5.5t-32.5-9.5-64.5-10-106-9q-36-2-69.5-2.5T961 662q-30-1-56-1h-16.5l-41.5.5-59 1.5-69 3q-65 4-106 9t-64 10-32.5 9.5T504 700q-23 17-39 29.5T435.5 754 410 778.5 384 807q-19 21-51.5 62.5T265 964q21 23 34.5 38.5t27 28 30 23.5 41.5 24q27 15 53 22t54.5 9.5 63 2 79.5-.5h512q45 0 79.5.5t63.5-2 54.5-9.5 52.5-22q20-10 34-18.5t25-18 21-20 22-23.5q23 32 58 51t76 19zm31 226q-17-24-27.5-40t-20.5-26-22.5-14-31.5-4q-21 0-36 4.5t-26 11.5-19 14.5-16 14.5-15 11-17 5.5-25 2-38 .5q-24 0-42.5-.5t-31.5-4-20-11.5-7-24q0-17-6.5-20.5t-20.5-3.5h-236q-2 26-14 46-11 17-33.5 31.5T905 1302q-45 0-68-14.5t-34-31.5q-12-20-13-46H553q-14 0-20 3.5t-6 20.5q0 30-26.5 35t-74.5 5q-23 0-38-.5t-25.5-2-17.5-5.5-15-11-16-14.5-18.5-14.5-25-11.5-34.5-4.5-32.5 4-23 14-21.5 26-27 40v421q0 9 7 12 3 2 7 2h178q4 0 11.5.5t10.5-1.5q0-1 1-2.5t1-6.5v-185h1113v185q0 5 .5 6.5t.5 2.5q3 2 10.5 1.5t12.5-.5h176q4 0 8-2 8-4 8-12v-421z" fill="#000000"></path></svg>