<?xml version='1.0' encoding='utf-8'?>
<svg xmlns="http://www.w3.org/2000/svg" viewBox="0 0 1924 2041" width="377" height="400"><path d="M1785 75v107.5l2 107.5h97v196q0 62-6.5 120t-28 106-61.5 83-107 49v493q0 49-20 91.5t-53.5 74-78.5 50-95 18.5q-49 0-93.5-19t-78-51.5-53.5-76-20-93.5V892q0-90-73-90-15 0-37 5v810q20 0 40 2t41 3v163H40v-163h83V144q0-59 26-84.5T232 34h736q59 0 85 25.5t26 84.5v552q43 0 82.5 13t70.5 37.5 49.5 61T1300 890q0 3-.5 7t-.5 18-1 41-1 75-.5 121-.5 179q0 28 11.5 51.5t31 41 44 27.5 51.5 10q68 0 99-28t37-96V846q-43-9-79.5-32.5T1427 756t-42-74.5-15-83.5V290h95q0-26-1.5-59.5T1462 162q0-25 1.5-49t6-42 12.5-29 20-11q5 0 13 3.5t15 9.5 12 14.5 5 18.5v107l-2 106h160q-2-54-2-107.5V75q0-21 15-32.5t26-11.5q12 0 26.5 12.5T1785 75zM966 1622V184q0-22-9.5-31t-31.5-9H271q-21 0-30.5 9t-9.5 31v1438h735zM283 643h629v83H283v-83z" fill="#ffd100"></path></svg>