<?xml version='1.0' encoding='utf-8'?>
<svg xmlns="http://www.w3.org/2000/svg" viewBox="0 0 2413 2041" width="473" height="400"><path d="M206 1083q0 73 27.5 137.5T309 1333t112 76 136 28q73 0 137.5-28t112.5-76 76-112.5 28-137.5q0-72-28-136t-76-112-112.5-75.5T557 732q-72 0-136 27.5T309 835t-75.5 112-27.5 136zm1296 0q0 73 28 137.5t76 112.5 112.5 76 137.5 28 137-28 112-76 75.5-112.5T2208 1083q0-72-27.5-136T2105 835t-112-75.5-137-27.5-137.5 27.5T1606 835t-76 112-28 136zm354-517q107 0 201.5 40.5t164.5 111T2332.5 882t40.5 201q0 77-21 147.5t-59 130.5-91.5 108-117.5 80q-72 38-168.5 66t-209 46.5T1470 1689t-250 9q-125 0-249-9t-237-26.5-212-44-174-61.5q-69-28-125.5-76.5t-97-110.5-63-135.5T40 1083q0-107 40.5-201t111-164.5 164.5-111T557 566q108 0 202.5 40.5t165 111T1036 882t41 201q0 71-18.5 136.5T1007 1342t-79 104.5-101 81.5q89 13 185 19.5t194 6.5q99 0 194.5-6.5T1587 1528q-56-34-102-81.5t-79-104.5-51-122.5-18-136.5q0-107 41-201t111.5-164.5 165-111T1856 566z" fill="#000000"></path></svg>