<?xml version='1.0' encoding='utf-8'?>
<svg xmlns="http://www.w3.org/2000/svg" viewBox="0 0 1990 2041" width="390" height="400"><path d="M943 1613h103v144H943v-144zm627-369l226-360q-177-108-380.5-167T995 658q-226 0-428.5 59T194 884l216 360q59-15 92-62l31-41h20l10 52q16 38 45 65.5t68 27.5q39 7 74.5-14t58.5-60l22-50h19l22 61q7 16 19 30.5t26 26.5 31.5 19 37.5 7q22 0 41-7t36-19 30-26.5 25-30.5l20-61h11l30 50q25 39 56 60t78 14q40 0 68-27.5t35-65.5l21-52h10l41 41q16 22 37.5 38t44.5 24zm-237 369q-78-31-165-52t-173-21q-92 0-176.5 21T656 1613q-24 16-46 30t-47 22l-20-41-32-41-410-637-51-92q23-16 41-26t40-26q186-116 405-180.5T995 557q241 0 454 64.5T1847 802q24 16 46 26t47 26l-62 92-400 637-31 51-22 31q-22-8-45-22t-47-30zM943 740h103v144H943V740zm0 226h103v143H943V966zm679-533v31h-113q7 0 8.5-12t1.5-19q0-32-11.5-57.5T1488 319l82-62q24 39 38 84t14 92zm-103-237l-82 71q-47-46-124-61V103q62 7 114 31t92 62zm-277-93v103q-39 7-65 22.5t-49 38.5l-93-71q39-38 91.5-62t115.5-31zM995 257l83 62q-16 31-24 56t-8 58v31H943q-4 0-6-3.5t-3-8.5-1-10v-9q0-33-6-58t-14-56zM749 103q53 7 104 31t90 62l-81 71q-24-23-53.5-38.5T749 206V103zm-279 93q39-38 90.5-62T666 103v103q-31 7-60.5 22.5T553 267zM368 433q0-47 14-92t37-84l83 62q-16 31-24 56t-8 58v31H368v-31z" fill="#000000"></path></svg>