<?xml version='1.0' encoding='utf-8'?>
<svg xmlns="http://www.w3.org/2000/svg" viewBox="0 0 2567 2041" width="503" height="400"><path d="M1214 755q-29 3-54.5 7.5T1111 774q-40 11-75.5 34T960 864q-41 34-78 69t-73 66q-31 26-43.5 35.5T750 1047q-7 0-11 .5t-7 4.5q-3 0-10 .5t-21 3.5q-47 7-79 12t-59 9.5-53.5 9-63.5 9.5q-70 14-124 30t-94 33q-4 0-7.5 2.5T210 1168q-4 3-9.5 6.5t-8.5 6.5q-6 9-11 23.5t-9 31-6 34-2 31.5l1 14q0 7 5.5 11t12.5 7q14 0 37 2.5t43 2.5h90v4q0 37 14 69.5t39 57 58 38.5 72 14q35 0 66.5-13.5t56-36.5 39-54 16.5-66v-18h1152l4 27q2 33 17 62.5t39 51.5 54.5 34.5 64.5 12.5q35 0 67-12.5t57-35 39.5-53 14.5-65.5v-26q17 0 60.5-.5t91.5-4.5q10-3 14-7.5t4-14.5q-4-67-15-132.5t-21-113.5q-6-13-13-13-31-4-65-12.5t-78-18.5q-33-10-64.5-23.5T2074 961l-12-6q-30-14-61-33.5t-67-40.5q-68-39-127-63.5T1701 782q-29-7-63.5-12.5T1565 759V627q48 5 91 12.5t80 15.5q62 15 130 48.5t133.5 70.5 125.5 69 107 44q57 15 97.5 19t68.5 11.5 46 26 30 63.5q8 30 17 70.5t17 87.5 13.5 98.5 5.5 105.5q0 27-18 43t-44 24.5-55.5 11-53.5 2.5q-14 0-24.5-.5t-15.5-.5h-4q-23 61-71.5 105t-115.5 63q-20 6-40 8.5t-40 2.5q-44 0-84-12.5t-74-35-61-54-45-68.5H799q-27 57-76 100.5T608 1621q-34 10-72 10-42 0-81.5-12.5t-74-34T318 1533t-46-66q-7 0-39-2.5t-99-6.5q-29 0-47-14t-28.5-34.5-14.5-44-4-41.5q0-84 15.5-134t29.5-67q16-22 35.5-40.5t48.5-35 72-31T348 988q18-4 41-8.5t49.5-9 54-9T546 952q62-11 128-21 7-3 10.5-3.5t7.5-.5q7-4 12-10.5t19-16.5q35-30 73.5-67t81.5-73 91.5-66 105.5-46q32-9 66.5-15t72.5-10v132zm51 291q0-26 10-48.5t27-39.5 39.5-26.5 48.5-9.5q25 0 48 9.5t39.5 26.5 26.5 39.5 10 48.5-10 48.5-26.5 39-39.5 26.5-48 10q-26 0-48.5-10t-39.5-26.5-27-39-10-48.5zm21-695q0-20 7.5-38t21-31.5T1346 260t39-8q20 0 38 8t31.5 21.5T1476 313t8 38v421q0 21-8 39t-21.5 31.5-31.5 21-38 7.5q-42 0-70.5-28.5T1286 772V351z" fill="#000000"></path></svg>