<?xml version='1.0' encoding='utf-8'?>
<svg xmlns="http://www.w3.org/2000/svg" viewBox="0 0 1604 2041" width="314" height="400"><path d="M185 1556v11q0 26 34 44.5t89 31.5 123.5 21 137.5 12.5 132 6 106 1.5q288 0 563-55 2 0 12-6.5t20.5-17 19-23.5 8.5-26V969q0-23-9-41t-24.5-31-35-19.5-40.5-6.5H283q-12 0-28.5 4t-32 14.5T196 919t-11 50v587zm147-820h953V309q0-7-8-25.5t-21.5-37-31-33T1187 199q-194-27-384-27-51 0-118.5 1t-132 6.5-118 18.5-77.5 37q-11 20-18 42.5t-7 31.5v427zm989-647q50 26 68 57.5t18 64.5v525h23q58 0 91 30.5t33 92.5v781q0 8-2 22.5t-8 29-18 25-33 10.5q-344 92-690 92t-679-92q-18 0-32-8t-23-21-14-28.5-5-29.5V859q0-26 11.5-48.5t29-39 39-26T172 736h25V211q0-27 7-45t19.5-31.5T254 111t41-22q129-23 256.5-34.5T808 43t256.5 11.5T1321 89zM734 1458q0 15 4.5 30t14 27.5 23.5 20 32 7.5q22 0 41-18.5t19-66.5v-367q0-48-19.5-67t-40.5-19q-18 0-32 8t-23 20-14 27.5-5 30.5v367z" fill="#000000"></path></svg>