<?xml version='1.0' encoding='utf-8'?>
<svg xmlns="http://www.w3.org/2000/svg" viewBox="0 0 1920 2041" width="376" height="400"><path d="M1278 1507q-71-32-154-47t-169-15h-53l63 156q39 7 61 35.5t22 67.5q0 40-27 67t-66 27q-20 0-38.5-7.5t-33.5-18-23.5-29.5-8.5-39q0-15 6.5-30.5T871 1642l-82-187q-40 7-79 22t-77 30q-24 16-47 26t-47 26L50 779q16-16 36.5-30.5T122 726q189-117 397-178t436-61q227 0 438 61t384 178q24 8 46.5 22.5T1870 779l-499 780q-24-16-47-26t-46-26zm446-697q-172-103-364.5-160.5T955 592t-403.5 57.5T195 810l385 604q40-16 84-30.5t82-22.5L487 748l103-32 261 624q31 0 55.5-5t48.5-5q102 0 195 22t179 62zM902 674h105v136H902V674zm0 208h105v136H902V882zm0 209h105v146H902v-146zm53-885l73 63q-16 23-23.5 51.5T997 373v12q0 5 1 7.5t3 5.5 6 6H902v-31q0-24-7.5-52.5T871 269zM362 373q0-47 8.5-87t32.5-80l84 63q-16 23-23.5 51.5T456 373v31h-94v-31zm1186 0v31h-104q0-3 1-6t3.5-5.5 4-7 1.5-12.5q0-24-8-52.5t-23-51.5l73-63q24 40 38 80t14 87zm-94-219l-83 52q-24-15-48-29.5t-56-22.5V60q55 0 101.5 27.5T1454 154zm-375 52l-82-62q19-16 40-31t44.5-26.5 49-19T1184 60v94q-32 8-60.5 22.5T1079 206zm-249 0q-24-15-48.5-29.5T726 154V60q23 0 48 7.5t48 19 44 26.5 36 31zm-374-52q39-39 85.5-66.5T643 60v94q-32 8-61.5 22.5T528 206z" fill="#ffffff"></path></svg>