<?xml version='1.0' encoding='utf-8'?>
<svg xmlns="http://www.w3.org/2000/svg" viewBox="0 0 834 2041" width="163" height="400"><path d="M776 676q0-128-24.5-233.5t-68.5-180T579.5 147 447 106q-92 0-165.5 60.5T156.5 336t-79 263.5T50 943q0 99 8 197t27.5 186.5 49 165 74 132.5 103 88 132.5 32q31 0 64.5-8t67.5-28.5 65.5-55.5 60.5-90q26-55 42-111t24-109.5 10.5-103 5.5-88.5H536q-2 75-11.5 130t-25 90-34 52-38.5 17q-33 0-55-30t-37-77.5-23.5-106-12-113-4-99.5-.5-67q0-112 8.5-210T329 565t44.5-115 65.5-42q21 0 36 16t25 41 17 57 11 61.5 5.5 54.5 2.5 38h240z" fill="#ffd100"></path></svg>