<?xml version='1.0' encoding='utf-8'?>
<svg xmlns="http://www.w3.org/2000/svg" viewBox="0 0 621 2041" width="122" height="400"><path d="M577 1820H45V713h532v1107zm-424-108h316V821H153v891zM312 574q-56 0-105.5-21.5T120 494t-58.5-86T40 303t21.5-105.5 58.5-86 86.5-58T312 32q55 0 104 21.5t86 58 58 86T581 303t-21 105-58 86-86 58.5T312 574zm0-434q-34 0-63.5 13t-52 35-35.5 51.5-13 63.5q0 33 13 62.5t35.5 51.5 52 35 63.5 13q33 0 62.5-13t51.5-35 35-51.5 13-62.5q0-34-13-63.5T426 188t-51.5-35-62.5-13z" fill="#000000"></path></svg>