<?xml version='1.0' encoding='utf-8'?>
<svg xmlns="http://www.w3.org/2000/svg" viewBox="0 0 1867 2041" width="366" height="400"><path d="M933 1821q-91 0-177.5-17.5T586 1750q-81-32-151.5-80.5T301 1559q-61-62-109-133t-81-151q-36-83-53.5-170T40 927t17.5-177.5T111 579q33-80 81-150.5T301 295q126-125 285-190 165-72 347-72t349 72q80 33 151 80.5T1565 295q62 63 110.5 133.5T1757 579q35 84 52.5 170.5T1827 927t-17.5 178-52.5 170q-33 80-81.5 151T1565 1559q-61 62-132 110.5t-151 80.5q-84 36-171 53.5T933 1821zm0-1683q-109 0-209.5 28t-188 79.5T376 369 252.5 528.5t-80 188.5T144 927t28.5 210 80 188.5 123.5 160 159.5 124 188 79.5 209.5 28 210-28 188.5-79.5 160-124 124-160T1695 1137t28-210-28-210-79.5-188.5-124-159.5-160-123.5T1143 166t-210-28zM666 1369V487q0-11 10.5-17.5T697 471l667 441q9 6 9 16.5t-9 16.5l-667 441q-10 7-20.5 1t-10.5-18zm82-767v652l494-326z" fill="#000000"></path></svg>