<?xml version='1.0' encoding='utf-8'?>
<svg xmlns="http://www.w3.org/2000/svg" viewBox="0 0 1403 2041" width="275" height="400"><path d="M1297 31q27 0 46.5 19.5T1363 97v1664q0 27-19.5 46t-46.5 19-47-19-20-46V97q0-27 20-46.5t47-19.5zM873 1490q32 0 57-14 29-16 46-44.5t17-60.5V487q0-32-17-60.5T930 382q-27-15-57-15-33 0-63 18L96 828q-26 17-41 43.5T40 928q0 32 15 58.5t41 42.5l714 443q30 18 63 18zm-75-181q-13 0-24-7L235 968q-21-12-21-40 0-11 5-21.5t16-16.5l539-335q12-6 24-6 11 0 23 5 23 15 23 41v669q0 11-6 22t-17 17-23 6z" fill="#000000"></path></svg>