<?xml version='1.0' encoding='utf-8'?>
<svg xmlns="http://www.w3.org/2000/svg" viewBox="0 0 2041 2041" width="400" height="400"><path d="M1724 739q13 13 31 30t36.5 34 36.5 32.5 31 25.5q10-10 19.5-23.5t18-28.5 16-30 13.5-28q-21-56-59.5-106.5t-85.5-94-100-79.5-103-63q-49-28-107.5-52.5t-121-40.5-126-21-121.5 7q-15 24-32 56.5t-25 58.5q16 6 38.5 13t47 13.5T1179 455t42 10q10-28 18-57l3-13 2.5-7.5 2.5-6.5q2-6 6.5-9t8.5-5 10-3q17-3 60 11.5t97 40 113.5 57.5 110 64 86 60 42.5 44q1 6 2 11 2 11-3 20-2 4-3.5 5.5t-5.5 6.5l-9 10-20 22-18 23zm-24-84q-17-13-47-32.5t-67-41-78-44-79.5-42-71-34.5-52.5-22q-4 13-10 31.5t-15 35-22.5 26.5-32.5 6q-21-3-53.5-11t-66-17.5T1043 491t-42-14l-8-3q-15-10-18.5-28t0-39 13-44 20-44 21-37.5T1045 255q6-9 14-14 4-3 9-5 2 0 21-4.5t53-7.5 82-1 108 14 131 38 150 70q120 64 195 133t117 127 57.5 96.5T1999 743q1 4 1 8t-.5 8-2.5 9q-5 11-9.5 19.5t-9 17.5-10 19.5T1954 851q-8 13-19.5 31t-26 32-32 21.5-36.5-.5l-8-4q-11-8-34-27.5t-49-43-50.5-46.5-38.5-38q-14-14-12.5-31t10.5-33.5 21-31.5 21-25zM159 1399q0 15 4.5 35t17.5 38 37.5 30.5T284 1515q22 0 44-4t40-14 29-28 11-47q0-21-8-35.5t-22-24-33.5-16.5-43.5-14l-64-18q-36-10-70-22.5t-60-35-42-59-16-96.5q0-30 8.5-69t33-73 69.5-57.5T277 878q68 0 112.5 24t71 60 37 76.5T508 1112H389q-1-12-5-30.5t-16-36-36-30-64-12.5q-18 0-36.5 4.5T198 1022t-24.5 27-9.5 41q0 21 6.5 34.5t16 22T207 1159t20 7l145 43q30 9 58 22.5t49.5 35.5 34.5 55 13 82q0 54-13.5 92.5t-35 65-48.5 42-53 23.5-48.5 10.5-35.5 2.5q-81 0-130.5-25t-77-62-36.5-79-9-75h119zm721-521q20 0 48.5 4.5t60.5 19 63.5 40 56.5 68 40.5 103.5 15.5 146-15.5 146.5T1109 1509t-56.5 68-63.5 40-60.5 18.5-48.5 4.5-48.5-4.5-60-18.5-63-40-57-68-41-103.5T595 1259t15.5-146 41-103.5 57-68 63-40 60-19T880 878zm0 635q25 0 53.5-11t52.5-39.5 39.5-78T1041 1259t-15.5-125-39.5-77.5-52.5-39.5-53.5-11-53.5 11-52.5 39.5-39.5 77.5-15.5 125 15.5 125.5 39.5 78 52.5 39.5 53.5 11zm473-114q0 15 4.5 35t18 38 38 30.5 65.5 12.5q22 0 44-4t40-14 29-28 11-47q0-21-8-35.5t-22.5-24-34-16.5-43.5-14l-63-18q-36-10-70-22.5t-60.5-35-42.5-59-16-96.5q0-30 8.5-69t33.5-73 69.5-57.5T1471 878q68 0 113 24t71 60 37 76.5 11 73.5h-119q-2-12-6-30.5t-16-36-36-30-64-12.5q-18 0-36 4.5t-33 14.5-24.5 27-9.5 41q0 21 6.5 34.5t16 22 20.5 12.5 20 7l144 43q30 9 58.5 22.5t50 35.5 34.5 55 13 82q0 54-13.5 92.5t-35.5 65-48.5 42-52.5 23.5-48.5 10.5-35.5 2.5q-81 0-131-25t-77.5-62-36.5-79-9-75h119z" fill="#000000"></path></svg>