<?xml version='1.0' encoding='utf-8'?>
<svg xmlns="http://www.w3.org/2000/svg" viewBox="0 0 1932 2041" width="379" height="400"><path d="M897 89q0-12 7.5-20.5t17.5-14 20-8.5 16-3q23 0 44.5 11.5T1035 89l13.5 31.5L1074 180l33 78 36.5 87 36 86.5 32 76.5 24.5 57 13 29q8 0 50.5 4t101.5 10.5 127.5 14T1657 637t104 12 55 6q23 0 42 11.5t19 34.5l15 30q0 21-26 51.5t-61.5 63-73 62.5-61.5 51q-37 32-74.5 64t-70 59.5-57 48-35.5 29.5q4 20 16 69t27 111.5 32 130 31 125 23 96.5 9 45q0 26-11 40t-36 25q-8 8-21 15t-29 7q-13 0-26-6-12-7-50-30.5t-89.5-55.5-109-68-108-67.5-87.5-55-46-29.5q-7 5-42.5 28t-85 55-106.5 68.5-107 69-87 56-46 29.5q-14 6-27 6-15 0-28.5-7t-21.5-15q-24-11-35-25t-11-40q0-5 9-43.5t23-94.5 31-122.5 32-128.5 27-113 16-75q-7-5-39-32.5t-76.5-66-96-82.5-96.5-83-78.5-67.5T71 793q-11-23-21-37t-10-25v-30q12-23 33-34.5t44-11.5q10-1 52.5-6t101-11.5 125-14.5 124-14.5T618 598t49-4q5-9 22.5-47t41.5-90 51-111.5T833 233t41.5-92.5T897 89zM744 746q-6 0-28.5 2t-48 4-48 4-28.5 2q-66 6-144 15t-147 20q51 42 110 90.5T520 978l120 108q11 11 19 21.5t8 21.5v15l-36 153q-16 67-35 144.5T561 1588q13-9 43-28.5t67.5-43T750 1467t77.5-48.5T891 1380t37-21q11-11 32-11 16 0 37 8.5t44 21.5 46 28 44 27q27 16 57 35t61 39 62.5 41 60.5 40q-5-18-14-54.5t-20-81.5-23-94-22-92-18-76-11-46v-15q0-11 9.5-22.5t21.5-23.5l117-105q51-45 109.5-93.5T1632 793q-69-11-147-20t-144-15q-29-3-66-4t-70-5.5-55.5-15.5-22.5-32q-4-9-16-37t-29-66.5-36-82-36.5-83T978 362t-20-44q-5 13-17 44t-27.5 70.5-33 83.5-33 82.5-27 66.5-15.5 36q-6 6-14 13.5T774.5 729 758 741t-14 5z" fill="#000000"></path></svg>