<?xml version='1.0' encoding='utf-8'?>
<svg xmlns="http://www.w3.org/2000/svg" viewBox="0 0 1454 2041" width="285" height="400"><path d="M1136 101q0-8-5-14l-5-6q0-22 16.5-36t33.5-14h19q37 0 68 13t53.5 39.5 35 65.5 12.5 91q0 23-13.5 36.5T1315 290h-21q-29 0-52 2.5t-37 16.5h-29q-17 0-33.5-13t-16.5-34l1-6.5 9-15.5q6-14 7-30.5t1-39.5q0-21-1-38.5t-7-40.5v10zm-30 407q0 54-13 113t-28 119q-30 97-60.5 183T936 1078v89q0 30 21.5 54.5t58.5 24.5h138q23 0 43-13.5t27-34.5q38-69 73-169t57-220q23-98 36.5-186t13.5-162q0-19-7-35.5t-19-29-28.5-19.5-34.5-7h-59q-30 0-56 12t-45.5 31.5-32 44T1106 508zm-60 608v-38q7-19 21-50.5t31-71.5 34.5-88 31.5-100q16-67 29.5-127.5T1215 520v-20q0-8 6-14t15-6h38q15 0 23 6t8 14q0 60-13 133t-28 156q-30 113-59.5 201t-60.5 148h-88 9q-7 0-13-6.5t-6-15.5zm70 221q-69 0-128.5-2.5T876 1315h10q9-7 10.5-20t1.5-28v-21l-41-149h41v-19l-82-190h-10l-89 190q0 7 1 13t9 6h41l29 149 9 10q0 8-4.5 14.5l-4.5 6.5-10 20q-31-8-65-20.5t-64-20.5v-10l-41-149h41v-19l-89-190h-10l-82 190v19h41l41 139q-31-8-68.5-13.5T408 1217l-29-120h29q8 0 9-6t1-13l-89-190h-10l-80 190q0 7-2.5 13t12.5 6h29l31 120q-30 0-63.5 1t-85.5 8q-22 0-42 9t-35 24-24 35.5-9 42.5l29 188q9 38 42 64t78 26h91l19 60 10 10q0 8-5 13.5l-5 5.5-50 79 89 51 50-89q8-16 9-26t1-24v-32l-20-48h140l19 60q9 0 10.5 5l1.5 5q0 8-6 13.5l-6 5.5-39 79 79 51 51-89q8-16 9-26t1-24v-32l-20-38h140l29 50v10q0 8-1 13.5t-9 5.5l-41 79 79 51 51-89q8-16 15-26t7-24q0-8-6-15.5t-6-16.5l-20-38h89q38 0 67-20.5t43-49.5l79-179v-10q0-8-10-18.5t-18-10.5zm-917 178q-8 0-13.5-1t-5.5-9l-31-180h21q38-8 68.5-9t61.5-1l-51 92q-8 8-14 20.5t-6 27.5q0 8 5 15.5t5 15.5l10 29h-50zm149 0l-19-49v-11q0-8 1-14t8-6l60-110h130l-41 82q-8 8-14 20.5t-6 27.5q0 8 5 15.5t5 15.5l22 29H348zm249 0l-28-49v-11q0-8 1-14t8-6l39-79q23 8 45 10t45 10q8 0 15 4.5t15 4.5l-10 22q-8 8-14 20.5t-6 27.5q0 8 5 15.5t5 15.5l10 29H597zm399-49l-19 49H825l-19-49v-11q0-8 1-14t9-6l9-18q31 7 67.5 9t74.5 9q8 0 18.5 7.5T996 1466z" fill="#000000"></path></svg>