<?xml version='1.0' encoding='utf-8'?>
<svg xmlns="http://www.w3.org/2000/svg" viewBox="0 0 1965 2041" width="385" height="400"><path d="M1291 805v1l-87-50q-21 38-31.5 80.5t-16 87.5-6.5 91-2 89H998q0-9-.5-18t-.5-17q0-73 8-142.5t22-137.5q8-29 18.5-56t26.5-54l-87-50 243-62q0-1 2-1zm176 138q46 27 89 59t91 55q21 8 44.5 12.5t47.5 7.5 47.5 6.5 45.5 9.5q15 8 22.5 20t12 26 7.5 29 8 28q14 58 22 116t10 121q-3 24-21.5 37t-41.5 13q-42 5-82 7.5t-82 3.5q-8 31-25 56.5t-41 43.5-53 28-60 10q-60 0-104.5-33.5T1338 1500H623q-8 27-25 51t-40 42-50.5 28-56.5 10-57.5-9-52.5-26.5-42-43.5-26-60q-91-3-181-15-14-6-22-18t-12.5-26.5-6-28.5-1.5-24q0-36 11-69t28-64q21-34 48.5-56.5T196 1152t64.5-26 68.5-18l124-27q30-8 58.5-19t54.5-30q79-60 162.5-100T909 872q-4 26-6 52.5t-5 52.5q-59 14-113 38.5T679 1075l-99 66q-32 17-67 26.5t-71.5 17-72.5 15-70 19.5q-25 9-51.5 21.5T199 1271t-35.5 42-13.5 57v7q0 3 1 6l3 2 211 13q5-2 4.5 5.5t-.5 12.5v31q0 39 24 61.5t55 22.5q38 0 60-25.5t22-63.5q0-10-.5-19.5t-.5-19.5q1-5 5.5-4.5t7.5-.5h878q5 14 6.5 28t4 28 6.5 27 14 23q24 27 58 27 25 0 41.5-10.5t26-27.5 13.5-40 4-49l212-17q6 0 7-4-5-52-13-101t-24-97l-5-3q-57-8-111-19.5t-102-42.5q-32-18-62.5-39t-61-41-62.5-36-68-24l-49-10q2-25 5-49.5t8-50.5q54 10 104 27t95 46z" fill="#000000"></path></svg>