<?xml version='1.0' encoding='utf-8'?>
<svg xmlns="http://www.w3.org/2000/svg" viewBox="0 0 1825 2041" width="358" height="400"><path d="M1482 862v813q0 12-8.5 20.5t-20.5 8.5H190q-11 0-20.5-8.5T160 1675V397l14-10 16-5h993q23-34 43.5-66.5T1257 260H190q-33 0-61 10.5T81.5 300 51 344t-11 53v1278q0 28 11 54.5t30.5 47.5 47.5 34 61 13h1263q34 0 61.5-13t47.5-34 31-47.5 11-54.5V712zm166-811q15-21 32-21 18 0 34 22.5t29 57 23.5 75T1785 260l-422 527-330 481-75 137q-12 10-23 28.5t-24 29.5q-17 9-47.5 12t-57.5 3h-29q-45 0-67.5-1.5t-35.5-10-22-26.5-27-52q-14-27-41-61.5t-58.5-72.5-64.5-78-60-79.5-44-76-17-67.5q0-23 13.5-36.5T402 893q33-35 76-56t89-21q17 0 28.5 5.5t19.5 16 14 24.5 12 31l90 89q0 6 19.5 20.5t43.5 30 46 27.5 27 12q11 0 22-9.5t19.5-22.5 14-25.5T928 997l541-737z" fill="#000000"></path></svg>