<?xml version='1.0' encoding='utf-8'?>
<svg xmlns="http://www.w3.org/2000/svg" viewBox="0 0 681 2041" width="133" height="400"><path d="M50 1727h581v-334q-12 2-41.5 3.5T534 1399q-15 1-36 2t-51 3h-58q-12 0-23.5.5T342 1406h2q-5 1-11 1h-10l-10.5.5-11.5 1.5q75-119 127.5-216t89-175.5 57.5-140T607.5 766t14.5-91 3-79q0-90-18.5-167t-54-133.5-87.5-89T345 174q-79 0-139.5 41.5T110 343q-20 45-30 91.5T66 523t-5.5 77.5T59 663h226q0-10 1-30t4-43.5 6.5-48.5 10.5-44 16.5-32.5T346 451q25 0 39.5 43T400 605q0 24-2 46t-6.5 44-12.5 46.5-22 54.5q-31 75-57 125.5t-49 89.5L50 1373v354z" fill="#000000"></path></svg>