<?xml version='1.0' encoding='utf-8'?>
<svg xmlns="http://www.w3.org/2000/svg" viewBox="0 0 2027 2041" width="397" height="400"><path d="M803 1415v209q0 1-7 2t-17.5 1.5-22 1-20.5.5q-96 0-185-25t-166-70-141-108.5-109-141-70-166T40 934t24.5-184.5 70-165.5T243 443.5 383 335t165-70 184-25h72v212q-17-5-34-5.5t-34-.5q-67 0-129.5 17.5T490 513t-98.5 76.5-76 98.5-49 116.5T249 934q0 100 38.5 188.5T392 1277t154.5 104.5T736 1420q17 0 34-1t34-4h-1zm640-378q18 82 61.5 152t106.5 121.5 141.5 80.5 166.5 29q17 0 34-1t33-4v209q0 1-7 2t-17.5 1.5-22 1-20.5.5q-96 0-185-25t-166-70-141-108.5-109-141-70-166-25-184.5 25-185 70-166 109-141 141-109 166-70 185-25q18 0 33.5.5t34.5 1.5v212q-17-5-34-5.5t-34-.5q-87 0-165.5 29t-141 80T1506 675.5 1444 827h409v210h-410z" fill="#000000"></path></svg>