<?xml version='1.0' encoding='utf-8'?>
<svg xmlns="http://www.w3.org/2000/svg" viewBox="0 0 1889 2041" width="370" height="400"><path d="M570 1829L50 1309V561L570 36h748l521 525v748l-521 520H570zm35-1709l-31.5 31.5L517 208l-73 73-81 81-80.5 80-71.5 71-54 54-28 28v679q6 8 28 32t54 57 71.5 72.5L363 1516l80.5 80.5L516 1668l57 54 32 28h679q9-6 32.5-28t56.5-54 72.5-71.5l80.5-80.5 80-80.5 71-72.5 54-57 28-32V595l-475-475H605zm645 79q6 9 26 30.5t49 51 64.5 65l72 72 72 71.5 65.5 64 51.5 49 29.5 27v612l-45 45-79 79-95 95-94 94-76.5 75.5-40.5 40.5H638l-429-429V629q11-8 45-40t79-76 95.5-94.5 94-95.5 75.5-79 40-45h612zm-668 894q0-54-13.5-90.5t-33.5-63-43.5-46-43.5-39-33.5-43T401 754q0-35 14-51.5t31-16.5q26 0 36 29.5t10 71.5h78q1-12 1.5-23t.5-22q0-88-32-129t-94-41q-38 0-64 16t-42 43.5-23 65-7 79.5q0 51 13.5 86.5t33.5 62 44 47 44 41 33.5 44.5 13.5 58q0 26-10 47t-36 21q-34 0-45-31t-11-82h-80q0 42 3.5 83t16.5 73 37.5 51.5T434 1297q25 0 51.5-6.5t48-27.5 35-61.5T582 1093zm34-509v124h102v578h79V708h102V584H616zm476 713q51 0 78-31t40-82 15-116 2-133q0-67-2-132.5T1210 686t-40-82.5-78-31.5q-56 0-86 31.5T962.5 686t-16 116.5T944 935q0 68 2.5 133t16 116 43.5 82 86 31zm0-114q-21 0-33-13.5t-17-43-6-76.5-1-115 1-115.5 6-77 17-43 33-13.5q17 0 28 13.5t17 43 8.5 77T1148 935t-2.5 115-8.5 76.5-17 43-28 13.5zm226 103h79v-283h68q38 0 60.5-21t34.5-51.5 15.5-66 3.5-65.5q0-46-6.5-85.5T1552 645t-35.5-45-51.5-16h-147v702zm79-590h46q17 0 26 8t13.5 22 5 33 .5 40q0 17-4 33.5t-10.5 29T1459 882t-16 8h-46V696z" fill="#e4002c"></path></svg>