<?xml version='1.0' encoding='utf-8'?>
<svg xmlns="http://www.w3.org/2000/svg" viewBox="0 0 2039 2041" width="400" height="400"><path d="M1024 1159q75 0 151.5 12.5T1325 1209v113q-73-26-146.5-38.5T1024 1271h-67l-111 13q-63 12-131 37v-118q20-7 42-11.5t45-9.5l112-23h110zm437 235q-6-6-13.5-11t-15.5-10v-129l409-655q-177-111-382-173.5T1024 353q-227 0-434 63T198 589l409 628v160l-14 8-15 9L40 555q25-16 48-32t40-24q196-127 423.5-192t472.5-65q247 0 468.5 65T1909 499q26 8 45 24t45 32zm-29 192q0 23-15 38.5t-38 15.5-38.5-15.5-15.5-38.5V796q-17 36-32.5 70t-28.5 61q-15 32-28 60-7 14-19.5 22.5t-27.5 8.5q-19 0-31.5-10t-29.5-44-43.5-99-74.5-174q-45 109-70.5 174.5t-41.5 100-28.5 45.5-31.5 11q-17 0-30-9t-20-24q-11-26-23-54-11-24-24-54.5T715 818v757q0 23-15.5 38.5T661 1629t-38.5-15.5T607 1575V558q0-23 15.5-38.5T661 504q18 0 30.5 10t29 43.5T763 656t73 174q46-110 71.5-175t41.5-99.5 28-45 31-10.5q18 0 31 12.5t31 48.5 45.5 101.5T1189 834q48-102 77-167t48-102 33-50.5 32-13.5q23 0 38 15.5t15 37.5v1032z" fill="#000000"></path></svg>