<?xml version='1.0' encoding='utf-8'?>
<svg xmlns="http://www.w3.org/2000/svg" viewBox="0 0 2010 2041" width="394" height="400"><path d="M553 982q-44 50-79.5 94.5T420 1149q7 3 15.5 8.5T455 1169q9 6 24.5 17t30.5 25.5 26 31.5 11 35q0 12-9 30l-8 16.5-21.5 43.5-31 61-37.5 69-40 68-39 58-8 11q-29 19-52 19-9 0-17.5-1.5T265 1649q-27-13-48-24.5t-38.5-24-32-26T119 1544q-32-28-51-46.5T38.5 1467 25 1447.5t-3-14.5v-5q-2-2-2-9v-1q0-8 2.5-48.5t17.5-105 46.5-150 90-185.5 148-210T545 495q37-32 73.5-59.5T690 384q75-50 150.5-83.5T980 247t108.5-28.5 56.5-8.5q8 0 23 5.5t26 12.5q23 19 57 49t66 65 54.5 72.5T1394 485q0 24-15 42l-9 11q-44 33-96.5 69.5t-100.5 68-86 52-53 20.5q-20 0-40-12t-37-29.5-31-37-22-34.5l-2-2-1-1q-14 9-31.5 24T832 690t-42.5 41-44.5 45q-46 46-96.5 100.5T553 982zm-184 51q28-40 74-95.5T543 823t111.5-116.5T764 603t93.5-74 63.5-28q10 0 21 5.5t28 28.5l13 17q15 20 26.5 39t28.5 35q22-12 52.5-31t63-40.5 64-44T1274 468q-31-38-64.5-71t-66.5-64l-9-8-14 2q-47 7-91.5 20.5T939 381t-88.5 42.5T765 473t-80 56.5-75 61.5q-38 32-70.5 63.5T477 719q-30 32-61 68.5T356 865l-27 39q-21 31-42 63.5t-39 65.5q-23 45-43.5 90t-35.5 92q-16 48-25 94.5t-11 94.5q9 8 25 25t36 36.5 44 38 49 30.5q10-17 28-46.5t38-64.5 39.5-71.5T426 1285q-19-16-39.5-25.5T347 1237l-17-11q-20-12-28-22t-8-30q0-19 19.5-55.5T369 1033zm1579-163q19 7 30.5 24t11.5 37q0 21-11.5 38.5T1948 995l-432 177q-15 5-27 5-29 0-48.5-20t-19.5-48v-108H955q-29 0-48.5-20.5T887 933q0-25 14-43.5t37-23.5h2q5-1 8.5-1.5t6.5-.5q2 0 3.5.5t3.5.5h459V755q0-28 19-48t48-20q13 0 28 5zm-205 61l-185-74v150zm-149 416q28 0 47.5 21t19.5 50q0 23-14.5 41t-38.5 23h-2q-3 2-13 2h-467v109q0 27-19.5 47.5T1058 1661q-13 0-26-5l-433-177q-19-8-30-25t-11-38 11-38 30-25l433-178q7-2 13-3.5t14-1.5q29 0 48 21t19 48v108h468zm-604-7l-185 76 185 75v-151z" fill="#000000"></path></svg>