<?xml version='1.0' encoding='utf-8'?>
<svg xmlns="http://www.w3.org/2000/svg" viewBox="0 0 1904 2041" width="373" height="400"><path d="M1289 1341q7 8 8.5 19t3.5 22q-3 32-19.5 59.5t-40.5 51-51 44.5-51 39q-12 9-24 19t-25 19-25.5 14.5-25.5 5.5l-14-1-70-18q-146-44-271-127-42-29-81.5-59t-76.5-62q-77-68-143.5-144.5T257 1061q-57-84-104.5-173T73 702q-23-68-38-142T20 417v-77q5-11 10.5-21T45 300q27-26 59.5-53.5t67-50.5 70-37.5T309 144q16 0 31 4.5t26 17.5l7 11q35 63 68 131t62 137l16 44q3 8 6 18t3 18v3q0 24-13.5 42T481 602t-42.5 25.5T397 649h-3q-1 0-2 1 18 32 37 61t40 58q4 6 21 28t40.5 53 51 66 51.5 66 42 53.5 23 28.5q31 35 61.5 70t65.5 67q12-17 27.5-36t33-34.5 36.5-26 37-10.5q13 0 27 6.5t28.5 16 28.5 20.5 26 20q53 40 108.5 82t103.5 92zm-141 84q20-20 32-36-54-48-108.5-91T959 1214q-17 17-31.5 35t-29.5 35l-13 16q-8 11-18 19t-30 8h-8q-15-2-28.5-11t-24.5-18q-68-54-127-121t-115-137q-33-42-65-84.5T406 868q-3-4-6-7.5t-5-7.5q-19-26-39-54.5t-37.5-58-31-58.5-19.5-56v-5q0-25 12.5-36t28.5-20l20-9q21-9 41.5-19t40.5-23q-26-66-56.5-129.5T291 258q-45 22-85.5 53T130 374v20q0 75 15.5 144.5T185 677q35 98 85.5 188.5T384 1041q60 82 131.5 155.5T667 1334q81 65 170.5 115t192.5 71q31-22 60-45.5t58-49.5zm736-864q0 23-14 41t-37 24h-2q-5 1-15 1h-452v108q0 27-20 46t-46 19q-12 0-25-5L852 622q-19-7-30-23.5T811 562t11-37 30-25l421-172q10-5 24-5 26 0 46.5 19t20.5 48v106h453q26 0 44.5 16.5T1884 555v6zm-653-73l-180 74 180 74V488z" fill="#000000"></path></svg>