<?xml version='1.0' encoding='utf-8'?>
<svg xmlns="http://www.w3.org/2000/svg" viewBox="0 0 676 2041" width="132" height="400"><path d="M50 954q0 101 6 197t19.5 181.5T112 1491t54.5 125.5 74 81.5 95.5 29q61 0 107.5-35t78.5-96 52.5-142 32-170.5 15.5-183 4-181.5q0-102-5-181.5T607 593t-22.5-116.5T555 380q-11-31-29-67t-45.5-66.5-63-50.5-80.5-20q-50 0-89 25.5T180 270t-50.5 100-37 120.5-23 130T57 748t-6 114.5-1 91.5zm355 18q0 46-1 98t-4 101.5-7 95-11.5 81-17.5 55-24 19.5q-20 0-32.5-37t-20-99.5-10-142.5-2.5-166v-32q0-29 1-74t3-95 6.5-101.5T296 580v1q3-13 6.5-31t8.5-34.5 12.5-26.5 15.5-10q10 0 18.5 16.5t14 40.5 9 48.5T387 622q5 36 8 82t5.5 95 3.5 94 1 79z" fill="#000000"></path></svg>