<?xml version='1.0' encoding='utf-8'?>
<svg xmlns="http://www.w3.org/2000/svg" viewBox="0 0 2032 2041" width="398" height="400"><path d="M1131 1215h172v66h-172v104h172v66h-172v123q27 18 43 47t16 64q0 28-10.5 53t-29 43.5-43.5 29-53 10.5-52.5-10.5-43-29-29-43.5-10.5-53q0-33 15.5-61.5T976 1576V878q0-32 22-55t54-23 55.5 23 23.5 55v166h172v67h-172v104zm-348-41q-20-72-89-104-34-15-75.5-21t-92.5-1q-18 2-40-.5t-43-7.5-38.5-13-26.5-18q-6-9-5-17 2-8 8.5-18t26.5-19q14-6 44-10t66-4.5 73.5 1T658 947l20 2 13-102-20-2q-32-4-75-6t-86.5-.5-82 7T365 862q-76 36-91 110-12 59 29 105 24 26 56.5 40t59.5 22q29 7 59.5 9.5t56.5.5q61-5 99 7 42 12 51 45 7 26-6.5 45t-51.5 47q-25-24-56-39.5t-64-22.5h-1q-49-8-95 2.5t-84 36.5l-196 134 56 81-125 86q-17 12-20.5 32t7.5 39q11 17 32 20.5t38-7.5l126-86 45 67-124 86q-18 11-22 31.5t8 38.5q17 22 42 22 15 0 29-9l125-86 55 80 196-134q40-27 65.5-67t33.5-88q7-33 3.5-67.5T685 1376q18-14 36.5-28.5T754 1315q48-63 29-141zm-354 484q-2-3-5-6.5t-5-8.5q-4-5-8-11t-9-12q-20-28-42.5-61.5T315 1493l-16-24q-8-12-14.5-21.5T273 1430q15-10 34-23.5t36-25 29-20l12-8.5q23-16 49.5-21t52.5 0q37 6 67 30 13 12 24 27 16 23 21.5 50t-.5 53q-9 58-57 89l-11.5 8-28.5 19.5-36.5 25L429 1658zM1447 615q8 9 13 21.5t5 27.5q0 32-21.5 52t-51.5 20q-17 0-28.5-3.5T1342 718h-181l-114-54 114-56h176V303l55-114 55 114v312zm-64 640v-114q102 0 192.5-39t158-106.5 106.5-158 39-192.5q0-103-39-194.5t-106.5-159-158-107T1383 145q-103 0-194 39.5t-159.5 107-108 159T882 645q0 72 21 139l-109 33q-13-42-19-85t-6-87q0-124 46-235.5T949 210q88-87 199-133t235-46q123 0 233.5 46T1815 210q86 88 131.5 199.5T1992 645q0 122-45.5 233T1814 1076t-197.5 133-233.5 46z" fill="#000000"></path></svg>