<?xml version='1.0' encoding='utf-8'?>
<svg xmlns="http://www.w3.org/2000/svg" viewBox="0 0 1919 2041" width="376" height="400"><path d="M849 1449q0 47 17 87.5t46 70.5 67.5 47.5 82.5 17.5h782v150h-782q-75 0-140.5-29.5t-114.5-80-77.5-118.5-28.5-145q0-73 28-137.5t85-117.5q47-45 107-74.5t127-41.5l456-89q40-7 80.5-25.5t72.5-47 52-66.5 20-85q0-46-16.5-86.5t-45.5-71-67.5-48T1518 542h-341q-13 77-51.5 143.5t-95.5 115T900.5 877 747 905H413V704H102q-26 0-44-17.5T40 643t18-44 44-18h311V353H102q-26 0-44-18t-18-44 18-44 44-18h311V30h334q81 0 153.5 27.5t129.5 76 95.5 115T1177 392h341q75 0 140.5 29.5t114.5 80 77.5 118.5 28.5 145q0 74-28.5 138.5T1766 1020q-47 44-107.5 74t-127.5 42l-455 89q-41 8-81.5 26t-73 46.5T869 1364t-20 85z" fill="#000000"></path></svg>