<?xml version='1.0' encoding='utf-8'?>
<svg xmlns="http://www.w3.org/2000/svg" viewBox="0 0 2100 2041" width="412" height="400"><path d="M1829 1528h10q12 0 25.5-.5t26.5-2.5 24-6.5 19-12.5V601q-15 8-42.5 9.5T1839 612h-10v916zm-684-74q55-16 111.5-24t119.5-8q56 0 110 8t101 24q-19-20-40-37.5t-45.5-30-55-19.5-70.5-7q-28 0-58 7t-61 19.5-60.5 30-51.5 37.5zM997 580q-63-40-132-57t-141-17-140 15.5T461 569q-48 24-101.5 33.5T251 612q-25 0-48.5-1.5T155 601v905q24 16 47.5 19t48.5 3q31 0 60.5-7t53.5-15q81-39 172.5-61.5T724 1422q72 0 141 14t132 38V580zm727 0q-48-8-86-31.5t-62-63.5q-39-48-91.5-71.5T1376 390q-79 0-139 36.5T1145 528l-42 73v737q63-48 132.5-66.5T1376 1253q64 0 109.5 14.5t84 38.5 74.5 54 80 62V580zm-674-95q47-96 131-148t195-52q88 0 162.5 37t121.5 99q24 33 54 48.5t63 15.5h52v21h10q56 0 110-15.5t101-47.5v1137q-47 24-101 38.5t-110 14.5q-39 0-82.5-8t-74.5-24q-71-32-148.5-52.5T1376 1528q-95 0-174.5 21.5T1050 1612q-71-41-155-62.5T724 1528t-166 20.5-150 52.5q-32 16-71 24t-86 8q-56 0-104.5-14.5T50 1580V443q48 32 96.5 47.5T251 506q94 0 157-31 71-40 150-57t166-17 171 18 155 66zM566 654q20 0 37 7.5t29.5 19 20 26.5 7.5 31v253q0 16-7.5 31.5t-20 26.5-29.5 18.5-37 7.5q-16 0-31.5-7.5T507 1049t-19-26.5-7-31.5V738q0-16 7-31t19-26.5 27.5-19T566 654zm0 495q20 0 37 7.5t29.5 20 20 29.5 7.5 37q0 19-7.5 37t-20 30.5-29.5 20-37 7.5q-16 0-31.5-7.5t-27.5-20-19-30.5-7-37q0-20 7-37t19-29.5 27.5-20 31.5-7.5z" fill="#ffffff"></path></svg>