<?xml version='1.0' encoding='utf-8'?>
<svg xmlns="http://www.w3.org/2000/svg" viewBox="0 0 2063 2041" width="404" height="400"><path d="M1030 598q-12 7-41.5 28.5t-68 50.5-82 62-81.5 62.5-67 52-40 31.5q-38 32-76.5 65.5T502 1022q17 14 37.5 31t38 36.5 29 41T618 1175q0 16-7.5 29t-15.5 25q-57 81-115.5 155T354 1528l-11 9q-11 8-22.5 10t-23.5 3q-31-1-59-17.5t-53-40-47-51.5-41-54q-3-5-7-9t-7-9q-9-11-19.5-24T43 1318.5t-16.5-28T20 1262v-7q0-8 2.5-18.5T26 1217q24-96 63.5-183T182 866q31-46 64.5-89t71.5-85q75-85 160.5-158.5T658 395q184-127 398-200 75-26 152.5-43.5T1366 134l7 1h85q21 8 45 28.5t48 48.5 46.5 60.5 39.5 66 27 64.5 10 55q0 17-5.5 33.5T1649 518l-10 10q-75 39-147.5 73T1338 670q-23 8-46 18t-43 10q-26 0-46.5-15t-36.5-37-28.5-47.5T1116 552l-1-4-2-1q-16 9-36.5 21.5T1030 598zm-321 81q39-31 79-60t81-58q45-32 91.5-62.5T1055 443l13-6 5-2 5-3q17-8 35-15.5t37-7.5q23 0 35.5 15t20.5 31l13 25q10 22 20 44.5t24 42.5q72-29 143.5-61.5T1546 436q-21-47-55.5-93t-71.5-86h-16q-83 0-162.5 15T1083 316q-108 39-208.5 94.5T680 535q-91 67-175 145T352 846q-71 89-127 189.5T145 1248q33 46 67 92t79 77q51-60 100-120t94-125l-96-82-2-1q-10-8-18.5-19t-8.5-28q0-21 15-46t38-51.5 51-53.5 55-51q3-2 5.5-5.5t4.5-5.5q87-79 180-150zm1288 613q20 8 33 26.5t13 40.5-13 41-33 27l-465 192-14 3.5-14 1.5q-30 0-53-21t-23-53v-118H927q-29 0-51-20.5t-22-50.5q0-26 15.5-46t40.5-26v-2q7-2 13-2h505v-118q0-30 22.5-51t51.5-21q15 0 30 6zm-221 67l-200-82v164z" fill="#000000"></path></svg>