<?xml version='1.0' encoding='utf-8'?>
<svg xmlns="http://www.w3.org/2000/svg" viewBox="0 0 1986 2041" width="389" height="400"><path d="M1545 414q0 39-14.5 73t-40 59.5-59.5 40-73 14.5-73.5-14.5-60-40-40-59.5-14.5-73 14.5-73 40-59.5 60-40.5 73.5-15 73 15 59.5 40.5 40 59.5 14.5 73zm-521 616q14-25 32-58 16-29 39.5-69.5T1149 808q28-42 67-61t81-19q35 0 68 11.5t59 32 42 48.5 16 60q0 34-19 68-18 32-40.5 70.5t-46.5 79-48.5 82-47.5 80.5q-54 91-110 184zm503-382q9-5 27-15.5t41-24 50-29 53-30.5q62-35 135-77l16 16v96l-13 33-258 148q-4-22-11-43-6-18-16-38.5t-24-35.5zm-663 484q18-6 37-16 17-8 36.5-20t39.5-28q10 28 25.5 72.5t35 98.5 40.5 113.5 42 117.5q48 136 104 291l-130 16zm55 331q-70-32-130-59-26-12-52-23.5t-49-22-42-19-29-13.5q-29-13-56-13-23-1-40.5 9.5T493 1352q-5 10-23 40t-42.5 71-54 88.5T315 1644t-54.5 81.5T218 1781q-9 11-23.5 15.5T166 1801q-21 0-43-8.5t-40.5-24-30-36.5-11.5-46q0-33 23-68 18-27 50-72.5t70.5-99 79-109.5 75-103.5 59-81.5 31.5-43q17-23 43.5-35.5T530 1061q7 0 13.5.5t13.5 1.5q19 4 59 12.5t80 18.5q47 11 100 24zm85-963q0 80-26.5 151T905 779l54 54-63 63-55-54q-57 47-128 73t-150 26q-80 0-151-26t-128-73l-54 54-63-63 54-54q-47-57-73-128t-26-151q0-79 26-150t73-128l-54-54 63-64 54 55q57-48 128-74t151-26q79 0 150 26t128 74l55-55 63 64-54 54q46 57 72.5 128t26.5 150zm-89 0q0-61-19.5-115.5T841 285L626 500l215 215q35-45 54.5-99.5T915 500zM563 149q-61 0-115.5 19T348 222l215 215 215-215q-45-35-99.5-54T563 149zM211 500q0 61 19.5 115.5T285 715l214-215-214-215q-35 45-54.5 99.5T211 500zm352 352q61 0 115.5-19.5T778 778L563 563 348 778q45 35 99.5 54.5T563 852zm1036 920v-35l144-192q25-33 41-57.5t25.5-44 13.5-37 4-35.5q0-29-18-49t-47-20q-37 0-52.5 27.5T1694 1398v12h-106q0-106 47-161t132-55q43 0 75 14.5t53.5 38.5 32.5 55.5 11 64.5q0 31-8.5 61t-27.5 65-50.5 77.5-77.5 97.5q34-3 71-3h100v107h-347z" fill="#ffd100"></path></svg>