<?xml version='1.0' encoding='utf-8'?>
<svg xmlns="http://www.w3.org/2000/svg" viewBox="0 0 2933 2041" width="575" height="400"><path d="M886 1102q0 75 11.5 136.5T928 1335l247-45q-11-37-17-85.5t-6-102.5 6-102 17-85l-247-45q-19 35-30.5 96T886 1102zm1141 0q0 50-3.5 93.5t-8.5 78.5l156 34q14-38 22-91t8-115-8-115-22-91l-156 35q5 35 8.5 78t3.5 93zm-129 290q32 1 63.5 1.5t57 1 42.5 1 22 .5q46 0 88.5-9.5t81.5-26.5q25-11 31-31 12-33 18.5-72t9-73.5 2.5-58V1078l-2.5-57-9-73.5L2284 875q-3-10-9.5-17t-20.5-13q-80-37-171-37-5 0-25 .5t-49.5 1.5-64.5 1.5-70 1.5-66 1.5-52 .5l-692 4h-32q-53 1-100.5 2t-86.5 2-67.5 2.5T736 829q-44 8-78 34-6 5-16.5 21T620 935q-21 81-21 167 0 88 21 167 11 34 21.5 51t16.5 21q34 26 77 34 13 2 39 3t62 2.5 80.5 2.5 93.5 1l22 1 32 1 692 3q25 0 62.5 1t79.5 2zm-891 79q-51-1-97.5-2t-84-2-64.5-2.5-40-3.5q-65-12-115-50-24-18-40.5-50t-27.5-68q-26-93-26-191t26-191q11-36 27.5-68t40.5-50q50-38 115-49 14-2 43.5-4t70-3.5T925 734t106-2h32l693-4q21 0 52-.5t66-1.5l70-2 64.5-1.5 50-.5h25.5q109 0 204 43 24 11 45.5 29.5T2366 845q14 40 21.5 85t10.5 83q4 45 3 89 1 44-3 89-3 38-10.5 83.5T2366 1359q-11 32-32.5 50.5T2288 1439q-94 42-204 44-5 0-22.5-.5t-43-1-57-1.5-63.5-2q-42-1-79.5-1.5t-62.5-.5l-693-4h-32zm-496 162q-44 0-84.5-14.5t-73-40-56-61T264 1439q-4-17 5.5-32t26.5-19q17-5 32 4.5t20 26.5q6 29 21.5 52.5t37 40 48 26 56.5 9.5q17 0 29.5 12.5T553 1590t-12.5 30.5T511 1633zm-343-112q-19 0-33-16-46-56-70.5-123.5T40 1242q0-60 18-119 5-17 20.5-25t32.5-3 25.5 20.5 3.5 32.5q-14 47-14 94 0 57 19 110.5t55 97.5q11 14 10 32t-15 29q-13 10-27 10zm2460-709q-14 0-26-9.5t-16-23.5q-7-28-22-52t-36.5-40.5-48-26-55.5-9.5q-18 0-30.5-12.5T2381 608t12.5-30 30.5-12q43 0 83 14.5t73 40 56 61 34 77.5q4 17-5.5 32t-26.5 20q-2 0-5 .5t-5 .5zm207 293q-4 0-12-2-17-5-25.5-20t-3.5-32q14-48 14-94 0-57-19.5-110.5T2732 748q-11-14-9.5-31.5T2738 688t31.5-10 28.5 15q47 57 71 124.5t24 139.5q0 30-4 59.5t-13 58.5q-4 14-15.5 22t-25.5 8z" fill="#000000"></path></svg>