<?xml version='1.0' encoding='utf-8'?>
<svg xmlns="http://www.w3.org/2000/svg" viewBox="0 0 1976 2041" width="387" height="400"><path d="M366 504l296 691q-15 7-34.5 14.5T594 1225L268 553zm1323 49l-326 682q-15-8-31-15t-38-15l287-711zM603 100l207 957-69 19-266-937zm148 1154q-7 15-13 36t-6 43q-64 23-101 38.5t-56.5 27-25 19-5.5 14.5q3 5 37.5 22.5T672 1491t129.5 34 155.5 15q95 0 172-17t131-37 83.5-37l29.5-17q0-4-4.5-11.5t-22-20-51-29-90.5-38.5q0-22-6-39.5t-14-39.5q120 30 188.5 74.5T1442 1432q0 41-38 74t-104 56-154.5 35.5T957 1610t-187.5-12.5-153-35.5-103.5-56-38-74q0-30 19.5-57t55.5-50.5 87-41.5 114-29zm1086 188l59 109 10 10q7 15 13.5 30.5t6.5 37.5q0 26-12 49.5t-31.5 41-44.5 28-51 10.5H188q-30 0-55-10.5t-43.5-28-29-41T50 1629q0-22 2.5-43t17.5-35l316-543 48 108-285 484v29q0 16 8.5 23t30.5 7h1599q16 0 28-7t12-23q0-7-5-14.5t-5-14.5l-69-109v-10l-29-39-80-148-108-178 50-118q51 92 97.5 173t82 141.5 56 95zM751 366l108-188q16-37 49.5-57.5T987 100q38 0 71.5 19.5T1107 169l305 532-49 120-346-603q-8-7-15-13t-15-6q-14 0-22.5 6T948 218L781 514zm296 455h168v68h-168v99h168v69h-168v178q11 7 21.5 19t19 27 14 31.5 5.5 31.5q0 30-11 55t-29.5 43-44 28.5T969 1481q-30 0-55.5-10.5t-44-28.5-29-43-10.5-55 14.5-62 44.5-47V475q0-31 21-55t59-24q14 0 28 6.5t25 17.5 18 25.5 7 29.5v167h168v70h-168v109zm-49-41V494q0-30-29-30-9 0-15 7.5t-6 22.5v286h50z" fill="#000000"></path></svg>