<?xml version='1.0' encoding='utf-8'?>
<svg xmlns="http://www.w3.org/2000/svg" viewBox="0 0 1851 2041" width="363" height="400"><path d="M1811 1819H40V30h1771v1789zM104 94v1659h1643V94H104zm1070 965l201 64q-46 167-154 252-54 42-123 61t-151 20q-102 0-187.5-36t-148-103.5T514 1152t-35-218q0-128 35-228.5T612 536t151.5-105.5T960 394q190 0 307 111 69 67 106 190l-206 49q-20-81-78.5-127T949 571q-57 0-104 20t-81 62.5-52.5 108T693 918q0 99 18.5 168t52.5 111.5 80 62 102 19.5q81 0 141-52t87-168z" fill="#000000"></path></svg>