<?xml version='1.0' encoding='utf-8'?>
<svg xmlns="http://www.w3.org/2000/svg" viewBox="0 0 1784 2041" width="350" height="400"><path d="M1759 1356q3 11 4 21t1 21q0 41-18 79.5t-49 72-73.5 61-90.5 47-100 30-103 10.5q-60 0-112.5-14.5t-90.5-41-60-64-22-83.5q0-54 34-107t93-95.5 138-69 170-26.5q42 0 78.5 6.5t67.5 17.5h-2V468L736 722v793q1 7 1 13v12q0 63-38 117.5t-99.5 95-139 63.5-156.5 23q-60 0-112-14t-90.5-40.5-60-63.5-21.5-82q0-55 33.5-108.5t92-96 138.5-69 173-26.5q40 0 77 7t71 18V346L1759 17v1335l-1 2q0 1 1 2zM570 1611q20-19 29-37t9-33-12-28.5-32.5-23.5-48-15.5-58.5-5.5q-64 0-120 17.5t-97 43-65 54.5-24 52q0 13 9 26.5t27.5 24.5 47.5 18 69 7q36 0 74-8t73.5-21.5 66-31.5 52.5-39zm1027-143q17-17 27.5-36t10.5-36q0-15-12.5-27.5T1589 1347t-49-14-60-5q-65 0-121 17.5t-96.5 43.5-63.5 55-23 51q0 27 40 49.5t114 22.5q38 0 76-7t73-20 65-31 53-41z" fill="#000000"></path></svg>