<?xml version='1.0' encoding='utf-8'?>
<svg xmlns="http://www.w3.org/2000/svg" viewBox="0 0 2108 2041" width="413" height="400"><path d="M50 1205h632q0 29 5.5 58.5t5.5 67.5H50v-126zm0-279h606v127H50V926zm0-278h643q0 38-5.5 67.5T682 774H50V648zm0-264h745q-9 0-10.5 5.5t-11 24T745 510H50V384zm0 1085h695q9 38 18.5 73t19.5 53H50v-126zm960-972q-10 29-25 75.5t-30.5 111T926 828t-17 175q4 90 17 169t28.5 143 30.5 110.5 25 69.5q9 0 20 1.5t30 10.5q48 5 99.5 3.5t102-9 99.5-18.5 91-25q38-15 70.5-29t57-25.5 40.5-20.5 21-15q10 0 21-2.5t30-22.5q19-10 47-28t66-47q28-24 53.5-54.5t43.5-64.5 26.5-71 3.5-75q5-44-3.5-84t-26.5-77-43.5-69-53.5-61q-74-37-113-75-19-11-30-12.5t-21-1.5q-5-5-21-13.5t-40.5-20-57-25.5-70.5-29q-42-15-91-26t-99.5-18-102-8.5-99.5 2.5q-19 9-30 10.5t-20 1.5zm871 871q-38 19-67.5 44.5T1756 1458l-52 24q-5 6-22.5 14.5t-46 20-65.5 25.5-80 29q-47 14-101.5 27t-112 21.5-119 10-122.5-8.5q-9 0-17-.5t-16.5-3-18-7T959 1595q-15 0-24.5-5.5T918 1575t-12-17-10-12q-10-28-26.5-78T836 1349.5 807 1194t-12-191q0-109 12-199t29-160 33.5-119 26.5-78q5-4 10-13.5t12-18.5 16.5-18 24.5-13q15 0 24.5-2t18-4.5 16.5-4.5 17-2q61-9 122.5-8t119 9.5 112 21.5 101.5 28q43 14 80 28t65.5 25.5 46 20.5 22.5 14q32 16 52 25 28 19 57.5 39t67.5 49q34 33 65 72t56.5 85 40.5 101 15 122q0 56-15 108t-40.5 98.5-56.5 85.5-65 73z" fill="#0040a4"></path></svg>