<?xml version='1.0' encoding='utf-8'?>
<svg xmlns="http://www.w3.org/2000/svg" viewBox="0 0 1953 2041" width="383" height="400"><path d="M1825 1434l57 108v9q16 16 18.5 31t2.5 38q0 26-10.5 48.5t-29 40-43.5 27.5-54 10H188q-27 0-51.5-10t-44-27.5-31-40T50 1620q0-48 30-78L860 175q15-28 47.5-47t69.5-19q36 0 70.5 19t55.5 47zm-975 29q0 26 10 49t27.5 40.5 40.5 28 49 10.5q28 0 53-10.5t43.5-28 29-40.5 10.5-49q0-25-10.5-48t-29-40.5-43.5-28-53-10.5q-26 0-49 10.5t-40.5 28T860 1415t-10 48zM977 449q-26 0-49 11t-40.5 30.5T860 537t-10 59v525q0 29 10 56t27.5 47.5T928 1257t49 12q29 0 52-12t39.5-32.5 25.5-47.5 9-56V596q0-67-33-107t-93-40z" fill="#000000"></path></svg>