<?xml version='1.0' encoding='utf-8'?>
<svg xmlns="http://www.w3.org/2000/svg" viewBox="0 0 1870 2041" width="366" height="400"><path d="M1359 1291q-8-36-16-72.5t-8-75.5q0-37 8-74.5t16-85.5h-283V859h333q37-73 37-147 0-22-2-41.5t-6.5-38.5-11.5-38.5-17-42.5h-333V428h283q-4-19-10-37.5l-12-37-10-37-4-37.5q0-46 9-79.5t24-61 35-52 43-53.5h137q-66 75-95.5 132.5T1446 279q0 29 9.5 70t27.5 79h347v123h-296q4 24 10.5 45t12.5 40.5 10 38 4 37.5-4 37.5-10 36.5-12.5 36-10.5 37h296v124h-347q-18 48-27.5 85.5t-9.5 74.5q0 39 9.5 75.5t27.5 72.5h347v125h-296q4 23 10.5 43.5t12.5 40.5 10 38.5 4 36.5q0 42-10.5 74t-26.5 60-36 54.5-39 59.5h-136q15-23 36-54t40.5-64.5 33-67.5 13.5-62q0-70-37-159h-333v-125h283zm-665 371q55-176 89-354.5T817 933t-33.5-377T694 204q-116 38-213.5 108.5T312.5 478t-110 211T163 933q0 126 39.5 242t110 212 168 167T694 1662zM40 933q0-111 25-214t70.5-194 111-168.5 146.5-138T569 117t200-60q85 207 129 425t44 451q0 235-44 453t-129 425q-158-27-291.5-107t-231-197-152-264.5T40 933z" fill="#000000"></path></svg>