<?xml version='1.0' encoding='utf-8'?>
<svg xmlns="http://www.w3.org/2000/svg" viewBox="0 0 2113 2041" width="414" height="400"><path d="M1313 418l645 1120 93 149q11 20 11.5 46.5t-4.5 46.5q-20 21-38 32t-43 16l-1839 1q-10-3-22-7t-23.5-10-20.5-15.5-14-22.5q-10-25-7-47t12-43 19.5-43 15.5-47l420-740 413-753q11-30 38.5-45t62.5-15q10-3 24.5.5t29.5 10 27.5 16T1134 87zm430 971q-135-240-268.5-477.5T1206 434l-168-286h-7L882 417 273 1526l-101 202h7l74 1h1624q7-3 14.5-2.5t14.5.5 13-1 11-6 2.5-10.5-2.5-15.5zM942 776V517h205v259l-44 614H983zm27 668h155v141H969v-141z" fill="#e4002c"></path></svg>