<?xml version='1.0' encoding='utf-8'?>
<svg xmlns="http://www.w3.org/2000/svg" viewBox="0 0 1878 2041" width="368" height="400"><path d="M435 887H237q-29 0-46 16.5T174 949q0 85 23 166.5t52 157.5q8 0 9.5 8t7 17 20 17 49.5 8l163-150q-29-46-46-108t-17-128v-50zm946 286l161 150q19 0 42.5-10t32.5-28v-12q38-76 62.5-157.5T1704 949q0-13-6-24.5t-15-20-20-13-21-4.5h-199v50q0 66-17 128t-45 108zm-746 174l-112 100q-3 0-9.5 3.5t-13 11T489 1480t-5 26q0 21 14 41v12q94 66 202.5 101.5T933 1696q133 0 243.5-35.5T1381 1559v-12q12-21 12-39 0-17-9.5-30t-27.5-19v-12l-124-100q-57 48-135.5 68T933 1435q-76 0-154-20t-144-68zM933 166q-117 0-223 33t-195.5 92.5T354 433 237 613q8 19 19 34.5t30 15.5h1307q4 0 10.5-4.5T1616 647t10-16 4-18q-42-98-112.5-180T1356 291.5 1157.5 199 933 166zm0 1654q-121 0-233.5-32t-211-90-179-139.5-138.5-181-89.5-214T50 925q0-121 32-234t89.5-211.5T310 300t179-138.5T699.5 72 933 40q124 0 239 32t214.5 89.5 181 138.5T1707 479.5t89.5 211.5 31.5 234q0 124-31.5 238.5t-89.5 214-139.5 181-181 139.5-214.5 90-239 32zm0-1070q-51 0-98.5 22T751 831t-57.5 87-21.5 105q0 56 21.5 106t57.5 87.5 83.5 59.5 98.5 22q56 0 106-22t87-59.5 58.5-87.5 21.5-106q0-55-21.5-105t-58.5-87-87-59-106-22zm0 50q-41 0-79.5 17.5t-68 47.5-47 71-17.5 87q0 51 17.5 92.5t47 71 68 45T933 1247q47 0 88-15.5t71-45 47.5-71 17.5-92.5q0-46-17.5-87t-47.5-71-71-47.5-88-17.5z" fill="#e4002c"></path></svg>