<?xml version='1.0' encoding='utf-8'?>
<svg xmlns="http://www.w3.org/2000/svg" viewBox="0 0 1887 2041" width="370" height="400"><path d="M754 871q-118 0-206-31.5T402 755t-86.5-121.5T287 491q0-67 22-133.5t65.5-125 108-105.5T632 51q46-13 90-13 55 0 93.5 12T880 81.5t41.5 43 23 46T954 212t2 29q0 33-7 67t-16 71.5-16 79.5-7 91q0 38 6 81.5t21 93.5q18 0 30.5 6t31.5 6q0-119 32-206.5t85-145.5 122-86 143-28q66 0 132 22t124.5 65.5 105.5 108 76 148.5q13 46 13 90 0 56-12.5 95t-32 65.5-43.5 41-47.5 22-43 9.5-29.5 2q-36 0-71.5-8t-75-18-85-18-99.5-8q-35 0-75 4.5t-85 15.5v74q119 0 206.5 32t145.5 85 86 122 28 143q0 66-22 132t-65.5 124.5-108 106T1255 1802q-46 13-90 13-56 0-95.5-12.5T1004 1770t-41-44-22.5-47.5-9.5-43-2-29.5q0-34 7.5-68t16-71.5 16-80 7.5-92.5q0-39-6-83t-20-95h-62q0 119-32 206.5T771 1468t-122 86-143 28q-66 0-132-22t-124.5-65.5-106-108T68 1238q-7-24-10-47t-3-44q0-55 12.5-93.5t32-64.5 43-41.5 46.5-23 42.5-9.5 30.5-2q34 0 68 7.5t70.5 16 78 16T568 960q38 0 81-6t93-21v-13q0-9 6-24.5t6-24.5zm330 245q11 48 15 90t4 80q0 49-6.5 90t-15 78-15 71-6.5 68q0 9 1 25.5t10 32 29 27.5 59 12q13 0 28-2.5t32-8.5q66-23 114-55.5t79.5-71 46.5-81 15-85.5q0-54-23-105t-67-90-107.5-63-143.5-25h-36zm49-330q57-12 105.5-17.5t91.5-5.5q47 0 88.5 7.5t76.5 16 64 16 51 7.5q43 0 70.5-23.5T1708 714q0-25-12-63-22-66-54.5-114.5t-71-79.5-81-46-85.5-15q-54 0-105 23t-91 67-64 107.5-24 143.5v36q0 10 6.5 11.5zm-330-49q-11-51-15.5-96t-4.5-85q0-61 7-110.5t13-87.5q9-28 16.5-49t7.5-49q0-46-24.5-71.5T737 163q-25 0-57 11-69 23-119 55t-82.5 70.5-48 80.5-15.5 84q0 53 23 102t67 87 106.5 61T754 737h49zm-49 330q-48 11-91.5 15t-81.5 4q-53 0-95-6.5t-77.5-15-67-15-64.5-6.5q-46 0-71.5 24t-25.5 64q0 12 2.5 26.5t8.5 32.5q23 69 55.5 119t71.5 82.5 81.5 48T485 1455q52 0 100.5-22.5t86-64.5 60-102.5T754 1128v-61zm183-207q-28 0-44 16t-16 44q0 38 16 55.5t44 17.5q73 0 73-73 0-28-17.5-44T937 860z" fill="#000000"></path></svg>