<?xml version='1.0' encoding='utf-8'?>
<svg xmlns="http://www.w3.org/2000/svg" viewBox="0 0 808 2041" width="158" height="400"><path d="M50 1727h238v-641h113q7 0 14.5 1t15 8 13.5 19.5 11 37.5q2 10 5 45t7 84 8 105.5 8 109.5q1 30 3 60.5t3.5 58 4 50 4.5 62.5h260q-5-46-10.5-61t-10-31.5-8-36.5-6.5-46q-2-15-4-36.5t-4.5-55.5-6.5-82-8-116q-6-65-11-121.5t-15.5-101-30-77.5-52.5-52q23-19 46-47.5t41.5-71.5T710 688t13-140q0-37-4.5-77.5t-14-81.5-25-80-37.5-74q-21-38-47.5-60t-56-34-60.5-12H50v1598zM361 424q16 0 29.5.5T415 428t20.5 9 17.5 18q4 4 8.5 13.5t9 26.5 7 42 2.5 61q0 38-3.5 65t-9 44.5T457 735t-7 15q-9 12-18.5 19.5t-18 10.5-15.5 3.5-13 .5H282V424h79z" fill="#000000"></path></svg>