<?xml version='1.0' encoding='utf-8'?>
<svg xmlns="http://www.w3.org/2000/svg" viewBox="0 0 1680 2041" width="329" height="400"><path d="M1140 820q64 51 99.5 124t35.5 155-35.5 155.5T1140 1379q-13 10-30 10-19 0-33-13.5t-14-33.5q0-22 18-37 48-38 73.5-91.5T1180 1099t-25.5-114.5T1081 893q-9-7-13.5-16.5T1063 856q0-20 14.5-33.5T1109 809q19 0 31 11zm147-115q82 77 126.5 179.5T1458 1099t-44.5 215-126.5 179q-13 13-32 13t-33-14-14-33q0-20 15-34 69-64 105-148t36-178-36-177.5T1223 774q-15-13-15-34 0-19 14-33.5t34-14.5q19 0 31 13zm160-126q104 106 158.5 239t54.5 281-54.5 281.5T1447 1620q-14 14-33 14-20 0-34-14t-14-33q0-20 14-33 91-92 138.5-208.5T1566 1099q0-128-47.5-245T1380 644q-14-13-14-32t14-33 33-14q21 0 34 14zm-593 668v-101H636q8 47 32.5 88.5T731 1305q18 15 18 37 0 21-14.5 34t-32.5 13q-17 0-30-10-55-44-88.5-104T541 1146h-91q9 81 44 151.5t95 127.5q7 6 11 15.5t4 18.5q0 20-13.5 33.5T557 1506q-19 0-32-13-74-69-117.5-158T356 1146H248q8 116 54.5 220T432 1554q13 15 13 33 0 19-13.5 33t-33.5 14-34-14q-95-97-149-218t-62-256H68q-20 0-34-13.5T20 1099t14-33.5 34-13.5h85q8-134 62-255t149-218q7-8 16-11t18-3q20 0 33.5 14t13.5 33-13 32q-83 84-129.5 188.5T248 1052h108q8-100 51.5-189T525 705q12-13 31-13t33.5 14 14.5 34q0 19-15 34-60 56-95 126.5T450 1052h91q9-69 42.5-128.5T672 820q14-11 30-11 17 0 32 13.5t15 33.5q0 11-4.5 20.5T731 893q-38 30-62.5 71t-32.5 88h218V951l256 148z" fill="#000000"></path></svg>