<?xml version='1.0' encoding='utf-8'?>
<svg xmlns="http://www.w3.org/2000/svg" viewBox="0 0 1871 2041" width="367" height="400"><path d="M936 120q-162 0-314 64-72 30-136 73.5T366 357t-99.5 120T193 613q-64 151-64 314t64 314q30 72 73.5 136t99.5 120q111 113 256 173 152 64 314 64 163 0 314-64 145-60 256-173 112-110 174-256 31-75 47-153.5t16-160.5-16-160.5-47-153.5q-62-146-174-256-56-56-120-99.5T1250 184q-151-64-314-64zm0-89q124 0 238.5 32t213.5 90.5 181 140 140 181 90 214 32 238.5-32 238.5-90 214-140 181-181 140-213.5 90.5-238.5 32-238.5-32-214-90.5-181-140-140-181-90.5-214T40 927t32-238.5 90.5-214 140-181 181-140 214-90.5T936 31zM792 1623h-12q-6 0-19-3.5t-30-9-35.5-12.5-34.5-14q-42-18-84.5-44.5t-81-58.5-71.5-67.5-58-71.5l-24-35v-219q0-89 .5-138.5t2.5-76 7-37.5 14-23q5-6 15-13.5t19-12.5q10-5 20.5-8t30.5-3.5 55 1.5 94 5q46 3 74 5.5t44.5 6.5 24.5 10.5 16 16.5q2 3 11.5 18t24 38 33 53 38.5 63 38.5 62 32.5 51 22.5 35 10.5 13q1 1 10.5-3.5t25.5-13 36.5-20 43.5-24.5 44.5-24.5 38.5-21 29-15.5 15-7q22-7 44.5-2t40.5 19 29 35 11 46q0 18-11 40.5t-25 32.5q-5 4-29.5 18.5t-59.5 35-75.5 44-76.5 43.5-62.5 35-33.5 18q-15 7-32 8.5t-33.5-1.5-31-10.5T844 1367q-2-3-10-14.5t-20-29.5-27.5-40.5T755 1235q-16-24-31-46t-26-38.5-18.5-26-8.5-10.5q-6-1-9 5-1 3 16 31t48 75l66 99v299zm738-618q-27 21-50.5 39.5t-42 32.5-29.5 22-12 8-7-2.5-14-5.5q-11-5-17-11.5t-14-20.5q-25-44-69-58-39-12-71 0-7 2-11.5 3t-10.5-.5-15.5-5T1140 995q-20-9-33-16t-13-9q0-1 19.5-15t49-34.5 64-44.5 65.5-45 53.5-35.5T1372 779q2-1 24.5 6.5t54 20 68 27.5 68 28.5 52 23.5 20.5 12q0 1-10 10t-27.5 23.5-41 34-50.5 40.5zm-542 1q-24 8-43.5 14t-22.5 7-5.5.5-7.5-7.5-15.5-23.5T864 949q-13-22-21-35.5t-12.5-22-5-12 1.5-5.5q3-3 19-9t34-12.5 33.5-11.5 17.5-4 11.5 12 23 26.5 28 34 27 34.5 20.5 27 8 12q-2 2-19 8.5t-42 14.5zm232-148q-27 18-51.5 34t-43 28.5-30 20-12.5 8.5q-6 1-12-8-4-7-13-27.5t-20.5-46.5-23.5-54.5-22-52-16.5-39.5-5.5-17q0-2 21-15.5t52-33 67-41.5 67.5-41 53.5-31.5 24-12.5q4 0 16 26t37 89q10 24 18 45.5t14 38 9.5 26 2.5 10.5q0 1-10.5 9t-28.5 21-42 29.5-51 34.5zm-183 56q0 1-3 1-1 0-15.5-16t-35-40-44-52.5-43.5-53-33.5-41.5-13.5-18 24.5-16.5 61-37.5 79.5-47 80.5-46.5 63.5-36 28-14.5q8 0 17 14l10 13-9 8q-2 2-14 9.5t-30.5 19-42.5 26-50 30.5-49 30.5-40 26-27 18.5-10 8 3.5 10 10 24 15.5 34.5 19 40.5q20 44 34 74.5t14 31.5zM651 721q-11 3-26.5 4.5T593 727t-31.5-2-25.5-6q-41-14-70-41.5t-44.5-63-16-75.5 17.5-78q27-58 77.5-85T605 352t101 36 68 94q12 36 8.5 74T762 627t-45.5 58-65.5 36z" fill="#000000"></path></svg>