<?xml version='1.0' encoding='utf-8'?>
<svg xmlns="http://www.w3.org/2000/svg" viewBox="0 0 2000 2041" width="392" height="400"><path d="M632 923v118q0 17-9.5 25.5T598 1075H460q-36 0-36-34V849q-2-20-5-36t-3-32q-2-17-3.5-31.5T411 720q0-30 3.5-54.5T423 627q5-17 11-33t6-21h-73q-9 0-15-2.5T342 560q-5-6-8-11t-3-9l24-77q0-3 5-7 3-2 11-6 5 0 8-2t5-2q5-2 8.5-2H516q6-13 11.5-20.5T541 404q4-5 13-15.5t18.5-22.5 17.5-23 11-17q5-4 14.5-14.5t19.5-22 18.5-21T665 257q8-5 15.5-9.5T699 238q12-4 27-7t33-6q42-2 78.5-4.5T907 218h182q35 0 72 2.5t76 4.5q18 3 33.5 6t24.5 7q25 10 35 19 4 2 12.5 11.5t18.5 21 19.5 22T1395 326q4 6 12.5 17t18 23 18 22.5T1457 404q8 12 13.5 19.5t8.5 20.5h125l6 2q3 0 6.5 2t9.5 2q4 2 10 6 8 4 8 7l21 77q0 4-3 9t-5 11q-5 8-10.5 10.5T1630 573h-71q0 5 5.5 21t11.5 33q5 14 6.5 38.5t1.5 54.5q0 15-1 29.5t-1 31.5q-1 16-3.5 32t-6.5 36v192q0 34-35 34h-139q-17 0-23.5-8.5t-6.5-25.5V923H632zm706-480q-20-45-55-69t-80-34.5-97.5-12T1000 326q-56 0-107.5.5t-96 10.5-80 34.5T659 443h679zM524 815h951V705h-205V600h171l-31-55H588l-34 55h175v105H524v110zm189 838H401l599-283 597 283h-311l-286-157zm-163-427H371l73-95h160zm-397 281h236l-82 146H40zm356-209l-76 132H213l101-132h195zm885-167h161l71 95h-179zm566 522h-268l-83-146h237zm-276-355l101 132h-221l-75-132h195z" fill="#000000"></path></svg>