<?xml version='1.0' encoding='utf-8'?>
<svg xmlns="http://www.w3.org/2000/svg" viewBox="0 0 1888 2041" width="370" height="400"><path d="M1029 930l-4-24-11-22-16-19-23-13-23-7-28 3-22 9-21 17-14 20-7 24v25l7 25 14 21 21 15 22 10 28 1 23-5 23-12 16-19 11-23zm-279 43l-6-43 6-42-60-9-58-5-55-8-54-18-51-23-46-31-41-37-35-43-30-47-21-52-16-53-6-55 1-56 11-55 18-53 25-49 42-60 51-56 58-49 63-40 70-33 61-15 62-2 62 12 59 25 29 22 25 29 18 32 11 36 2 40-8 37-27 112-15 118-2 116 9 119 43-5 42 5 10-60 6-60 8-54 15-53 24-50 31-47 37-42 42-36 48-27 52-24 52-11 56-7 56 2 54 10 53 15 51 26 61 42 56 51 49 57 40 64 32 69 16 61 2 64-12 61-25 57-23 32-28 24-34 18-36 9-38 2-38-6-113-27-118-15-117-3-117 9 3 42-3 43 59 9 60 7 54 8 53 16 51 23 46 31 42 38 35 43 30 47 21 50 14 55 7 54-2 56-9 55-17 51-26 50-43 63-51 56-58 48-64 41-68 31-61 15-63 3-62-11-58-26-30-22-25-28-17-34-10-36-1-37 6-39 26-114 16-116 3-118-10-117-42 5-43-5-9 59-7 59-8 55-16 53-24 51-30 47-37 40-43 36-47 29-51 22-54 14-56 7-57-3-53-9-52-17-50-26-63-43-56-49-49-58-40-64-31-69-17-61-2-62 13-63 25-58 23-30 28-24 33-19 36-9 38-2 37 6 116 28 115 14 119 3z" fill="#000000"></path></svg>