<?xml version='1.0' encoding='utf-8'?>
<svg xmlns="http://www.w3.org/2000/svg" viewBox="0 0 1866 2041" width="366" height="400"><path d="M1537 1751H329q-64 0-120-24t-98-66-66.5-98.5T20 1442V358q0-64 24.5-120.5t66.5-99 98-67T329 47h1208q64 0 120.5 24.5t98.5 67 66 99 24 120.5v1084q0 64-24 120.5t-66 98.5-98.5 66-120.5 24zM329 236q-24 0-46 9.5t-38.5 26-26 39T209 358v1084q0 24 9.5 46t26 38.5 38.5 26 46 9.5h1208q25 0 46.5-9.5t38-26 26-38.5 9.5-46V358q0-25-9.5-47.5t-26-39-38-26-46.5-9.5H329zm1107 187q0 29-11 53.5t-30 43.5-44.5 29.5T1297 560q-29 0-54-10.5t-43.5-29.5-29.5-43.5-11-53.5 11-54.5 29.5-44T1243 295t54-11q28 0 53.5 11t44.5 29.5 30 44 11 54.5zm0 321q0 29-11 54t-30 43.5-44.5 29.5-53.5 11q-29 0-54-11t-43.5-29.5T1170 798t-11-54q0-28 11-53t29.5-43.5 43.5-29 54-10.5q28 0 53.5 10.5t44.5 29 30 43.5 11 53zm0 322q0 29-11 54t-30 43.5-44.5 29.5-53.5 11q-29 0-54-11t-43.5-29.5-29.5-43.5-11-54q0-28 11-53t29.5-43.5 43.5-29 54-10.5q28 0 53.5 10.5t44.5 29 30 43.5 11 53zM706 423q0 29-10.5 53.5T666 520t-44 29.5-53 10.5-53-10.5-43.5-29.5-29-43.5T433 423t10.5-54.5 29-44T516 295t53-11 53 11 44 29.5 29.5 44T706 423zm0 321q0 29-10.5 54T666 841.5 622 871t-53 11-53-11-43.5-29.5-29-43.5-10.5-54q0-28 10.5-53t29-43.5 43.5-29 53-10.5 53 10.5 44 29 29.5 43.5 10.5 53zm0 322q0 29-10.5 54t-29.5 43.5-44 29.5-53 11-53-11-43.5-29.5-29-43.5-10.5-54q0-28 10.5-53t29-43.5 43.5-29 53-10.5 53 10.5 44 29 29.5 43.5 10.5 53zm365-643q0 29-11 53.5t-29.5 43.5-44 29.5T932 560q-28 0-53-10.5T835.5 520t-29-43.5T796 423t10.5-54.5 29-44T879 295t53-11q29 0 54.5 11t44 29.5 29.5 44 11 54.5zm0 321q0 29-11 54t-29.5 43.5-44 29.5-54.5 11q-28 0-53-11t-43.5-29.5-29-43.5-10.5-54q0-28 10.5-53t29-43.5 43.5-29 53-10.5q29 0 54.5 10.5t44 29T1060 691t11 53zm0 322q0 29-11 54t-29.5 43.5-44 29.5-54.5 11q-28 0-53-11t-43.5-29.5-29-43.5-10.5-54q0-28 10.5-53t29-43.5 43.5-29 53-10.5q29 0 54.5 10.5t44 29 29.5 43.5 11 53zm0 322q0 29-11 54.5t-29.5 44-44 29.5-54.5 11q-28 0-53-11t-43.5-29.5-29-44T796 1388q0-28 10.5-52.5t29-43T879 1263t53-11q29 0 54.5 11t44 29.5 29.5 43 11 52.5z" fill="#000000"></path></svg>