<?xml version='1.0' encoding='utf-8'?>
<svg xmlns="http://www.w3.org/2000/svg" viewBox="0 0 2231 2041" width="437" height="400"><path d="M733 703q57 18 106 54t86 84.5T983 948t21 121q0 66-21 124.5t-58 106-86 81.5-106 51q-27 10-48.5 4.5t-39-17-28-28T603 1362q-17-71-32-142.5T556 1069q0-82 15-152.5T603 774q4-15 14.5-30.5t28-27.5 39-17 48.5 4zm-24 589q0 8 9 14t27-3q62-36 101-95.5t39-138.5q0-36-10-71t-29-65.5-45-56-56-42.5q-12-8-20-3.5t-12 9-4 5.5q-17 52-20.5 106.5T685 1069q0 62 3.5 115.5T709 1292zm-553 341l-36-118 366-129 11 12q0 17 15 42t32 51zM50 1139v-130h389v130H50zm70-518l36-106 388 141q-27 18-37 41.5T497 738q-8 0-9.5 7t-1.5 17zm1991 0l-366 141q0-10-6-17t-6-15.5-14.5-32T1685 656l390-141zm70 518h-401q8-17 9.5-35t1.5-35-1.5-30-9.5-30h401v130zm-106 494l-390-142q19-26 33.5-51t14.5-42l12-12 366 129zm-553-341q8-54 15-107.5t7-115.5q0-63-7-117.5T1522 845q0-1-4-5.5t-12-9-19 3.5q-32 17-58 42.5t-45 56-29.5 65.5-10.5 71q0 79 40.5 138.5T1487 1303q17 9 26 3t9-14zm-24-589q26-9 48-4t38 17 27.5 27.5T1628 774q18 72 26.5 142.5t8.5 152.5q0 79-8.5 150.5T1628 1362q-5 13-16.5 29.5t-27.5 28-38 17-48-4.5q-58-17-108-51t-86-81.5-56.5-106T1227 1069q0-63 20.5-121t56.5-106.5 86-84.5 108-54z" fill="#000000"></path></svg>