<?xml version='1.0' encoding='utf-8'?>
<svg xmlns="http://www.w3.org/2000/svg" viewBox="0 0 1929 2041" width="378" height="400"><path d="M1884 1314q3 10 4 21t1 23q0 65-41.5 123T1740 1582t-148 68-163 25q-64 0-119.5-15.5t-96-43.5-64-67.5-23.5-88.5q0-57 36-113t98.5-101 147-73 180.5-28q88 0 154 26h-2V205L799 353v1128q1 7 1 14v13q0 67-40.5 124.5t-105.5 100-147 67-166 24.5q-64 0-119-15t-95.5-42.5T63 1700t-23-87q0-58 35-115.5t97.5-102.5 147.5-73 184-28q42 0 81.5 7.5T660 1321V227L1884 34v1343q-1-19-1-34v-33q0 2 1 4zM623 1584q21-20 30.5-39.5t9.5-34.5q0-17-12.5-31.5t-34.5-25-50.5-16.5-61.5-6q-68 0-127.5 18.5T273 1495t-69 58-25 56q0 14 9.5 28.5t29.5 26 50.5 19 72.5 7.5q38 0 78-8.5t77.5-23T567 1625t56-41zm1088-153q19-18 30-38t11-37q0-16-13-29.5t-35.5-23.5-52.5-15-63-5q-69 0-128.5 18.5t-102.5 46-67.5 58-24.5 54.5q0 15 11 28.5t32 24.5 51.5 17.5 69.5 6.5q40 0 80.5-7.5t77.5-21.5 69-33.5 55-43.5z" fill="#000000"></path></svg>