<?xml version='1.0' encoding='utf-8'?>
<svg xmlns="http://www.w3.org/2000/svg" viewBox="0 0 1872 2041" width="367" height="400"><path d="M936 120q-162 0-314 64-72 30-136 73.5T366 357t-99.5 120T193 613q-64 151-64 314t64 314q30 72 73.5 136t99.5 120q111 113 256 173 152 64 314 64 163 0 314-64 145-60 256-173 112-110 174-256 31-75 47-153.5t16-160.5-16-160.5-47-153.5q-62-146-174-256-56-56-120-99.5T1250 184q-151-64-314-64zm0-89q124 0 238.5 32t214 90.5 181 140 140 181 90.5 214 32 238.5-32 238.5-90.5 214-140 181-181 140-214 90.5-238.5 32-238.5-32-214-90.5-181-140-140-181-90.5-214T40 927t32-238.5 90.5-214 140-181 181-140 214-90.5T936 31zm70 1569q-19 3-33 4.5t-28.5 1.5-30.5-1-39-3q-31-3-56-9t-48-17.5-45-28.5-47-42q-52-51-85.5-108.5T538 1267l-16-53-24-5q-12-3-19.5-5.5T464 1197t-14.5-11-17.5-18q-21-24-39.5-58.5t-31-72.5-18-75-1.5-64q5-32 19.5-48t43.5-24l17-4 1-61q1-51 7-89.5t21-81.5q22-61 58.5-114.5t84-96.5 105-73.5T820 260q84-19 169.5-9t163.5 48q69 34 123 83.5t91.5 110 56.5 131 18 146.5l-1 52 17 2q17 2 27 8t22 20q17 20 19 57.5t-7.5 82.5-30.5 90.5-51 81.5q-31 39-68 43-8 1-14.5 3.5t-7.5 5.5q-2 2-7 17t-10 33q-14 45-35 88t-48 81-58 69.5-64 53.5q-15 9-27.5 16t-26 11.5-29 8-36.5 6.5zm-161-54q9 2 38 2.5t62 .5q25 0 41-1t27.5-2 19-3 15.5-5q40-15 78.5-47t71-76.5 57-98.5 38.5-113q4-18 8.5-33t6.5-18q11-13 41 1 14 6 22.5 2t27.5-25q8-10 17.5-25.5t18.5-34 17-38 13-36.5q10-36 10.5-68.5T1466 882q-18-24-36-4-15 16-31.5 9.5T1382 859q0-7-1-12t-2-7q-2-2-12 2.5t-23 11.5q-14 8-23.5 13t-10.5 5q-2 0-2-5v-12l1.5-12.5 7-11 15-11L1357 807l31-16 2-32q2-50-12-106t-40-107q-44-84-120.5-145T1047 314q-12-3-22-5t-22.5-3-29.5-1.5-44-.5q-28 0-45 .5t-29 2-21.5 4T811 317q-82 25-148 72.5T552 506q-38 56-55.5 112T479 737v54l33 17q13 7 24.5 13.5T552 831q3 3 5 8t2.5 11 0 11.5-2.5 7.5q-1 1-11-3.5T522 854q-14-8-24-12t-12-3q-4 4-2 19 2 11 .5 15.5T475 884q-10 8-17.5 6.5T436 878q-12-10-15-10-7 0-15.5 9.5T394 899q-6 22 0 57t19.5 72.5T446 1099t39 50q19 18 37 3 9-6 18.5-6t15.5 8q3 3 7.5 16t8.5 27q12 48 25.5 86t30.5 69.5 38.5 59.5 49.5 56q66 68 129 78zm-42-425q-9 5-26.5 7.5t-37 3.5-37.5-.5-28-4.5q-29-10-51-29.5t-34-45.5q-2-6-3.5-13t-3-19.5-2-31.5-1.5-49q-3-95 2-102 2-3 12.5-5.5t32-4T680 825t80-1q63 0 86 1t26 5q1 2 2.5 16.5t2 36.5.5 47-.5 48-1.5 40-2 22q-8 26-27 48t-43 33zm-119-26q3 1 16.5 1.5t28.5 1.5q23 0 34.5-2t25.5-8q20-9 34-26.5t20-39.5q2-6 2.5-31.5t0-54-2-51.5-3.5-25q-1-1-16-1.5t-38-.5h-49l-50 .5-41 1.5-21 2-16 4 2 78q1 31 2 50.5t3.5 32 7 20.5 11.5 16q8 9 24 19.5t25 12.5zm96-23q-9 4-22.5 6t-27.5 2.5-27.5-1.5-21.5-5q-15-7-29-21t-18-26q-2-6-4-29t-3-49l-3-64 12-5q4-2 19-3t35-2 42.5-1 41.5.5 32 1.5 15 3q3 3 4.5 21t2.5 40 .5 43-3.5 31q-11 43-45 58zm433 46q-16 8-28 10.5t-40 3.5q-51 1-81.5-11t-50.5-41q-9-13-14-23t-7-25-2.5-39 .5-64q0-41 1-70.5t2-31.5 22.5-3 53.5-1 68.5 1 68.5 2.5 54 3.5 24 4q2 1 2 29.5V931q0 41-1 65.5t-4 41-9.5 27-16.5 22.5q-7 8-19 17t-23 14zm-121-24q4 2 17.5 2.5t29.5 1.5q25 0 35.5-1.5t23.5-9.5q17-8 31-22t20-30q3-6 4.5-29.5t2.5-61.5l2-78-16-4q-5-1-22.5-2t-41-1.5-50-.5H1080l-37.5 1-16.5 2-2.5 23.5-2.5 53.5v38.5l.5 25.5 2 16.5 3.5 12.5q18 47 65 63zm98-23q-11 6-21.5 8t-30.5 2q-38 0-60-13t-33-40q-3-8-5-30t-2.5-46 1-44 4.5-24q4-5 14.5-6.5t39.5-3.5q19-1 43-.5t45 2 36 3.5 17 5q6 6 1 74-1 26-2 40.5t-2.5 22.5-4.5 13-8 11q-5 7-14.5 14.5T1190 1071zm-628-89q2 30 1.5 38t-4.5 8q-6 0-13-7.5t-12-18.5q-3-8-7-28t-7-41.5-5-38-1-18.5q4-4 25 9 14 10 17 14.5t3 17.5q0 8 1 27zm761 38q-11 13-15.5 8t-4.5-31q0-14 1-33t2-33l3-33 20-13q8-5 14.5-8t8.5-1q1 1 .5 13.5t-3 29.5-6 36-7.5 34q-2 10-6 19t-7 12zM972 917q-1 4-38 6-23 1-29.5 0t-8.5-6q-3-7 9-18 13-11 29.5-10.5T962 900q5 5 8 10t2 7zm-1-45q-4 4-38 4-28 0-34.5-4t.5-17q3-7 12-10t19.5-3 20 3 14.5 10q8 11 6 17zm-337-63q-12 1-26.5 2t-24.5 2q-14 2-21 0t-21-11q-9-5-14.5-9.5T522 786q1-1 11.5 0t26.5 2.5 34 3.5 33.5 4 26 4 10.5 3-8.5 2.5T634 809zm689-5q-14 8-22.5 9.5t-25.5-.5q-4-1-15-2t-23-2q-12-2-20.5-3.5t-8.5-2.5q0-2 13.5-4.5t33.5-4.5q19-2 39-4t28-4q40-5 1 18z" fill="#000000"></path></svg>