<?xml version='1.0' encoding='utf-8'?>
<svg xmlns="http://www.w3.org/2000/svg" viewBox="0 0 1850 2041" width="363" height="400"><path d="M1810 1819H40V31h1770v1788zM104 95v1658h1642V95H104zm412 316h411q60 0 103.5 2t76 7.5 58 16T1215 465q48 33 79.5 86t31.5 119q0 75-39.5 134T1183 893q93 27 143 93t50 155q0 54-18 104t-51.5 89.5-81.5 66-109 32.5q-26 3-88.5 4.5T865 1440H516V411zm207 172v238h136q62 0 99-1t51-3q53-6 84-36t31-81q0-49-27-78t-78-35q-15-2-58.5-3T842 583H723zm0 409v273h192q113 0 143-6 45-8 75-39.5t30-88.5q0-45-22.5-78t-65.5-47q-21-7-67-10.5T890 992H723z" fill="#000000"></path></svg>