<?xml version='1.0' encoding='utf-8'?>
<svg xmlns="http://www.w3.org/2000/svg" viewBox="0 0 1930 2041" width="378" height="400"><path d="M1743 216q-13-23-35.5-35.5T1661 168q-19 0-36 8t-30 21-20.5 30-7.5 36q0 18 7.5 35t20 30 29 20.5 35.5 7.5q17 0 34-6.5t30.5-19 22-30 8.5-39.5q0-25-11-45zm115-48q11 20 16.5 43.5t5.5 47.5q0 50-18.5 90.5t-49 69.5-70 45-80.5 16q-44 0-84-16.5t-70-45.5-48-69-18-87q0-40 15.5-79.5t44-70 69-49.5 90.5-19q32 0 62.5 9t56.5 25.5 46 39 32 50.5zM618 756h191l-375 381L53 762h189V384h335l37-4zm1083-179q25 7 46 21.5t36.5 35 24.5 44 9 48.5q0 17-5 42l-165 614q-16 60-54 108.5t-88.5 82.5-108.5 52-114 18q-57 0-103-13l-290-56q-29-8-54-8-37 0-67 18l-269 161q-21 13-41.5 26t-41.5 23-43.5 16-47.5 6q-33 0-70-13.5t-69-37-53-56-21-70.5q0-32 24-56l293-181 296-175q29-15 62-27t68-12q15 0 32 3l247 46q37 0 55-31l94-332 34-126q10-39 36.5-73t61.5-59.5 76-40 80-14.5h15q31 0 58.5 5.5T1701 577zm-30 122q-22-3-42.5-8.5T1585 685q-22 0-45.5 7t-44.5 20.5-37 32.5-22 42l-119 435q-53 140-183 140h-11q-7 0-10-1l-260-49q-3-1-9-1h-8q-30 0-60 14l-477 284q-6 6-15 10.5t-18 9.5-15 12.5-6 19.5q0 11 7.5 20t19 15 25 9.5 25.5 3.5q20 0 38-8l389-233q20-14 45-19t51-5q35 0 75 8l294 57q18 4 36.5 6.5t37.5 2.5q36 0 74-12.5t71-35.5 58-54.5 36-70.5l163-607 2-12q-1-8-7-15.5t-14-11.5z" fill="#000000"></path></svg>