<?xml version='1.0' encoding='utf-8'?>
<svg xmlns="http://www.w3.org/2000/svg" viewBox="0 0 1883 2041" width="369" height="400"><path d="M942 36q125 0 241 31.5t216 89.5 182 139 140 179.5 90 211.5 32 235q0 125-32 241t-90 216-140 182-182 140.5-216 90.5-241 32q-122 0-236.5-32T491 1701.5 308 1561t-142.5-182T73 1163.5 40 922q0-122 33-235t92.5-211.5T308 296t183-139 214.5-89.5T942 36zm532 353q-11-10-22.5-21.5L1429 345l-236 252q5 6 10.5 11t9.5 10 9 9l252-238zm-208 533q0-61-25.5-117t-70-99-103.5-68.5T942 612q-67 0-123.5 25.5t-98 68.5-65 99T632 922q0 67 23.5 126t65 103.5 98 70.5 123.5 26q66 0 125-26t103.5-70.5 70-103.5 25.5-126zm-1079 0q0 134 41 251.5T335 1379l297-190v14q-45-56-75-123.5T527 922q0-83 33.5-155.5T651 640t132.5-85.5T942 523q55 0 108.5 11t97.5 34l148-310q-153-89-354-89-104 0-200 27t-180 76.5T409 391 290.5 543.5 214 723t-27 199zm207 518q6 6 11.5 13.5t11.5 14 11.5 11.5 10.5 5l237-252q-11-11-22.5-14.5T632 1203l-238 237zm548 251q107 0 205.5-27t184-77 155.5-120 120-155.5 77-184 27-205.5q0-66-13.5-131.5T1660 664t-56.5-115.5T1533 450l-281 191q45 57 74 130t29 151q0 89-31.5 164.5t-87 131-131 87T942 1336q-57 0-109.5-13t-97.5-46l-163 310q78 45 173.5 74.5T942 1691zm0-975q44 0 81.5 17.5T1089 780t43.5 66 15.5 76q0 45-15.5 82.5T1089 1070t-65.5 43.5T942 1129q-39 0-76-15.5t-66.5-43.5-47-65.5T735 922q0-39 17.5-76t47-66 66.5-46.5 76-17.5zm0 369q33 0 62.5-13t51.5-35.5 35-52 13-62.5-13-60-35-46.5-51.5-30.5-62.5-11-63 11-52 30.5-35 46.5-13 60 13 62.5 35 52 52 35.5 63 13z" fill="#000000"></path></svg>