<?xml version='1.0' encoding='utf-8'?>
<svg xmlns="http://www.w3.org/2000/svg" viewBox="0 0 1749 2041" width="343" height="400"><path d="M661 1360L382 707l97-32 289 685h781q16 0 29.5-14.5t13.5-39.5V632q0-16-13.5-29.5T1549 589H211q-25 0-39 13.5T158 632v674q0 25 14 39.5t39 14.5h450zm128 364q0-8 1.5-21.5t9.5-21.5l-97-225H211q-33 0-61.5-11t-51-31.5-35.5-48-13-59.5V632q0-32 13-59.5T98.5 525t51-31.5T211 482h1338q32 0 59.5 11.5t48 31.5 31.5 47.5 11 59.5v674q0 32-11 59.5t-31.5 48-48 31.5-59.5 11H821l75 183q33 7 48.5 30t15.5 55q0 40-22.5 68t-63.5 28q-16 0-31-7.5t-27.5-20.5-19.5-30.5-7-37.5zm32-825h107v140H821V899zm0 225h107v150H821v-150zm0-449h107v139H821V675zm675-311v22h-107v-22q0-32-7-62t-15-55l75-65q24 40 39 87t15 95zm-97-235l-86 64q-24-24-50.5-39t-66.5-15V33q57 7 110 31t93 65zm-278-96v106q-32 0-62.5 15t-54.5 39l-76-64q80-80 193-96zM874 182l86 65q-16 25-24 55t-8 62v22H821v-22q0-32-8-62t-24-55zM629 33q64 7 113 31t90 65l-86 64q-25-24-55-39t-62-15V33zm-268 96q80-80 192-96v106q-32 0-62 15t-55 39zM254 364q0-48 14-95t39-87l86 65q-16 25-24 55t-8 62v22H254v-22z" fill="#ffffff"></path></svg>