<?xml version='1.0' encoding='utf-8'?>
<svg xmlns="http://www.w3.org/2000/svg" viewBox="0 0 1158 2041" width="227" height="400"><path d="M106 1660q81-28 168-51 75-19 167-35t185-16q76 0 153 17t140 37q73 24 141 54v155H111zm873-233v-62q0-109-7-194.5t-19-151-27-113-31-80.5q-37-77-84-104H405q-32 0-57.5 31.5T302 836t-35.5 116.5T240 1086q-26 160-39 364H40v-20q0-157 14.5-278T93 940t54.5-154T210 681q75-99 170-120h431q69 0 119 41.5t84 109 54.5 153T1100 1037t14.5 167.5 3.5 138.5q0 23-.5 41t-.5 32q-1 16-1 28H983z" fill="#ffffff"></path></svg>