<?xml version='1.0' encoding='utf-8'?>
<svg xmlns="http://www.w3.org/2000/svg" viewBox="0 0 4602 2041" width="902" height="400"><path d="M3629 1403l52 136q7 18 7 40 0 31-16 58l-64 111-100-57 56-97q2-5 4-10.5t2-10.5-.5-8.5-2.5-7.5l-57-154q-83 6-163 27l41 109q3 9 5.5 20t2.5 20q-2 32-16 58l-64 111-100-57 54-97q7-12 7-21 0-8-3-16l-33-91q-41 17-79 36.5t-74 44.5l-491-853q205-158 454-246.5t528-88.5q138 0 270.5 23t256.5 66 238.5 105T4562 694l-498 861q-51-36-109-65l18 49q3 9 5.5 20t2.5 20q-2 32-16 58l-63 111-102-57 56-97q2-5 4-10.5t2-10.5q0-8-3-16l-46-121q-44-14-90-22t-94-11zm20-568l44 181q3 14 3 28 0 35-15 60l-86 146q-5 9-6 21 45 1 89 5.5t87 13.5q-1-8-1.5-14.5t-.5-12.5q0-28 15-54l88-151q7-11 7-23 0-9-1-13l-47-187h-50q-8 0-8-7 0-5 5-12l102-230q2-6 6-6 3 0 6 6l99 230q4 8 4 12 0 7-7 7h-40l44 181q3 14 3 28 0 33-15 60l-85 146q-7 11-7 22 0 9 3 16l15 38q31 11 62 24.5t60 28.5l385-666q-180-120-388-185.5T3579 462t-440.5 65.5T2751 713l381 660q16-8 33-15.5t34-14.5l-12-30q-9-22-9-46 0-32 15-58l88-151 4-12 2-11-2-13-45-187h-49q-8 0-8-8 0-3 4-11l100-230q2-6 6-6 3 0 6 6l101 230q4 8 4 13 0 6-7 6h-40l43 181q2 7 3 14t1 14q0 33-15 60l-86 146q-7 8-7 22 0 5 .5 8.5t1.5 7.5l8 18q40-11 81.5-18t83.5-12v-7q0-17 3.5-31.5t11.5-28.5l89-151q5-13 5-23 0-9-1-13l-46-187h-49q-8 0-8-7 0-4 4-12l101-230q2-6 6-6 3 0 5 6l100 230q5 7 5 12 0 7-8 7h-40zM40 729h299l115 447 113-447h299v734H680V903l-143 560H369L226 903v560H40V729zm1421 613h-257l-37 121H936l277-734h247l275 734h-238zm-48-158l-80-264-79 264h159zm344-455h249l131 225 125-225h247l-227 356 249 378h-254l-144-235-146 235h-253l253-383z" fill="#000000"></path></svg>