<?xml version='1.0' encoding='utf-8'?>
<svg xmlns="http://www.w3.org/2000/svg" viewBox="0 0 2032 2041" width="398" height="400"><path d="M50 934q0-200 72-377t206-311l134 133Q351 480 289.5 623.5T228 934q0 168 61.5 307.5T462 1489l-134 133q-134-134-206-310T50 934zm256 0q0-146 56-273t153-222.5T741 289t275-54 273.5 54 222 149.5 149 222.5 54.5 273q0 97-25 186.5t-70 167-108.5 141.5-141.5 109.5-167 70.5-187 25q-97 0-187.5-25T659 1538.5 515.5 1429t-112-141.5-72.5-167T306 934zm1387-688q67 67 120 145.5t90.5 165.5 58 182 20.5 195-20.5 195-58 182.5-90.5 166-120 144.5l-122-133q109-108 171-247.5t62-307.5q0-167-62-306.5T1571 379zM416 934q0 120 47 227.5T591.5 1349 782 1475.5t234 46.5q80 0 155-21t140.5-59.5T1431 1349t93-119 59.5-140.5T1604 934q0-120-46-227.5t-126.5-187-187.5-127-228-47.5q-83 0-160 21.5t-143.5 60-121 92.5-93 119.5-60.5 140T416 934zm478-44h177q3 0 14.5-.5t28-4 34.5-12 33.5-23 25-37.5 9.5-56q0-34-9.5-56.5t-25-37.5-33.5-23-34.5-11.5-28-4-14.5-.5H894v266zm-111 455V524h267q59 0 111 11t91.5 38.5 63 72T1339 757q0 63-25.5 105.5t-66 69.5-92 40.5T1050 990H894v355H783z" fill="#000000"></path></svg>