<?xml version='1.0' encoding='utf-8'?>
<svg xmlns="http://www.w3.org/2000/svg" viewBox="0 0 1133 2041" width="222" height="400"><path d="M592 39q103 0 194.5 39.5T946 186t107.5 159.5T1093 541v595q0 104-39.5 195T946 1490t-159.5 107.5T592 1637h-51q-104 0-195-39.5T187 1490 79.5 1331 40 1136V541q0-104 39.5-195.5T187 186 346 78.5 541 39h51zM82 1136q0 95 36 178.5t98.5 146 146 98.5 178.5 36h51q95 0 178.5-36t146-98.5 98.5-146 36-178.5V541q0-95-36-178.5t-98.5-146-146-98.5T592 82h-51q-95 0-178.5 36t-146 98.5-98.5 146T82 541v595zm445-873l299 355q-38 34-78 69-34 30-75.5 67T593 825q39 35 81 72.5t77 68.5q40 36 80 71l-304 384V884l-288 256q-6 6-14 6t-14.5-6.5-6.5-15.5q0-10 7-16 46-41 99-88 45-40 101.5-90T527 827v-4q-61-54-119-106t-104-94q-54-48-103-92-8-6-8-15 0-8 7-14.5t15-6.5 13 5q45 39 94 83 42 38 95 85.5T527 766V263zm43 527q34-31 68-61t61.5-54.5 45.5-41 22-19.5q-8-9-32.5-38.5t-55-65.5-60.5-72-49-59v411zm0 510q19-25 50.5-65l63-80 57-72 32.5-41q-4-3-22.5-20t-47-42.5-63-56T570 861v439z" fill="#000000"></path></svg>