<?xml version='1.0' encoding='utf-8'?>
<svg xmlns="http://www.w3.org/2000/svg" viewBox="0 0 910 2041" width="178" height="400"><path d="M860 668q0-35-1.5-78.5t-8.5-91-20-98-36-99.5q-25-54-57.5-92.5T665 146t-81.5-35.5T499 99q-98 0-179.5 55.5t-142 163-94 267T50 954q0 60 4.5 134t17 151.5 35 155T164 1541q26 46 58 85t75 66.5 99 43.5 130 16q62 0 112-10.5t89.5-26.5 69.5-33 52-33V851H458v311h153v273q-15 5-38 9.5t-57 4.5q-60 0-97-30.5t-65-89.5q-18-39-30-89t-17-103.5-7-104.5-2-89q0-54 3-116t11-123 22.5-116.5T371 490t52.5-67 71.5-25q11 0 24 3.5t27.5 14 28 31T598 500q7 15 9.5 36t4.5 44 2.5 45.5T616 668h244z" fill="#ffffff"></path></svg>