<?xml version='1.0' encoding='utf-8'?>
<svg xmlns="http://www.w3.org/2000/svg" viewBox="0 0 1983 2041" width="389" height="400"><path d="M884 1445q0-21 8.5-39.5t23.5-33 35-22.5 44-8q21 0 40.5 8t33.5 22.5 22.5 33 8.5 39.5-8.5 40-22.5 33-33.5 22.5-40.5 8.5q-24 0-44-8.5t-35-22.5-23.5-33-8.5-40zm103-829q24 0 44.5 9t35.5 24.5 24 37.5 9 48v432q0 24-9 45.5t-24 38-35.5 26-44.5 9.5q-21 0-39.5-9.5t-33-26-22.5-38-8-45.5V735q0-26 8-48t22.5-37.5 33-24.5 39.5-9zm929 1037q9 15 13 28t4 23q0 48-84 48H128q-78 0-78-41 0-20 19-54L935 162q32-52 60-52 29 0 60 52zM995 393L302 1598h1391z" fill="#e4002c"></path></svg>