<?xml version='1.0' encoding='utf-8'?>
<svg xmlns="http://www.w3.org/2000/svg" viewBox="0 0 2178 2041" width="427" height="400"><path d="M764 342q14 73 50.5 135.5t90 108.5 122 72.5T1172 685t146-26.5 123-72.5 91-108.5 51-135.5H764zm1374-112v112h-443q-12 94-57 177t-114.5 145-159.5 98-192 36q-101 0-190-36t-158.5-98T709 519t-57-177H72V230h2066zM1105 910h172l-533 522q-26-8-54.5-24t-60.5-33zm-261-90q26 17 52.5 33t61.5 24l-443 443q-24-18-50-34.5t-52-34.5zM662 661q18 26 37 46t45 46l-433 430q-25-17-49-35t-41-44zM550 424q8 32 18 65t27 58l-476 477q-18-26-40-44.5T40 944z" fill="#000000"></path></svg>