<?xml version='1.0' encoding='utf-8'?>
<svg xmlns="http://www.w3.org/2000/svg" viewBox="0 0 1527 2041" width="299" height="400"><path d="M1124 78q34-6 65-6 52 0 94.5 14.5t75 36 56 46.5 38.5 47 22 36.5 7 15.5l5 15-316 354q-39-12-78-24.5t-72-23.5-56.5-19.5T932 557q-11 7-42.5 29T815 645.5t-92.5 92T626 863t-86.5 159.5T477 1218q0 8 10.5 28t27 46.5T552 1349t42 57l11 14-218 404-18-4q-3-1-26.5-6t-57-16.5-73-29.5-74.5-44.5-61-61.5-33-80q0-2-.5-13t-1.5-24-1.5-24.5-.5-15.5q0-58 8-144t29-187.5T135 960t94.5-223.5T368 520t190-193 249.5-153T1124 78zM97 1574q7 46 41 79.5t76 56 83 36 63 19.5q4-8 18-34.5t33.5-62 41-75.5 40.5-75.5 32.5-61T542 1424q-21-28-42-58t-37.5-58-27-52-10.5-41q0-2 .5-3.5t.5-3.5q26-120 71.5-218.5t98.5-176T704.5 679 806 584t76.5-57 33.5-21l10-6q36 13 72 25l67.5 22.5 55 18L1155 577q5-6 25.5-29t49.5-55 61-68 61-68 49.5-55 25.5-29q-8-14-25.5-39t-46.5-49.5-70.5-42.5-96.5-18q-2 0-10 1t-17 1.5-17 1.5-11 1q-169 29-303.5 91T590 366.5t-182.5 186-133 208.5-91 215-56 206-28 180-7.5 138q0 25 1 43.5t4 30.5z" fill="#000000"></path></svg>