<?xml version='1.0' encoding='utf-8'?>
<svg xmlns="http://www.w3.org/2000/svg" viewBox="0 0 2032 2041" width="398" height="400"><path d="M1022 336q-84 0-161 21t-143 59.5-120 92T505.5 628t-59 142.5T426 931q0 81 20.5 156.5t59 141.5 92.5 121 120 93.5 143 60.5 161 22q80 0 155.5-22t141.5-60.5 121-93.5 94-121 60.5-141.5T1616 931q0-125-47.5-234t-129-189-189-126-228.5-46zM322 931q0-99 25-190t70-170 109-143.5 142-110 167.5-71T1022 221q96 0 185 25.5t167 71 142 110T1625 571t70.5 170 25.5 190q0 97-25.5 186.5t-70.5 167-109 141.5-142 109.5-167 70.5-185 25q-97 0-186.5-25T668 1535.5 526 1426t-109-141.5-70-167T322 931zm240-261q8-12 20-28.5t33-26.5 51.5-7 73.5 30q101 59 192.5 89.5t160.5 45 111.5 20T1251 806q16 50 50 93t71.5 76.5 73 56.5 55.5 35q5 5-.5 22.5t-19 41.5-33 51-41 50.5-42.5 41-40 22.5q-5 0-7.5 5.5t-3 10.5-.5 6l-52 63-240-221 31-41q-26-26-51-44t-60-35-77-25q-11-3-11-11L510 702l20-21 11 10q0-8 6.5-10.5T562 670zm-94 814l-125 136q-67-66-121-145t-92.5-167-59-183T50 931q0-101 20.5-196.5t57.5-182 89.5-162T332 252l136 126Q358 488 298 627t-60 304q0 83 16.5 160.5t47.5 148 73 132.5 93 112zm1514-553q0 198-73.5 371T1701 1609l-137-135q110-103 170-244t60-299q0-165-58.5-304T1575 378l136-126q63 67 113 144.5t85.5 164 54 180T1982 931z" fill="#000000"></path></svg>