<?xml version='1.0' encoding='utf-8'?>
<svg xmlns="http://www.w3.org/2000/svg" viewBox="0 0 2146 2041" width="421" height="400"><path d="M1194 1511q0 25-9.5 47t-26 38.5-38.5 26-47 9.5-47-9.5-38.5-26-26-38.5-9.5-47 9.5-47 26-38.5 38.5-26 47-9.5 47 9.5 38.5 26 26 38.5 9.5 47zM128 863l-88-89q201-201 464-313 272-115 569-115 295 0 569 115 263 112 464 313l-89 89q-95-94-204-167.5t-229-123-249-75.5-262-26q-134 0-263 26t-249 75.5-229.5 123T128 863zm259 259l-88-89q77-77 166.5-137t188-100.5 204-61.5 215.5-21q220 0 419 82.5t355 237.5l-89 89q-138-139-314-211.5T1073 838t-371.5 72.5T387 1122zm255 254l-89-88q105-105 238.5-160t281.5-55 281 55 238 160l-88 88q-87-87-198-132.5t-233-45.5q-123 0-233.5 45.5T642 1376z" fill="#000000"></path></svg>