<?xml version='1.0' encoding='utf-8'?>
<svg xmlns="http://www.w3.org/2000/svg" viewBox="0 0 2042 2041" width="400" height="400"><path d="M427 936q0 81 21 155.5t60 140 92 120 119 92.5 141 59 154 21q81 0 156-21t140-59 119-92.5 92.5-120 60-140T1603 936q0-121-46.5-227.5t-127-186.5T1242 395.5 1014 349q-119 0-226.5 46.5T600 522 473.5 708.5 427 936zm-112 0q0-96 25.5-185.5t70.5-167T520 442t141.5-109 167-70 185.5-25q98 0 187.5 25t167 70T1510 442t109 141.5 70 167 25 185.5q0 98-25 187.5t-70 167.5-109 141-141.5 108.5-167 70.5-187.5 25q-96 0-185.5-25t-167-70.5T520 1432t-109-141-70.5-167.5T315 936zm600 345q0-17 9.5-33t23.5-28 31.5-20 34.5-8q21 0 40 8t32 20 21 28 8 33q0 42-29 71t-72 29q-17 0-34.5-8t-31.5-21.5-23.5-32-9.5-38.5zm99-799q21 0 40 9.5t32 25 21 35.5 8 41v399q0 51-29 81t-72 30q-41 0-70-30t-29-81V593q0-21 8-41t21-35.5 31-25 39-9.5zm688-233q67 67 120.5 145t91.5 165.5 58 182.5 20 194q0 101-20 196t-58 182.5-91.5 165.5-120.5 144l-133-133q109-108 171-248t62-307-62-306-171-248zM50 936q0-99 20-194t56.5-182.5 87-165.5T327 249l133 133q-54 49-97 111t-73.5 133-46 149T228 936q0 167 61.5 307T460 1491l-121 133q-68-66-121-144t-90.5-165.5T70 1132 50 936z" fill="#e4002c"></path></svg>