<?xml version='1.0' encoding='utf-8'?>
<svg xmlns="http://www.w3.org/2000/svg" viewBox="0 0 2131 2041" width="418" height="400"><path d="M2083 1739q16 28 0 55-8 14-20.5 21t-26.5 7H96q-33 0-49-28-15-26 0-55L1018 59q16-28 47-28 15 0 28 7t20 21zm-1893-27h1751L1066 203zm500-208q-2 4-2 11 0 4 2 7t4 5q4 4 7 3t5 5q2 4 3.5 5.5t2.5 5.5 3.5 5.5 4.5 3.5q3 2 8 1.5t10-.5 7 1 6-3q2-3 3.5-5t3.5-5q2-2 3-5t4-5q3-3 6.5-3h8.5q8 0 15-4 2-2 3.5-5.5t3.5-5.5q6-5 8-11l1-1h146v100H463v-100h227zm433 71q0-15 9-30t23-27 31.5-19.5 35.5-7.5q14 0 28-4t18-9q5-6 4-13t-11.5-18-32-27.5-56.5-41.5l-62-43H987q-45 0-70-.5t-38.5-3-19-7.5-11.5-14q-10-15-11-24.5t6-23.5q4-9 10-13.5t24-6 54-1 101 1.5q53 1 88 2.5t55.5 3.5 29 5 10.5 8q-3 15 2.5 28.5t16.5 22.5 26.5 12 30.5-3q10-4 22.5 1.5t24.5 17.5q8 16 22 20.5t26 0 18.5-17 .5-30.5q-6-15 .5-22.5t16.5-7.5q8 0 32-11t52-27l65-35 53 94q22 39 37 67.5t13 29.5q-1 2-16 9.5t-40.5 19.5-59 27.5-70.5 32.5q-51 24-90 41t-70 29-56.5 19.5-48.5 11.5q-40 6-60.5 9.5t-29.5 2-9.5-8-.5-20.5zm142-690l1 6-16 4-1-7-275 59h-11q-19 0-34.5-11.5T910 905q-2-10-.5-20.5T918 866q5-9 14-15.5t20-8.5l273-59-1-5 17-4 1 6 2-1 23 105zm-22-16l-14-65-273 58q-14 3-22 14-1 2-1.5 3.5T931 882h246zm-139 201q13 16 10 38-2 20-17.5 33.5T1061 1155h-5l-281-30-1 7-17-2 1-7h-1l12-106 1 1 1-6 16 1-1 6 281 31q22 1 37 20zm-324 35l81 9h231q2-6 2-8 2-12-7-24-9-11-23-12l-278-30zm338 244l28 21-168 44q-22 4-31-6t-10-23.5 5-26 14-12.5zm-80 65l120-36 23 18-106 74q-14 8-27 3.5t-20.5-15-6-23.5 16.5-21zm233-467q4-23 12.5-22t13.5 22l21 96q3 13-7.5 20t-24 7.5-25-6-9.5-20.5zm-541 402q5-24 13-23t13 23l22 94q2 13-8.5 20t-24 7.5-24-6-8.5-20.5zm53-76q2 14-8.5 21t-24 7-24-6-8.5-20l18-96q5-23 12.5-22.5T761 1178zm483-113q5-23 13.5-22.5t13.5 22.5l22 95q2 13-9 20t-24 7.5-24-5.5-9-20z" fill="#000000"></path></svg>