<?xml version='1.0' encoding='utf-8'?>
<svg xmlns="http://www.w3.org/2000/svg" viewBox="0 0 2162 2041" width="424" height="400"><path d="M447 475h158l224 353v158L605 661l-18 29v657l-2 26q-3 33-11 62t-18.5 52.5T534 1528t-19 25q-43 37-101 56.5T296 1629h-13q-40 0-84.5-9t-83-27.5-65-47.5-30.5-70v-11q0-47 28.5-77.5t70-48 87.5-24 81-6.5q22 0 44 2.5t43 5.5l17 6q29 0 40.5-10t15.5-36V475zm655 408q-29 0-49-20t-20-50q0-27 20-47t49-20h972q29 0 48.5 20t19.5 47q0 30-19.5 50t-48.5 20h-972zm-220 371q-28 0-48.5-19.5T813 1187q0-29 20.5-49t48.5-20h1192q29 0 48.5 20t19.5 49q0 28-19.5 47.5T2074 1254H882zm0 373q-28 0-48.5-20.5T813 1558q0-29 20.5-48.5T882 1490h1192q29 0 48.5 19.5t19.5 48.5q0 28-19.5 48.5T2074 1627H882z" fill="#000000"></path></svg>