<?xml version='1.0' encoding='utf-8'?>
<svg xmlns="http://www.w3.org/2000/svg" viewBox="0 0 2327 2041" width="456" height="400"><path d="M642 1336l5-12 13-4h1006l12 4 6 12 4 64 7 34 18 32 30 22 35 12h35l35-12 29-22 18-32 7-34v-76l9-11 10-4h191l23-22 9-24-9-100-19-99-12-21-21-6h-66l-37-4-34-15-27-24-136-139-145-130-20-12-19-4h-474l-39 8-36 20-69 54-126-71 58-46 58-43 71-39 77-15h484l65 11 57 36 148 131 137 143 10 4h63l27 2 56 12 43 36 28 51 29 144 11 149-10 49-27 43-39 29-46 11-123 8-13 48-25 43-31 40-39 31-46 23-47 12h-50l-51-6-46-19-42-28-36-35-26-42-19-47H764l-18 47-26 42-36 35-41 28-47 19-50 8h-50l-49-14-46-23-38-31-32-40-24-43-14-48-121-8-35-7-31-16-28-26-19-31-9-36v-35l9-36 45-105 29-53 41-44 51-30 59-17 140-21 137-17 137 76-19 17-33 24-38 10-154 21-150 23-46 19-32 42-27 67 2 30 26 15 177 11 11 4 6 11v76l11 34 17 32 29 22 33 12h39l33-12 28-22 20-32 8-34zM57 889V703h498l71 7 68 18 63 29 221 130 48 18 51 6h418V780l233 224-233 224v-132h-414l-68-8-69-16-62-30-219-129-51-17-52-7H57z" fill="#000000"></path></svg>