<?xml version='1.0' encoding='utf-8'?>
<svg xmlns="http://www.w3.org/2000/svg" viewBox="0 0 578 2041" width="113" height="400"><path d="M179 899v763q0 8 6 14t14 6h180q8 0 14.5-6t6.5-14V899H179zm255-140q22 0 41 8.5t33 22.5 22 33.5 8 40.5v798q0 33-12.5 62t-34 50.5-50.5 34-62 12.5H199q-33 0-62-12.5t-50.5-34-34-50.5-12.5-62V864q0-21 8-40.5T70.5 790t33-22.5T143 759h291zm-62-322H207V316h165v121zm0 266H207V493h165v210zm0-603v160H207V135q0-17 9-35t22-33 27-25 24-10 24.5 10T341 67t22 33 9 35v-35z" fill="#000000"></path></svg>