<?xml version='1.0' encoding='utf-8'?>
<svg xmlns="http://www.w3.org/2000/svg" viewBox="0 0 2027 2041" width="397" height="400"><path d="M1792 78q18 4 38 8t36 12l34 18q32 24 53.5 56.5T1983 243l4 42v1312l-6 38q-8 38-28.5 67t-49 49-61.5 30.5-66 10.5H237q-41-3-76-19t-61-43.5-41.5-66T40 1575l9-4V990l14-74 27-71 49-64 642-623 64-41 70-25 73-12h652v-2h152zm46 171q-11-17-26-25t-32-8h-778q-74 4-130 47L241 874l-11 18q-3 9-3 17 0 26 13 40t34 18h161l448-418 52-39 57-21 56-12h802V303q0-17-2-30t-10-24zM214 1106l-12 2q-18 8-21 29l-1 442q0 27 17 51t46 24h1518q5 1 14 1 28 0 51.5-17t33.5-45v-461q-9-14-28-26H214z" fill="#000000"></path></svg>