<?xml version='1.0' encoding='utf-8'?>
<svg xmlns="http://www.w3.org/2000/svg" viewBox="0 0 1871 2041" width="367" height="400"><path d="M563 127q41-20 81.5-35T727 65q55-15 110.5-22T951 35q56 0 110.5 7.5T1172 64q55 13 107 34.5t103 47.5q49 30 93 63t88 75q42 40 78.5 86t65.5 98q29 51 52 103t37 107q14 56 24.5 110t10.5 107q0 56-6.5 110.5T1804 1117q-13 52-32.5 103t-45.5 98l86 43-280 205v-345l86 42q23-43 39-87t27-91q20-77 20-159 0-53-5-106t-20-107q-27-94-80-183-26-43-56-83t-68-76q-72-71-154-116-42-23-87.5-40t-92.5-29q-42-11-84.5-17.5T972 162q-77 0-153 12.5T657 224zm741 1597q-77 41-159 62-117 32-225 32-56 0-112-8t-108-24q-110-21-210-81-100-53-182-135-44-42-80.5-87t-66.5-96q-30-52-51-104.5T72 1174q-32-111-32-221 0-52 6-107t20-110q13-53 31-103.5t44-97.5l-82-43 279-206v349l-89-42q-20 41-36.5 84T185 768q-10 47-15.5 93t-5.5 92q3 47 9.5 93t17.5 93q15 51 33 94.5t44 88.5q26 44 58 83.5t67 73.5q75 72 155 118 43 24 88 40.5t94 30.5q47 14 93 18t93 4q99 0 194-23 26-6 52.5-16.5t52.5-18.5z" fill="#000000"></path></svg>