<?xml version='1.0' encoding='utf-8'?>
<svg xmlns="http://www.w3.org/2000/svg" viewBox="0 0 2198 2041" width="431" height="400"><path d="M1422 543H605q13 72 49.5 134.5t91 108.5 123 72 145.5 26q76 0 145-26t123-72 90.5-108.5T1422 543zM50 430h2064v113h-579q-13 94-57.5 176.5t-113.5 144-158.5 97.5-191.5 36-192-36-159-97.5-113.5-144T492 543H50V430zm1032 680l476 465q-34 17-61 33t-53 24l-533-522h171zm260-90l431 431q-26 17-51 34t-51 34l-442-443q34-8 60.5-23.5t52.5-32.5zm182-159l442 442q-17 26-41 44.5t-50 35.5l-431-431q26-26 44.5-45.5T1524 861zm113-238l511 521q-17 17-40 35.5t-40 44.5l-476-477q17-26 27-58t18-66z" fill="#000000"></path></svg>