<?xml version='1.0' encoding='utf-8'?>
<svg xmlns="http://www.w3.org/2000/svg" viewBox="0 0 1435 2041" width="281" height="400"><path d="M307 90V80q-6 23-7 40t-1 40 1 39 7 30q8 8 10 15 1 4 1 8 0 20-16 33.5T269 299h-29q-14-14-37.5-17.5T150 278h-20q-49 0-49-49 0-105 46-156.5T250 21h19q17 0 33 13t16 36q-3 2-6 6-5 7-5 14zm31 407q-4-25-16.5-50t-32-44-45-31-55.5-12h-59q-37 0-63.5 26.5T40 450q0 75 13 162.5T91 799q20 121 56 220.5t73 167.5q8 23 27 36t44 13h137q37 0 58-24.5t21-55.5v-88q-37-69-67-155.5T379 729q-14-60-27.5-118.5T338 497zm61 608q0 11-6 16.5t-14 5.5h10-90q-31-60-60-148.5T181 778q-17-85-29-156.5T140 489q0-8 7-13.5t24-5.5h36q23 0 23 19v20q8 61 21 121t30 128q15 52 32 99.5t33.5 87 30.5 71 22 52.5v37zm-71 220q-8 0-18.5 11.5T299 1356v10l80 178q13 29 42.5 50t67.5 21h90l-21 37q0 11-6 18.5t-6 15.5q-1 14 7 24t16 23l51 90 77-51-40-79q-8 0-8.5-6t-.5-13v-10l29-49h139l-19 37v52q-1 8 1.5 14.5t7.5 14.5l51 90 79-51-39-79q-3-2-6-6-6-6-6-13 0-2 2-5 5-5 10-5l19-59h141l-21 47v32q0 14 1 24.5t9 24.5l49 90 90-51-49-79q-3-2-5-6-5-5-5-13l10-10 18-59h90q48 0 80-26.5t40-63.5l31-190q0-21-9-41t-24.5-35.5-35.5-24.5-41-9q-53-6-86.5-7t-62.5-1l31-120h28q13 0 13-7 0-3-1-6t-1-6l-80-192h-10l-90 192q0 6 1 12.5t9 6.5h28l-28 120q-45 0-82.5 5t-68.5 13l41-138h41v-19l-82-192h-10l-88 192v19h41l-41 149v10q-31 8-64.5 20.5T657 1287l-9-21q-3-2-5-6-5-7-5-14l10-10 29-149h41q8 0 9-6.5t1-12.5l-90-192h-10l-82 192v19h41l-41 149v20q0 17 .5 29t11.5 20h11q-54 17-113 18.5t-128 1.5zm916 180h-49l11-31q0-6 5-14t5-16q0-14-6.5-26.5T1195 1397l-51-92q31 0 62 1t69 9h20l-31 180q0 8-6 9t-14 1zm-149 0H946l21-31q0-6 5-14t5-16q0-14-6-26.5t-14-20.5l-41-82h130l60 108q8 0 9 6.5t1 14.5v12zm-249 0H718l10-31q0-6 5-14t5-16q0-14-6-26.5t-14-20.5l-11-23q8 0 15.5-4t15.5-4q23-8 44-10t46-10l39 77q6 0 7 6.5t1 14.5v12zm-398-49q0-17 10.5-25t18.5-8q38-6 75-8t68-8l8 16q8 0 9 6.5t1 14.5v12l-18 49H467z" fill="#000000"></path></svg>