<?xml version='1.0' encoding='utf-8'?>
<svg xmlns="http://www.w3.org/2000/svg" viewBox="0 0 1708 2041" width="335" height="400"><path d="M1593 1434l-196-110v218h-151v-304l-323-187v367l258 136-70 135-188-107v236H772v-236l-189 107-67-135 256-129v-366l-311 179v289H314v-203l-198 110-76-127 204-119-190-107 68-138 274 158 305-178-312-182-255 149-80-121 190-109L40 541l78-133 196 116V308h147v302l311 177V424L530 294l67-136 175 94V30h151v222l188-94 82 124-270 142v373l323-185V320h151v204l194-116 77 133-203 119 188 109-79 121-252-149-312 182 307 176 257-141 66 123-175 107 203 119z" fill="#ffffff"></path></svg>