<?xml version='1.0' encoding='utf-8'?>
<svg xmlns="http://www.w3.org/2000/svg" viewBox="0 0 1364 2041" width="267" height="400"><path d="M1215 44q47 0 78 30t31 77v1558q0 46-31 76.5t-78 30.5H132q-18 0-34.5-8t-29-22.5-20.5-34-8-42.5V151q0-23 8-42.5t20.5-34 29-22.5 34.5-8h1083zm-45 1619V196H192v1467h978zm-137-886q0 29-13 53.5T985.5 874t-49 29.5T880 914H483q-29 0-56-10.5T378 874t-35-43.5-13-53.5V456q0-23 13-45t35-39 49-27.5 56-10.5h397q29 0 56.5 10.5t49 27.5 34.5 39 13 45v321zm-352 245q58 0 108 21t87.5 57 59 83 21.5 98q0 57-21.5 107.5t-59 87.5-87.5 58.5-108 21.5q-57 0-107-21.5t-87-58.5-58.5-87.5T407 1281q0-51 21.5-98t58.5-83 87-57 107-21zm0 427q34 0 65-13.5t53.5-36 36-53T849 1281q0-34-13.5-62t-36-48-53.5-31-65-11-64.5 11-53.5 31-36.5 48-13.5 62q0 35 13.5 65.5t36.5 53 53.5 36T681 1449z" fill="#000000"></path></svg>