<?xml version='1.0' encoding='utf-8'?>
<svg xmlns="http://www.w3.org/2000/svg" viewBox="0 0 2025 2041" width="397" height="400"><path d="M426 937q0 80 20.5 154t59.5 139.5 92.5 119.5 119 92.5 140 59T1011 1522q81 0 155.5-20.5t139.5-59 119-92.5 92.5-119.5T1577 1091t21-154q0-121-46.5-227.5t-126.5-186T1238 397t-227-47q-119 0-225.5 47T599 523.5t-126.5 186T426 937zm-111 0q0-146 54.5-272.5T518 443t221.5-149 271.5-54q97 0 186.5 25t167 69.5 141.5 108T1614.5 584t69.5 167.5 25 185.5-25 185.5-69.5 166.5-108.5 140.5-141.5 109.5-167 70.5T1011 1634q-95 0-184.5-24.5t-167-70.5T518 1429.5 409.5 1289 340 1122.5 315 937zm1194 65q0 43-13 67.5t-33.5 36.5-46.5 15.5-51 3.5q-40 0-66-10t-40.5-27-19.5-41.5-5-54.5h88q0 12 2.5 26t8 25.5 16.5 19 27 7.5q26 0 36-15t10-40q0-20-13.5-34t-33-26-42.5-25-43-30-33-39.5-13-56.5q0-25 7-47t23.5-38 44-25.5 70.5-9.5q58 0 89 32t31 99h-87q0-25-10-45.5t-36-20.5q-25 0-34 13.5t-9 30.5q0 22 13 37t32.5 27.5 42.5 24 42.5 27.5 32.5 38.5 13 54.5zm-918 123h-87l120-431h112l121 431H757l-21-100H613zm133-166l-43-177-45 177h88zm266-22v122h45q9 0 20-1t21-6 17.5-17 7.5-33q0-65-66-65h-45zm0-177v110h56q16 0 30-10.5t14-44.5q0-25-15-40t-40-15h-45zm67 365H902V694h155q24 0 46.5 5t38.5 17.5 26 33 10 54.5q0 84-67 99 42 9 60 35.5t18 76.5q0 37-16 59t-38 33-43.5 14.5-34.5 3.5zm641-875q62 68 112.5 146t87.5 164.5 57 182 20 194.5-20 194.5-57 182-87.5 164.5-112.5 144l-132-132q108-108 169.5-247.5T1797 937q0-168-61.5-306T1566 383zM50 937q0-200 71.5-376.5T326 250l132 133q-53 50-95.5 111.5t-73 132.5-47 149T226 937q0 166 62 305.5T458 1490l-121 132q-142-133-214.5-309T50 937z" fill="#ffd100"></path></svg>