<?xml version='1.0' encoding='utf-8'?>
<svg xmlns="http://www.w3.org/2000/svg" viewBox="0 0 1718 2041" width="337" height="400"><path d="M859 1298l330-182V740L859 547 529 740v376zm741 125l-286-159v182h-125v-182l-205 114 149 79-58 114-159-90v341H790v-341l-159 90-57-114 160-79-205-114v170H404v-170l-286 159-68-102 296-171-159-91 57-114 160 91V809l-149 90-68-102 159-92L50 535l68-114 286 171V410h125v182l205-114-149-80 58-114 147 80V33h126v331l159-80 69 103-160 91 205 114V421h125v171l286-171 68 114-296 170 159 92-68 102-149-90v227l149-80 56 103-147 91 296 171z" fill="#000000"></path></svg>