<?xml version='1.0' encoding='utf-8'?>
<svg xmlns="http://www.w3.org/2000/svg" viewBox="0 0 2125 2041" width="416" height="400"><path d="M2009 563q11 0 24.5 5.5t25 15.5 19 24.5 7.5 31.5v686q0 18-7.5 34.5t-19 29-25 20.5-24.5 8h-213v-92h198V655h-198v-92h213zM40 640q0-35 21-56t56-21h198v92H131v671h184v92H117q-18 0-32-8t-24-20.5-15.5-29T40 1326V640zm1541-291q23 0 40 8t28.5 21 17.5 30 6 34v1099q0 91-92 91H528q-17 0-33.5-5.5t-29-17T445 1581t-8-40V442q0-17 8-34t20.5-30 29-21 33.5-8h1053zM726 793q-23 29-49.5 65t-49 76-38 82-15.5 82q0 17 15 36.5t33 35.5 33 26.5l15 10.5q4 0 12.5-6.5T701 1184t20.5-21 20.5-19q6-12 16.5-23.5t20-23 17-23 7.5-22.5q-9-19-22-37.5T768 977q0-9 4-17 35-81 91.5-145t137.5-99q6-6 16.5-11.5t22-10 22-7 16.5-2.5q10 5 23.5 13.5t28 16.5 29.5 14 27 6q10 0 22-7t25.5-18 27-24 25.5-25l6-6q22-8 34-16.5t12-22.5q0-23-14.5-40t-36-28-46.5-16.5-45-5.5q-51 0-102.5 16t-92.5 36q-81 23-149 78.5T726 793zm840-351h-45v121h-46v871H681v61H560v46h1006V442z" fill="#000000"></path></svg>