<?xml version='1.0' encoding='utf-8'?>
<svg xmlns="http://www.w3.org/2000/svg" viewBox="0 0 1896 2041" width="372" height="400"><path d="M1833 357q11 20 16.5 41.5t5.5 44.5q0 47-16 83t-43 61.5-61.5 38.5-70.5 13q-44 0-79-17t-60-43.5-38-60-13-66.5q0-37 13.5-72t38-61.5 60-42.5 79.5-16q57 0 99.5 27.5T1833 357zm-102 46q-25-34-66-34-37 0-59.5 22.5T1583 451q0 18 6.5 32.5t18 25 26 16.5 29.5 6q12 0 26.5-5.5t27-16 21-25.5 8.5-35q0-28-15-46zm-496-148L936 788q-15-11-31.5-20T868 751q5 8 7.5 19.5T878 793q0 17-6 34t-15.5 34-20 33.5T817 925q-11-7-20.5-13T776 901l48-85q7-10 7-22 0-19-12-40.5T802 715q-38-15-80.5-21.5T631 687q-38 0-73 6.5T489 712l1 3q8 17 15 35.5t7 38.5q0 21-6 38t-15 32.5-19 31.5-19 34l-43-24 51-87q2-5 3-8.5t1-8.5q0-16-9-32t-13-33q-27 12-52 25.5T339 788L40 250q63-45 134.5-80t149-59 159-36.5T646 62q160 0 308 49 74 25 144.5 58t136.5 79v7zm-88 20q-51-32-102.5-56.5T939 176q-70-23-143.5-34.5T647 130q-140 0-274.5 37T129 275l236 422 51-27q-8-16-14.5-27.5T395 613q0-24 11-45.5t23.5-41.5 23.5-38 11-36l-1-9-33-97h-17q-5 0-8-.5t-8-3.5l52-138 5-9 60 144 1 7-22-2q-3 0-11 2 7 26 20 55t13 59q0 11-2.5 21.5T504 502q-6 9-15.5 23T470 553.5 454 582t-7 24q0 12 4.5 24t9.5 21q54-22 119-30-1-4-1-12 0-22 10.5-41.5t23-38.5 23-37.5T646 453v-10l-35-97h-15q-5 0-8.5-.5T580 342l53-138 6-9 56 144v7h-29q8 28 19.5 57t11.5 59q0 21-10 39.5T664.5 538 642 573.5 632 609q0 7 1 10l22-1q29-2 56.5 5t53.5 11q-4-12-4-26 0-24 10.5-43.5T795 527t23.5-36 10.5-39v-9l-36-97h-15q-3 0-6.5-.5T763 342l56-147h3l58 151h-31q2 13 7 27t10.5 28 9.5 29 4 29-3.5 23.5T868 502q-5 9-14 22.5T836 553t-15.5 29.5T814 609q0 21 9.5 34t24.5 22 32.5 16 32.5 16zM659 687q9 24 23.5 51t14.5 56q0 17-7 34t-16.5 33.5T653 894t-19 31l-41-24 48-85q6-9 6-23 0-8-2-16t-6-12l-34-76q6-2 12-2h42zm1108 81q33 42 33 87 0 17-4 32l-156-174 8 1q34 5 66.5 14.5T1767 768zm29 122l-137 511q-11 57-42.5 103.5T1540 1584t-99 51-109 18q-11 0-21.5-.5t-21.5-2.5l-285-54q-14-5-30-7.5t-31-2.5q-16 0-30.5 3.5T887 1601l-263 158q-26 20-58.5 32t-67.5 12q-25 0-57-11t-60-31.5-47.5-49T314 1647q0-14 5.5-26.5T336 1598l26-23 490-286q26-17 56-25t62-8q8 0 17 .5t17 1.5l198 39q3 1 8 1 15 0 28-9t20-22l105-395q12-35 36.5-65.5T1456 754t68-34.5 70-12.5q11 0 22 2t21 4zm-121-61q-21-2-42.5-6t-44.5-4q-19 0-37.5 6.5t-34.5 18-28.5 27T1468 904l-105 393-15 25q-23 42-59 63.5t-82 21.5q-6 0-12.5-.5t-12.5-1.5l-218-40-18-1q-16-1-28.5 2.5T892 1375l-451 272q-11 10-11 18 0 12 7 21t16.5 14.5 20 8.5 17.5 3q28 0 50.5-15.5T585 1668l272-161q22-14 49.5-21.5t56.5-7.5q33 0 62 9l284 56h63q57-11 105-50t71-94l144-545q0-16-17-25z" fill="#000000"></path></svg>