<?xml version='1.0' encoding='utf-8'?>
<svg xmlns="http://www.w3.org/2000/svg" viewBox="0 0 2032 2041" width="398" height="400"><path d="M1397 1287q36 0 67.5 13.5t55 37 37 54.5 13.5 67-13.5 67.5-37 55-55 37-67.5 13.5-67.5-13.5-55-37-37-55-13.5-67.5 13.5-67 37-54.5 55-37 67.5-13.5zm-315-871q-50 0-93.5 19t-76 51-51.5 76-19 93q0 50 19 93.5t51.5 75.5 76 51 93.5 19V416zm0-90q68 0 127.5 26t104 70.5T1384 527t26 128-26 128-70.5 104.5-104 70.5-127.5 26-128-26-104.5-70.5T779 783t-26-128 26-128 70.5-104.5T954 352t128-26zm-449 972q0 44-16.5 82t-45 67-67 45.5T423 1509q-44 0-82.5-16.5t-67-45.5-45-67-16.5-82q0-43 16.5-81.5t45-67.5 67-45.5T423 1087q43 0 81.5 16.5t67 45.5 45 67.5T633 1298zm-166-266h-89V916h89v116zm-264 110l-82-83 63-63 82 82zm-46 201H40v-90h117v90zm27 257l-63-63 82-83 63 64zm283 80h-89v-116h89v116zm194-80l-82-82 63-64 82 83zm-19-458l-63-64 82-82 63 63zm163 201H689v-90h116v90zm803-333q-35 0-59 24t-24 59 24 59.5 59 24.5q18 0 33-6.5t26.5-18 18-27 6.5-32.5-6.5-32-18-26.5-26.5-18-33-6.5zm0-89q36 0 67.5 13.5t55 37 37 54.5 13.5 67-13.5 67.5-37 55-55 37-67.5 13.5-67-13.5-54.5-37-37-55-13.5-67.5 13.5-67 37-54.5 54.5-37 67-13.5zm212 455q-35 0-59.5 24t-24.5 59q0 18 6.5 33t18 26.5 27 18 32.5 6.5 32-6.5 26.5-18 18-26.5 6.5-33q0-35-24-59t-59-24zm0-89q36 0 67 13.5t54.5 37 37 54.5 13.5 67-13.5 67.5-37 55-54.5 37-67 13.5-67.5-13.5-55-37-37-55-13.5-67.5 13.5-67 37-54.5 55-37 67.5-13.5z" fill="#000000"></path></svg>