<?xml version='1.0' encoding='utf-8'?>
<svg xmlns="http://www.w3.org/2000/svg" viewBox="0 0 1961 2041" width="384" height="400"><path d="M737 1696h390q0-13-1-56.5t-2.5-103-3.5-128-4-131-3.5-111.5-2.5-70L802 853q-12 55-21.5 120.5t-16 135-11.5 140-8 135.5q-4 78-5.5 154.5T737 1696zm1184-161l-64 80L40 107l64-81zM965 480h-21q35-2 65.5-11t53-23 35-30.5T1110 382q0-24-14-42.5t-38.5-30.5-57-18-69.5-6q-30 0-59 6t-51.5 18-36.5 30.5-14 42.5q0 17 12.5 34t33.5 30.5 47.5 22.5 55.5 11h-3q-13 12-17 36t-16 61l163 130q-26-86-47.5-138.5T965 480zm389 244q18-25 38-58.5t36.5-76 27.5-94 11-113.5q0-61-11-112.5t-27.5-94-36.5-76-38-58.5h-65q24 30 45 64.5t36 75.5 23.5 90.5T1402 382q0 111-32 195t-81 147h65zm-195-147h49q18-12 38-30t36.5-42.5 27.5-55 11-67.5q0-36-11-67t-27.5-57-36.5-47.5-38-39.5h-49q18 18 35.5 39.5t31 47.5 22 57 8.5 67q0 31-8.5 60.5t-22 55.5-31 46.5T1159 577zM720 171h-64q-12 13-26.5 28t-28 33-25 39-17.5 46l65 49q0-123 96-195zM575 41h-48q-26 25-50 69t-48 95l49 47q6-37 17.5-67.5t25-56 28-47T575 41zm-48 698h48q-24-24-40-60.5T493 593l-81-65q25 75 51.5 124.5T527 739z" fill="#000000"></path></svg>