<?xml version='1.0' encoding='utf-8'?>
<svg xmlns="http://www.w3.org/2000/svg" viewBox="0 0 931 2041" width="182" height="400"><path d="M50 945q0 51 3.5 122.5t14.5 151 32.5 161T157 1533q28 56 63 96.5t75 69 82 39.5 86 11q28 0 66.5-7.5t81-31.5 84.5-68.5 76-118.5q27-57 47.5-129t34-152 21-165 7.5-169q0-55-4.5-126t-16-149T827 474.5 770 318q-30-66-68.5-107.5T622 145t-81.5-32.5T467 104q-78 0-139.5 33t-108 92T141 368 88.5 541.5 59 737.5 50 945zm248-11q0-64 2.5-124.5T308 694t15-101 24-79q22-55 52.5-86t68.5-31q48 0 86 59.5T615 644q6 32 9.5 66.5t5 68.5 2.5 65.5 1 59.5q0 91-4 158t-10.5 116.5-15.5 84-18 59.5q-42 126-118 126-24 0-42-9t-32.5-24-25-34.5T349 1340q-15-39-25.5-87T308 1151.5t-7.5-109T298 934z" fill="#000000"></path></svg>