<?xml version='1.0' encoding='utf-8'?>
<svg xmlns="http://www.w3.org/2000/svg" viewBox="0 0 2080 2041" width="408" height="400"><path d="M1830 1529q24 0 51.5-3t44.5-20V602q-17 8-44.5 9t-51.5 1h-10v917h10zm-694-74q55-17 111-24.5t119-7.5q57 0 111 7.5t102 24.5q-21-21-41.5-38t-45.5-29.5-55.5-19.5-70.5-7q-26 0-57 7t-62.5 19-60 29.5-50.5 38.5zM987 582q-63-42-131.5-59T715 506q-75 0-141.5 15.5T452 569q-54 27-109.5 35T227 612q-20 0-40-1.5t-41-8.5v904q25 17 48 20t48 3q31 0 60-7.5t54-15.5q81-38 171.5-60.5T715 1423q72 0 140.5 14t131.5 39V582zm729 0q-51-8-88-31t-62-65q-38-48-90.5-72T1366 390q-81 0-139.5 36.5T1136 529l-43 73v737q63-49 132-67.5t141-18.5q64 0 110 14.5t85 38.5 75 54.5 80 62.5V582zm-676-96q48-97 131-148.5t195-51.5q88 0 162 37t122 100 118 63h52v20h10q55 0 108.5-15.5T2040 443v1139q-48 23-101.5 37t-108.5 14q-39 0-83-7.5t-74-23.5q-72-32-149-52.5t-158-20.5q-94 0-172.5 20.5T1040 1612q-69-42-153-62.5T715 1529t-166 20.5-150 52.5q-32 17-70.5 24t-86.5 7q-57 0-105-14t-97-37V443q49 32 97 47.5T242 506q96 0 157-31 72-38 150-55.5T715 402q87 0 171 18t154 66z" fill="#000000"></path></svg>