<?xml version='1.0' encoding='utf-8'?>
<svg xmlns="http://www.w3.org/2000/svg" viewBox="0 0 2036 2041" width="399" height="400"><path d="M805 1044q-20 50-56 83t-79.5 50-90.5 18.5-89-12.5q-66-20-107-61t-64-93q-11-20-9.5-35.5T316 966l246 71 87-76q0-8 7-11.5t7-6.5q2-4-1.5-13.5T659 913l-26-111-244-73q4-17 7-25.5t15-19.5q25-19 55-31t62.5-16.5 65.5-2 65 11.5q64 19 110 61t67 105l714-4q36-1 60 16.5t36 44.5 11.5 59-13 59-37 44.5-61.5 16.5zm1191-590v1287H40V454h85V241h128q24 0 43-3.5t36-10 34-16 38-21.5q25-16 54.5-33t66-30.5 81-22.5T706 95q77 0 140.5 16.5T964 164q27 18 54 44 13-12 26-23t27-21q54-36 117.5-52.5T1329 95q55 0 99.5 9t81.5 22.5 67 30.5 56 33q20 12 36.5 21.5t34 16 36.5 10 43 3.5h129v213h84zM253 1611q51 0 89-11t70-27 61.5-35.5 63-35.5 74-27 95.5-11q69 0 116 15.5t81.5 41 61 57.5 53.5 66q27-34 53-66t60.5-57.5 81.5-41 116-15.5q55 0 96 11t74.5 27 62.5 35.5 61.5 35.5 70.5 27 89 11V371q-51 0-89-11t-70.5-27.5T1562 297t-62.5-35.5T1425 234t-96-11q-69 0-116 15.5t-81.5 41T1071 337t-53 66q-27-34-53.5-66t-61-57.5-81.5-41T706 223q-55 0-95.5 11t-74 27.5-63 35.5-61.5 35.5-70 27.5-89 11v1240z" fill="#000000"></path></svg>