<?xml version='1.0' encoding='utf-8'?>
<svg xmlns="http://www.w3.org/2000/svg" viewBox="0 0 2016 2041" width="395" height="400"><path d="M1502 1054l109-59V708l-252-148-252 148v287l205 112-116 51-89-50v129h-95v-129l-125 70-9-106 90-51-121-70 43-87 122 70V761l-114 69-51-78 121-71-228-129 53-87 219 129V456h95v138l157-86-114-62 44-85 112 60V169h96v252l122-60 53 77-123 70 157 86V465h95v129l218-129 52 87-226 129 121 71-51 78-114-69v173l114-61 42 78-112 70 226 131-52 78-218-122v139h-95v-139zm-252 277l-322 84-76-84H421v279h593zm-913-17v-84l-170-44-25 76zm355-68h195l67 76 551-145 93 94-60 60-59-60-76 17-346 407H337v-296l-297-77 68-245 313 84v85h187v-85h-85v-84h253v84h-84v85zm828 153q0-7 6-12.5t12-5.5q7 0 12 5.5t5 12.5q0 25 7 52.5t27 65.5q7 6 8 12.5t1 12.5q0 26-17 42.5t-43 16.5q-25 0-42-16.5t-17-42.5q0-6 4-12.5t4-12.5q13-19 20-35t10-30.5 3-27.5v-25z" fill="#000000"></path></svg>