<?xml version='1.0' encoding='utf-8'?>
<svg xmlns="http://www.w3.org/2000/svg" viewBox="0 0 1863 2041" width="365" height="400"><path d="M1606 699q-25-4-49-9t-51-5q-21 1-42.5 9.5t-40 22.5-32.5 32-21 39l-118 435q-23 67-71.5 102t-109.5 35q-6 0-12.5-.5t-12.5-1.5l-258-49q-4 0-7.5-.5t-7.5-.5q-32 0-60 14l-204 120-272 164q-5 5-14 9.5t-17.5 10-15 12.5-6.5 17q0 12 7 21.5t18 16 24.5 10.5 26.5 4q9-1 19-2.5t18-6.5l354-212 41-23q23-11 49.5-16.5t53.5-5.5q21 0 42 3.5t41 8.5l297 57q25 5 49 5 39 0 77-13t71-36.5 57-56 34-72.5l78-285 85-323q0-10-6-18t-14-12zm183-534q24 42 24 97 0 49-18.5 89.5t-49 69.5-69.5 45-79 16q-42 0-82-16t-70.5-45.5-49.5-70-19-88.5q0-41 16.5-80t46-69.5 69.5-49 88-18.5q27 0 56 8t55.5 23.5 48 38T1789 165zM741 837V648H364V277h370V83l380 374zm936-618q-13-22-34-35.5t-47-13.5q-20 0-37 7.5t-30 20.5-20.5 30-7.5 36 7.5 36 20.5 29.5 30 20 36 7.5q17 0 34-7t30-19 21-29.5 8-38.5q0-24-11-44zm-42 357q25 5 46 20t36.5 35.5 24 45 8.5 49.5-4 42l-73 277-90 328q-17 59-53 108t-84 84.5-105.5 55.5-118.5 20q-14-1-29-1.5t-29-3.5l-380-73h-8q-17 0-33.5 3.5T712 1578l-273 163q-21 13-41.5 25.5T356 1789t-44 16.5-51 6.5q-63 0-115.5-33.5T65 1688q-6-12-10.5-26t-4.5-28q0-22 13-41t34-29l226-139 362-214q24-12 53-18t59-6q32 0 67 8l202 39h6q31 0 51-29l8-17 120-440q13-41 40.5-75.5t63-60 77-39.5 84.5-14q31 0 60.5 6t58.5 11z" fill="#000000"></path></svg>