<?xml version='1.0' encoding='utf-8'?>
<svg xmlns="http://www.w3.org/2000/svg" viewBox="0 0 2181 2041" width="427" height="400"><path d="M486 582L40 289l68-104 432 283zm1296 701q7 5 26 17.5t45.5 29.5 58 38 63.5 42q75 49 166 108l-69 104-357-235q25-26 40-48.5t27-55.5zm-325 126H592q-57 0-106-18.5t-85-51.5-56.5-79.5T324 1157q0-83 45-176l320-654q36-72 70.5-127.5t73.5-93 85.5-57T1024 30q60 0 106.5 19.5t85.5 57 73.5 93T1360 327l320 654q46 95 46 176 0 56-20 102t-55.5 79.5-85 52T1457 1409zM800 382l-319 653q-33 68-33 123 0 60 39 93.5t105 33.5h865q67 0 105.5-34t38.5-93q0-55-33-123l-318-653q-36-73-65-117.5t-55-69-51.5-32.5-54.5-8-53.5 8-50 32.5-54.5 69T800 382zm224 1438q-60 0-113-23t-92.5-62.5-62.5-93-23-114.5v-56h584v56q0 61-23 114.5t-63 93-93 62.5-114 23zm-170-236q9 27 25.5 49.5t38.5 39 49 26 57 9.5 57.5-9.5 50-26 39-39 25.5-49.5H854z" fill="#000000"></path></svg>