<?xml version='1.0' encoding='utf-8'?>
<svg xmlns="http://www.w3.org/2000/svg" viewBox="0 0 1872 2041" width="367" height="400"><path d="M936 31q124 0 238.5 32t214 90.5 181 140 140 181 90.5 214 32 238.5-32 238.5-90.5 214-140 181-181 140-214 90.5-238.5 32q-123 0-237.5-32t-214-90.5-181.5-140-140.5-181-90.5-214T40 927t32-238.5 90.5-214 140.5-181 181.5-140T698 63t238-32zm0 1614q122 0 234-39t207-113l-359-358q-20 16-41.5 35.5T938 1225q-12 24-30.5 26t-32.5-9-18.5-31.5T868 1167q9-13 17-25.5l16-25 18-27 22-31.5-171-171q1 24 5.5 42.5T787 965t14.5 34 13.5 38q7 26 15 60.5t15.5 69T859 1233t8 53q3 27-11 41.5t-33.5 15.5-37.5-10-21-35q-6-36-10.5-74.5t-13.5-77-24-76-40-73.5q-16 50-50.5 88.5t-74 66.5-78.5 46.5-65 27.5q-19 6-32.5-4.5t-19-27.5-1-35 22.5-26q15-7 41-17.5t53-25.5 50.5-34 34.5-43q10-22 16-42t9-41 5-45.5 4-55.5q1-7-4.5-9t-8.5 1q-30 29-48.5 71T506 997q0 11-8 17t-17.5 6-17.5-6-7-18q7-108 43-175t98-107L370 487q-74 94-112.5 206T219 927q0 145 53.5 275T429 1434q102 103 232.5 157t274.5 54zm39-881q2 35 3.5 53t5.5 32l22 22q7-18 13.5-39.5t10.5-43 5.5-42 .5-35.5q-14 8-29.5 20.5T975 764zm267 342q-5-32-13.5-45.5T1204 1035q-8 2-14.5 2t-16.5 1zm261 261q74-94 112.5-206.5T1654 927q0-145-54-275t-157-232q-102-103-232-156.5T936 210q-121 0-233.5 38.5T496 360l186 187q13-11 27-15t26-4q29 0 47.5 20t20.5 49q2 25 2 37.5t-8 27.5l105 105q-1-12-1-20.5V730q18-27 44-50.5t51.5-42T1043 608t28-13q11-2 16-1.5t11-1.5q5-3 6.5-7.5t-.5-13.5q-21-8-30.5-22.5T1066 496t23.5-60.5T1134 409q14-3 33.5-1.5T1201 420q11 8 18.5 30t2.5 59q-9 71-38 75-1 2-1 4 0 5 2 5 26 6 53 19.5t45 42.5q22 36 39.5 61.5t31.5 43 25.5 27.5 22.5 16q23 13 40 20t33 23q8 8 12.5 18.5t1.5 18.5-16 10-39-7q-52-18-100-50.5t-86-85.5q0 29 9 63.5t21.5 68 25 61.5 19.5 43q-7 11-10.5 17t-9.5 17q4 12 9.5 37t13 54.5 17 60.5 20.5 55z" fill="#000000"></path></svg>