<?xml version='1.0' encoding='utf-8'?>
<svg xmlns="http://www.w3.org/2000/svg" viewBox="0 0 1403 2041" width="275" height="400"><path d="M106 1825q-27 0-46.5-19.5T40 1759V95q0-27 19.5-46T106 30t47 19 20 46v1664q0 27-20 46.5t-47 19.5zM530 366q-32 0-57 14-29 16-46 44.5T410 485v884q0 32 17 60.5t46 44.5q27 15 57 15 33 0 63-18l714-443q26-17 41-43.5t15-56.5q0-32-15-58.5t-41-42.5L593 384q-30-18-63-18zm75 181q13 0 24 7l539 334q21 12 21 40 0 11-5 21.5t-16 16.5l-539 335q-12 6-24 6-11 0-23-5-23-15-23-41V592q0-11 6-22t17-17q10-6 23-6z" fill="#000000"></path></svg>