<?xml version='1.0' encoding='utf-8'?>
<svg xmlns="http://www.w3.org/2000/svg" viewBox="0 0 674 2041" width="132" height="400"><path d="M50 1242q0 24 1.5 69.5t8.5 99 23.5 109T128 1621q20 30 44.5 50t51.5 33.5 53 18 49 4.5q64 0 118-35t94-96.5 63-145 23-182.5q0-25-2.5-58t-10-70-21.5-76.5-36-76.5q-15-24-29-39t-29-27q21-17 42-42.5t38-65 29.5-93.5T618 593q0-42-6-90t-20-95-35-90-52.5-76-72.5-52.5-93-19.5q-35 0-67 9.5t-62 29-55.5 52.5-45.5 79q-16 38-25.5 73.5t-14 67-7 59L58 589v44h227q0-89 17-134t41-45q21 0 38 35t17 105q0 69-18 105.5t-44.5 55-58 22.5-59.5 6v302q29 0 60.5 2t57.5 19.5 43.5 54.5 17.5 105q0 35-3.5 66t-11.5 53-19.5 35-25.5 13q-22 0-34-23.5t-18.5-55-8.5-63.5-3-49H50z" fill="#000000"></path></svg>