<?xml version='1.0' encoding='utf-8'?>
<svg xmlns="http://www.w3.org/2000/svg" viewBox="0 0 2080 2041" width="408" height="400"><path d="M328 407q-48 0-88.5-5t-77.5-5q-52 0-80.5 13.5t-42 41.5-16 69.5T21 619v426q22 42 61 57.5t93 15.5q5 0 10-.5t10-.5h251q36-3 68-5.5t50-19.5V172q-10-8-40.5-13t-65.5-5q-34 0-58 1.5t-39.5 8.5-23 22-7.5 41 2.5 57.5T335 347q0 17-1.5 33t-5.5 27zm204-214v871q-68 0-122.5 2t-98 5-77.5 5-61 2q-38 0-62-4t-41-16q-14-26-18.5-94T47 790v-96q0-17 .5-34.5T48 623v-44q0-41 6.5-69.5t26.5-46 56.5-25.5 96.5-8q5 0 16 1.5t24.5 4 27.5 4 25 1.5q28 0 37.5-22.5T374 360q0-27-3-59t-3-58q0-36 7-49zm410 285q11-23 26-37.5t35.5-22 48-10 64.5-2.5q60 0 129.5-4.5T1381 397q34 0 42 27t8 78q0 26-1 44.5t-5.5 30.5-14 17.5-27.5 5.5-44-1.5-53.5-3-54-3-47.5-1.5q-23 0-38.5 5.5T1130 619q0 18 12 28t30 14.5 39 5 38 .5q23 0 46-5.5t48-5.5h3q10 0 23.5 1.5t28.5 9 31 24 31 47.5v164q0 48-2 89t-15.5 70.5-42.5 46-83 16.5q-30 0-55.5-1.5t-56-3.5-70.5-3.5-99-1.5q-9 0-21.5-.5T989 1111t-25.5-6.5T942 1092q-5-27-8-55t-3-58q0-38 9.5-51t43.5-13q31 0 57 3t51 6 52.5 6 62.5 3q27 0 45.5-6t18.5-25q0-17-11.5-26.5t-28.5-14-38-5-39-.5q-44 0-83-2t-67.5-13-45-35-16.5-68V478zm582-6q9-27 29.5-41t49-20 63.5-7 74-1h27q67 0 118.5 3.5T1972 429t53 58 18 110q0 38-3.5 60.5t-16 34-36.5 15-64 3.5q-35 0-56-5.5t-31.5-13.5-13.5-18.5-3-21.5q0-14 1-26t1-24q0-23-10-34.5t-45-11.5q-18 0-23.5 24t-5.5 59q0 44 1 72.5t1.5 52.5 1.5 49 1 62q0 42 4.5 71t20.5 29q35 0 44.5-18.5t9.5-44.5q0-11-.5-21.5t-.5-21.5q0-14 1.5-26.5t8-22.5 21-15.5 41.5-5.5q19 0 40.5 1.5t41 4 34 4 19.5 1.5q9 9 14 21.5t7 25 2.5 25 .5 21.5q0 46-8.5 85t-29 68-54 45.5-83.5 16.5q-23 0-51-1.5t-58-1.5q-29 0-56 1.5t-53 1.5q-24 0-45-1t-37.5-7-28.5-18.5-18-35.5q-14-26-18-52.5t-4-55.5v-45q0-33-.5-70.5t-.5-75.5q0-39-.5-76t-.5-70q0-51 2.5-88.5T1524 472zm476 26q-8-24-28-36.5t-48.5-18.5-62.5-7-69-1q-40 0-78.5-2.5T1650 430q-32 7-51 26t-29.5 47-14 62.5-3.5 71.5q0 31 2 62t2 62q0 18-1.5 41t-4 49-4 53-1.5 52q0 27 1.5 49t10 37 27 23.5 53.5 8.5q28 0 61.5-3t68.5-3 68.5 5 59.5 5q12 0 21.5-2t16.5-8q24-6 38-17.5t22-28 10.5-38 2.5-46.5q0-23-1-50t-1-56h-143q0 36-1 66.5t-7.5 54.5-20.5 41.5-40 26.5q-32 0-51.5-12.5t-30-34-14-50-3.5-60.5q0-25 1.5-51t1.5-52q0-21-1.5-49t-1.5-57q0-25 3-48.5t11-42 22.5-29.5 37.5-11q35 0 54 9t28 27 10.5 44.5 1.5 62.5h143v-14q0-29 3-52t3-46q0-14-2-28t-8-29zm-943-59q-24 6-38.5 14.5t-22 21T987 504t-2 39q0 29-3.5 67.5T978 686q0 46 9 73.5t26 41.5 42 18.5 57 4.5h88q20 0 38.5 3.5T1271 840t22.5 24.5 8.5 39.5q0 23-10.5 36.5t-28 21-40.5 10-47 2.5q-32 0-66-3t-65-3q-34 0-56 6v94h188q23 0 59 5t71 5q34 0 55.5-7.5t33.5-20.5 16.5-31 4.5-40q0-42 3.5-94.5T1424 784q0-59-32.5-78.5T1299 686h-99q-1 1-11 1h-10q-39 0-67-15t-28-53q4-22 15.5-35.5T1128 562t38.5-11 44.5-3q32 0 63.5 2.5t59.5 2.5q16 0 30-.5t26-4.5V430q-19 4-38.5 5.5T1313 437q-43 0-81-1.5t-76-1.5q-24 0-48.5 1t-50.5 4zm-399-32q1 1 11 1 22 0 56.5-5.5T817 397q20 0 32.5 2t19 8 9 16.5T880 451v616q0 17-2 26.5t-6.5 14-12 5.5-17.5 1h-99q-13 0-29.5-1t-31.5-6-25-16.5-10-31.5V461q0-20 2-33.5t9-20.5zm190 661V430H681v638h167zM209 642q0-26 1-48t8-39.5 22-31 42-21.5q9 0 21 .5t25 5 25.5 14T375 548v426q-9 20-32.5 32t-51.5 12q-22 0-44-10t-38-34V642zm-21 708q-20 19-37.5 25.5T112 1382q-20 0-42.5-3.5T21 1375v-188l94-11q45 0 65.5 26.5T201 1278q0 19-3.5 38.5T188 1350zm58-443q0 24 5.5 37.5t16 20 25.5 8 35 1.5q6-7 8-20t2-30q-2-61-3.5-107t-2.5-79.5-1.5-57-.5-38.5q0-23 1-32.5t1-16.5q0-20-9.5-32.5T282 548q-20 0-25.5 9t-5.5 25zm1641 301q2-6 11-13.5t35-7.5q9-5 19.5-7.5t20.5-2.5q43 0 65 22t22 61q0 17-3.5 35.5t-10.5 35-17.5 28.5-24.5 16q-31 0-56-2.5t-42-11.5-26.5-27.5-9.5-50.5q0-21 4-40.5t13-34.5zm-143 142q-14 14-28.5 18.5t-31.5 4.5-34-3-34-3q-15 0-37 8v-188l104-11q34 0 52 33t18 91q0 31-9 50zM1059 172h71q9 8 14 20.5t9.5 26 9.5 26 14 21.5q10-9 15-21.5t7.5-26 3-26 .5-20.5h94v165q0 8-8 13.5t-18 5.5q-8 0-15-5.5t-7-13.5V194q-18 37-32 83t-14 83h-49q-9-18-18-39.5t-15.5-43.5-11-43.5-4.5-39.5q-2 13-3 27t-1 28q0 29 2 58.5t2 52.5q-9 0-18.5 2.5T1069 365q-12 0-12-13zm-164-12q4-4 14-4 41 0 64.5 8.5t35.5 23 15 35 3 44.5q0 29-9 49.5T989 337q-11 8-26 13.5t-35 5.5q-45 0-68.5-31T836 240q0-22 12-46zM351 1187q19-10 45-10 17 0 34.5 4t31.5 11.5 23 18 9 22.5q-32 0-43 3t-14 3q-1 0-2-4v-2q-3-11-13.5-15t-18.5-4q-6 0-14 3.5t-15.5 10.5-12.5 18-5 25q0 13 3 26t9 23.5 15 17 22 6.5q11 0 19.5-6t14.5-13.5 9-15 3-10.5q0-5-2-5l-47-4 2-30 88 4q0 27-1.5 49.5t-10 38.5-26.5 24.5-50 8.5q-12 0-29-6.5t-32.5-17-26-23.5-10.5-27q0-17 .5-35.5t5-35.5 13.5-31 26-22zm1488-969v-2q0-1-1-4t-1-5l-3-1q-3-12-20-12 0 1-5 1.5t-11.5 1.5-14 4-12.5 9l-4 2v96q21 10 44 10 18 0 24.5-8t6.5-16v-2l-3-2h3q4 0 10-.5t12-.5q10 0 11 1h12q1 1 1 11 0 29-24 46.5t-59 17.5h-23q-32-5-55-17.5t-31-32.5V193q15-14 40.5-27t63.5-13h9q31 0 54.5 18t23.5 47h-48zm-355 72q-18 17-38 19.5t-56 2.5v48h-47V172l95-10q28 0 45.5 13.5T1501 230q0 18-3.5 34t-13.5 26zm161-119q0 35 16.5 85t34.5 104h-46q0-9-.5-14t-2.5-9.5-7-10-14-14.5h-70v48h-49q0-54 15-103.5t34-84.5zM871 1187q17 35 32 84.5t15 103.5h-47l-7-49h-65q-2 7-4 11.5t-4.5 9-6 11-8.5 17.5h-46q18-54 35-103.5t34-84.5h72zm426 0q16 35 31 84.5t15 103.5h-46q0-1 .5-1.5t.5-1.5q0-31-6.5-38.5t-16.5-7.5h-51q-5 12-9.5 20.5T1203 1375h-49q17-54 35.5-103.5t34.5-84.5h73zm116 0v140h71v-140h47q1 21 1.5 35t1 27 1.5 29 4 41q0 14-2 22t-9 13.5-20.5 8.5-35.5 6h-31q-14 0-29-1.5t-28-7-21-15-8-24.5v-34q2-10 6.5-36.5t4.5-54.5v-9h47zM635 194q4-9 14.5-16.5t24.5-13 30-8.5 31-3q26 0 47 11t21 37q0 10-4 17h-23q-9-8-21.5-12.5T730 201q-22 0-33 12t-11 41q0 7 1 17t3.5 19 7.5 15.5 13 6.5q17 0 33-3t32-19h23q5 8 7 14t2 12q0 20-19 30t-44 10q-17 0-34.5-3.5t-33-9.5-27-14-15.5-17V194zm377 1133h72v48H942v-188h70v140zm-258-94h-49v142h-47v-142h-71v-46h167v46zm1085-46v188h-72v-188h72zm212-993l-55 3q-5 17-5 22 0 6 1 12.5t1 15.5l9 109h-67V194h-44l-3-33h164zM282 1187v188h-48v-188h48zm610-915l16 34 57 6q8-8 12.5-24t4.5-31q0-17-6.5-28T960 212t-18-8.5-14-2.5q-14 0-34 17zM564 1375h-46v-188h46v188zm1369-142q-12 11-12 30 0 32 14 46.5t31 14.5q21 0 32-9.5t11-15.5q0-15-1.5-30t-5.5-26.5-12-19-21-7.5q-21 0-36 17zm-1793 94q9-18 9.5-38t.5-36q0-18-13.5-24.5T115 1222q-13 0-24 5.5t-22 5.5v94h71zm1556 0q0-9-.5-25t-2.5-31-6.5-26.5-13.5-11.5h-47v94h70zM1390 266h48q8-9 12.5-14t6.5-9.5 2.5-10 .5-14.5q-8-9-14-12t-13-3q-6 0-13.5 1.5T1401 206h-6zm212-72q-9 9-13.5 21.5T1582 242t-2.5 26.5-.5 21.5h47zM858 1303q-6-10-8.5-20.5t-4-20-4.5-17.5-10-13q-4 9-6.5 16t-6 14.5-8 17.5-11.5 23h59zm428 0q-12-19-15-40t-15-33q-7 17-11.5 31.5T1224 1303h62zm749 399v-283l7 9H29l8-9v283l-8-8h2013zm16-290v300H20v-300h2031zM776 1654v-160h-62v-22h146v22h-61v160h-23zm110 0v-182h132v22H909v55h100v21H909v62h112v22H886zm149 0l70-96-61-86h31l30 46q5 9 8.5 14t8.5 10q3-8 6-12t10-12l36-46h26l-62 86 66 96h-30l-47-64-3.5-7-3.5-5q-2 5-4.5 9t-3.5 6l-46 61h-31zm236 0v-160h-58v-22h143v22h-61v160h-24z" fill="#000000"></path></svg>