<?xml version='1.0' encoding='utf-8'?>
<svg xmlns="http://www.w3.org/2000/svg" viewBox="0 0 2567 2041" width="503" height="400"><path d="M1714 1138l36 81 89-214-223-72 40 80v5q-30 23-93 38t-148 15q-54 0-101-7t-82-18.5-55.5-26.5-20.5-32q0-18 20.5-34t55.5-27 82-17.5 101-6.5h80l41-49q-31-7-61.5-8t-63.5-1q-84 0-157.5 13.5t-127.5 37-85.5 55-31.5 68.5q0 35 31.5 66.5t85.5 55.5 127.5 38 157.5 14q91 0 168.5-15.5T1714 1134v4zm661 161q10-3 14-7.5t4-14.5q-4-67-15-132.5t-21-113.5q-6-13-13-13-31-4-65-12.5t-78-18.5q-33-10-64.5-23.5T2074 936l-12-6q-30-14-61-33.5t-67-40.5q-68-39-127-63.5T1701 757q-33-8-72.5-14.5t-83-11-89.5-7-92-2.5q-72 0-137 6.5T1111 749q-40 11-75.5 34T960 839q-41 34-78 69t-73 66q-31 26-43.5 35.5T750 1022q-7 0-11 .5t-7 4.5q-3 0-10 .5t-21 3.5q-47 7-79 12t-59 9.5-53.5 9-63.5 9.5q-70 14-124 30t-94 33q-4 0-7.5 2.5T210 1143q-4 3-9.5 6.5t-8.5 6.5q-6 9-11 23.5t-9 31-6 34-2 31.5l1 14q0 7 5.5 11t12.5 7q14 0 37 2.5t43 2.5h90v4q0 37 14 69.5t39 57 58 38.5 72 14q35 0 66.5-13.5t56-36.5 39-54 16.5-66v-18h1152l4 27q2 33 17 62.5t39 51.5 54.5 34.5 64.5 12.5q35 0 67-12.5t57-35 39.5-53 14.5-65.5v-26q17 0 60.5-.5t91.5-4.5zM799 1433q-27 57-76 100.5T608 1596q-34 10-72 10-42 0-81.5-12.5t-74-34T318 1508t-46-66q-7 0-39-2.5t-99-6.5q-29 0-47-14t-28.5-34.5-14.5-44-4-41.5q0-84 15.5-134t29.5-67q16-22 35.5-40.5t48.5-35 72-31T348 963q18-4 41-8.5t49.5-9 54-9T546 927q62-11 128-21 7-3 10.5-3.5t7.5-.5q7-4 12-10.5t19-16.5q35-30 73.5-67t81.5-73 91.5-66 105.5-46q60-17 134-24.5t153-7.5q103 0 201.5 11t172.5 28q62 15 130 48.5t133.5 70.5 125.5 69 107 44q57 15 97.5 19t68.5 11.5 46 26 30 63.5q8 30 17 70.5t17 87.5 13.5 98.5 5.5 105.5q0 27-18 43t-44 24.5-55.5 11-53.5 2.5q-14 0-24.5-.5t-15.5-.5h-4q-23 61-71.5 105t-115.5 63q-20 6-40 8.5t-40 2.5q-44 0-84-12.5t-74-35-61-54-45-68.5H799z" fill="#000000"></path></svg>