<?xml version='1.0' encoding='utf-8'?>
<svg xmlns="http://www.w3.org/2000/svg" viewBox="0 0 2088 2041" width="409" height="400"><path d="M1052 328q141 0 270 22.5t239.5 64.5T1762 515.5 1915.5 647t98 157.5T2048 982q0 89-34.5 172.5t-98 156T1762 1443t-200.5 103.5-239.5 67-270 23.5q-142 0-271.5-23.5t-242-67T334 1443t-157.5-132.5-101-156T40 982q0-93 35.5-177.5t101-157.5T334 515.5 538.5 415t242-64.5T1052 328zM204 982q0 78 42.5 146.5T368 1264l297-178q-23-22-34-51.5T620 982q0-61 34-113t92.5-90 137-59 168.5-21q67 0 122.5 11.5T1275 744l297-148q-112-57-242.5-88.5T1052 476q-115 0-223 19t-202 53-172 81-133.5 103T235 851.5 204 982zm1100 0q0-16-18.5-37t-52-39-80-30.5T1052 863q-62 0-111.5 12.5T856 906t-54 39-19 37q0 11 19 29t54 34.5 84.5 28.5 111.5 12q55 0 101.5-12t80-28.5 52-34.5 18.5-29zm-252 491q115 0 222.5-18t201.5-50 172-77 133.5-99.5 86.5-117 31-129.5q0-45-13-84.5t-37-75.5-56.5-70-71.5-67l-298 164q11 17 19.5 31.5t14 29.5 8.5 32.5 3 39.5q0 56-31.5 105t-87.5 85-132 57-165 21q-69 0-132.5-11T799 1205l-283 149q112 57 245 88t291 31z" fill="#000000"></path></svg>