<?xml version='1.0' encoding='utf-8'?>
<svg xmlns="http://www.w3.org/2000/svg" viewBox="0 0 1797 2041" width="352" height="400"><path d="M1225 1367q-5 29-18.5 53.5T1173 1463l36 60 111 26-14 69-90-20-22 92-70-17 26-110-38-62q-28 11-60 11-13 0-25.5-1.5t-22.5-4.5l-33 53 30 110-71 18-23-89-90 23-19-68 113-30 27-52q-20-18-35.5-43t-22.5-55h-75l-82 79-49-51 64-64-66-66 51-52 82 83h75q5-26 18-49t30-42l-39-66-111-24 18-72 88 22 22-92 70 17-26 112 40 65q14-5 29.5-8.5t32.5-3.5q15 0 30 3t30 8l35-64-28-111 67-18 23 89 93-25 18 71-111 29-36 66q17 17 29.5 38.5t18.5 47.5h69l81-79 50 51-65 64 67 67-51 50-82-81h-65zM959 263l-366 997-168-161-275 646h1510L1343 730l-171 202zm241 524l173-201 384 1231H40l361-842 162 159L965 40zm-545 596l-47-46 46-46 46 46zm147-362l15-63 62 15-15 64zm498 625l-16 63-64-14 16-64zm-395 47l-65 16-16-61 65-17zm307-720l64-18 18 62-66 18zm-56 364q0-44-30-74t-74-30-73.5 30-29.5 74 29.5 73 73.5 29 74-29 30-73zm283-50l47 45-47 47-44-48z" fill="#000000"></path></svg>