<?xml version='1.0' encoding='utf-8'?>
<svg xmlns="http://www.w3.org/2000/svg" viewBox="0 0 1784 2041" width="350" height="400"><path d="M1744 878q0 101-21.5 195.5t-61.5 180-97 159.5-129.5 133.5T1276 1649t-183 66v-200q105-29 190.5-90.5t146.5-146 94.5-187T1558 878q0-89-23.5-172.5T1468 548t-104-136-135-106.5-160-69T890 212t-178.5 24.5-159.5 69T417.5 412 314 548t-66.5 157.5T224 878q0 111 33.5 213.5t95 187 147.5 146 190 90.5v200q-146-34-265.5-112.5t-205-189T87 1166 40 878q0-116 30.5-224T157 451t134-173 172.5-134T666 57t224-31q120 0 230.5 31t205.5 87 172 134 131.5 173 84.5 203 30 224zm-760 140v806H798v-806h186z" fill="#000000"></path></svg>