<?xml version='1.0' encoding='utf-8'?>
<svg xmlns="http://www.w3.org/2000/svg" viewBox="0 0 2036 2041" width="399" height="400"><path d="M1448 1678q29 0 47 22.5t18 51.5q0 11-5 22.5t-13.5 21-20.5 16-26 6.5H497q-29 0-46.5-19t-17.5-47q0-29 17.5-48t46.5-26h401v-187q-106-5-183.5-40.5t-131.5-89-87-119-51.5-130-25-122T413 895q0-32 2.5-54t10.5-35 23-18.5 39-5.5 40.5 18.5T545 843q0 7-.5 7.5t-1 2.5-1 9.5-.5 28.5q0 27 3.5 71t15 94.5 34.5 101 62 90.5q55 57 129 85t178 28h9q87 0 154-20.5t117-54 84.5-77 57-89 35-89.5 18.5-79.5 7.5-58.5 1.5-27q0-27 19-46t46-19q29 0 47.5 19t18.5 46q0 52-10.5 116t-35 130.5-65.5 131-102 116-144 86.5-192 43v189h418zM48 320q18-38 56-38 17 0 36 10l421 224q14 14 24.5 32t10.5 35q0 15-6.5 26.5T573 629t-22 12.5-23 4.5q-9 0-17.5-2t-15.5-7L77 413q-16-14-26.5-32.5T40 345q0-14 8-25zm1575 848q9-13 23-20.5t30-7.5q8 0 15.5 2.5t15.5 6.5l251 132q19 10 28.5 24.5t9.5 31.5q0 32-21.5 50t-53.5 18q-15 0-26-4l-244-140q-19-8-27.5-23.5t-8.5-32.5q0-19 8-37zm-635 27q-71 0-134-26.5t-110-72-74.5-107T642 858V365q0-70 27.5-132T744 125t110-73 134-27 134 27 110 73 74.5 108 27.5 132v493q0 70-27.5 131.5t-74.5 107-110 72-134 26.5zm7-1048q-47 0-88 17.5T834.5 212 785 281.5 767 365v493q0 44 17 83t47 67.5 70 45 87 16.5q45 0 85.5-16.5t70.5-45 47.5-67.5 17.5-83V365q0-44-17.5-83.5t-47.5-69-70.5-46.5-85.5-17z" fill="#000000"></path></svg>