<?xml version='1.0' encoding='utf-8'?>
<svg xmlns="http://www.w3.org/2000/svg" viewBox="0 0 766 2041" width="150" height="400"><path d="M50 1727h323q12 0 45-8.5t63.5-15 55-26T584 1633q27-25 50.5-61.5t42-85.5 29-108 10.5-128q0-55-8-110.5T682.5 1034 638 943t-66-67q25-24 40.5-48.5T631 796l-1 3q18-33 29-68t17-68 8-62.5 2-50.5q0-34-5-78t-16-91-31-93-52-86q-23-29-51.5-44T473 135.5t-55-9-45-1.5H50v1602zm288-691q25 0 51 3t47.5 20.5 34.5 55 13 106.5q0 65-11.5 99.5t-30 51-42 19.5-47.5 3h-77v-358h62zm15-616q16 0 34 2t34 17.5 27 47 11 90.5q0 62-11 95t-26.5 48-32.5 18-31 3h-82V420h77z" fill="#000000"></path></svg>