<?xml version='1.0' encoding='utf-8'?>
<svg xmlns="http://www.w3.org/2000/svg" viewBox="0 0 1527 2041" width="299" height="400"><path d="M438 1320q-23 19-56.5 48t-68.5 60-66 60-50 48q15 19 37.5 37.5t47 36.5 49 35 44.5 32q104-30 203.5-88t188-133 164-159.5T1062 1129q51-76 102-165.5t91.5-186.5 66-198.5T1347 378q0-44-6-88-14-15-36.5-33t-49-34.5-54-29.5-50.5-18q-9 24-24.5 62.5t-32 81T1062 404t-26 77q19 9 45 18.5t45 19.5l25 12q10 0 25 12l26 43q0 26-20.5 75t-55 112-80 136-95.5 145.5T849.5 1195t-98 121.5-85 89T604 1448l-51-14-25-24zm166-25q26-25 65-74.5t84.5-111.5T847 978t90.5-134 75.5-120.5 49-90.5q-23-9-52-22t-54.5-30.5T912 541t-18-51q0-18 9.5-51.5t25-74.5 33.5-85.5 35.5-84.5 31.5-72.5 21-48.5l12-12q13-13 28.5-18t34.5-5q41 0 90.5 21.5T1312 110t86 58.5 59 45.5l12 38q1 3 4 27.5t3 69.5q0 57-10.5 143.5T1422 689t-94.5 240.5T1164 1205q-94 133-187.5 230.5t-180 165-161.5 110-131.5 66T413 1809t-38 10q-19-8-30-13t-19-8.5-15.5-8T291 1778q-10-6-31-18.5t-47-30-54-40-51-48-37.5-53T56 1532q0-24 13-46v-14q17-15 47.5-43t66.5-60.5 74.5-66.5 73-61.5 61.5-45 40-17.5q24 0 48 13t47 31 42.5 38 34.5 35z" fill="#000000"></path></svg>