<?xml version='1.0' encoding='utf-8'?>
<svg xmlns="http://www.w3.org/2000/svg" viewBox="0 0 1571 2041" width="308" height="400"><path d="M413 1746q-29-18-63.5-40t-65.5-45-51.5-44.5T212 1579t19-29.5 49-26 67-23 72-20 65-17.5 46-16q44-20 60-45t16-53q0-32-19.5-75t-43-82.5T501 1123t-19-32H327q13 20 30.5 49.5t33 62.5 26 65.5T427 1328q0 21-9 37t-31 21q-72 17-134 36t-117 36q-18 7-35.5 16t-31 20-21.5 25-8 30 9 34 31 38q30 32 55.5 54.5t55 44 65 45T341 1822h186zm864 0q-17-10-36.5-23t-38.5-26.5-37-27.5-33-25q-23-14-39-31t-16-34q0-15 18.5-29t48-25.5 65.5-22 71.5-20 65.5-18.5 48-17q43-20 59.5-45t16.5-52q0-21-9.5-48t-23.5-55-30-55-30-48.5-23.5-35.5-9.5-17h-155q14 20 31.5 49.5t33 62 26 65 10.5 59.5q0 22-9 38t-31 21q-72 17-134 36t-116 37q-18 6-35.5 15t-31 20.5-22 25-8.5 29.5q0 17 9.5 33.5T943 1621q28 29 52.5 50.5t51 41.5 58 41.5 74.5 49.5q6 5 12.5 9t13.5 9h185zM504 766v140H292V448H129q-20 0-27-9t-7-21q0-15 5-28l6-14 92-91h159L470 31h685l114 254h159l91 91q3 8 6 15l4 14 2 15q0 11-6.5 19.5T1500 448h-163v458h-216V766H504zm617-454l-64-168H561l-61 168h621zm87 344v-83H993V455h162v-34H459v34h163v118H410v83h798z" fill="#000000"></path></svg>