<?xml version='1.0' encoding='utf-8'?>
<svg xmlns="http://www.w3.org/2000/svg" viewBox="0 0 591 2041" width="116" height="400"><path d="M545 904q0 1 .5 41.5t1 103T548 1187t1.5 149 1 133.5.5 92.5q0 53-20 99.5t-54.5 81-81 54.5-99.5 20-99.5-20-81.5-54.5-55-81-20-99.5V882h126V295l20 1q12-3 12-27 0-26-10.5-40T175 215l-18-13 13-18q30-46 49.5-73T251 70.5t18.5-17T281 50h17q5 0 12 3.5t19 17 31.5 40.5 49.5 73l11 18-18 13q-2 0-12 15t-10 40q0 10 2 15t4 7 3.5 2.5 1.5 1.5l21 2v584h132v22zm-41 416q-49 4-100 5.5t-105 1.5q-56 0-109-1.5T86 1319v46q54 4 103 6t103 2q56 0 109-2t104-6zM305 336q-22 0-43.5-2.5T220 328l-4.5 3-4.5 3v43q45 9 92 9 17 0 33-1.5t31-3.5v-47q-1 0-1-1l-1-1q-15 2-30 3t-30 1zm-2 96q-23 0-46-2t-46-6v108q20 4 40.5 5t42.5 1q19 0 37.5-1t35.5-4V428q-15 2-31 3t-33 1zm-92 258q23 5 45.5 6.5T303 698q17 0 33-1t31-3V581q-17 2-35.5 3t-37.5 1q-22 0-42.5-1.5T211 580v110zm78-593q-5 4-12.5 14t-17 23-20.5 28.5-21 30.5q10 12 18 30.5t8 44.5q0 19-7 36 17 2 34 3t34 1h19l19-1q-8-18-8-37 0-27 7.5-46t18.5-31q-10-15-20.5-30.5t-20-28.5-17.5-23-13-14h-1zm-78 785h156V741q-33 3-64 3-23 0-46-1.5t-46-5.5v145zm289 47H86v363q51 4 104 6t109 2q54 0 105-2t100-5q-1-55-1.5-111t-1-105.5-1-88.5-.5-61v2zm-204 843q43 0 81.5-16.5t67-45 45-67T506 1562q0-26-.5-70t-.5-98q-51 4-104 5.5t-109 1.5q-54 0-103-2t-103-7v170q0 43 16.5 81.5t45 67 66.5 45 82 16.5z" fill="#000000"></path></svg>