<?xml version='1.0' encoding='utf-8'?>
<svg xmlns="http://www.w3.org/2000/svg" viewBox="0 0 1770 2041" width="347" height="400"><path d="M1412 341q0 64-24 120t-66 98-98.5 66-120.5 24-120.5-24-98.5-66-66-98-24-120 24-120.5 66-98.5 98.5-66T1103 32t120.5 24 98.5 66 66 98.5 24 120.5zm312 628q-9-45-31-83.5t-54-68-72.5-48.5-85.5-24v-2H726v2q-45 5-85.5 24T568 817.5t-54 68-31 83.5q-6 15-6 33v458q-26-13-47.5-23.5T391 1418q-19-9-35-17 4-37-10-69.5t-42-56.5q-29-24-65-35t-71-3q-9 3-12.5 6.5T147 1255l106 93-12 63q-2 4-2 9t-2 7-6.5 2-6.5 4l-62 19-107-94q-5 5-10 13t-4 19q-1 32 13 64t43 58q38 33 83.5 38t89.5-18l207 94v39q0 40 28 68t68 28q29 0 51.5-14.5T659 1709l22 10q28 13 52.5 3t37-31 8.5-47-34-44q-15-9-34-19.5t-41-22.5v-477h56v426q48 0 80.5 23.5t48.5 58 16 75.5-16.5 75.5-48.5 58-80 23.5h755v-740h57v584q0 40 28 68t68 28 68-28 28-68v-663q0-18-6-33zm-431 259q16 25 35 54t42.5 57.5 51 55.5 59.5 49q-23 1-43.5 0t-35.5-3q-18-2-32-4l-69 111-93-270-31-9 10 260-110-83q-14 8-31 16-14 8-33.5 16.5T970 1495q42-60 63.5-127.5T1067 1241l-5-6-62-18-9-64-42-48 27-59-10-63 55-35 26-59h64l55-35 54 35h64l27 59 54 35-10 63 27 59-42 48-9 64z" fill="#000000"></path></svg>