<?xml version='1.0' encoding='utf-8'?>
<svg xmlns="http://www.w3.org/2000/svg" viewBox="0 0 1974 2041" width="387" height="400"><path d="M1337 1512q-74 0-138.5-28t-112.5-76-76-112.5-28-137.5 28-138 76-113.5 112.5-76.5 138.5-28q73 0 138 28t113 76.5 76 113.5 28 138-28 137.5-76 112.5-113 76-138 28zm0-567q-44 0-82.5 16.5T1187 1007t-45.5 68-16.5 83 16.5 82 45.5 67 67.5 45.5 82.5 16.5 82.5-16.5 67.5-45.5 45.5-67 16.5-82-16.5-83-45.5-68-67.5-45.5T1337 945zm-570-22H342q-29 0-50-21t-21-50 21-50.5 50-21.5h425q30 0 51 21.5t21 50.5-21 50-51 21zm0 231H342q-29 0-50-21.5t-21-50.5 21-50 50-21h425q30 0 51 21t21 50-21 50.5-51 21.5zm0 230H342q-29 0-50-21t-21-50q0-30 21-51t50-21h425q30 0 51 21t21 51q0 29-21 50t-51 21zm1042-834q26 0 48.5 10t39.5 27 27 39.5 10 48.5v965q0 26-10 48.5t-27 39.5-39.5 27-48.5 10H165q-26 0-48.5-10T77 1728t-27-39.5-10-48.5V675q0-26 10-48.5T77 587t39.5-27 48.5-10h114l651-446q25-17 54-11.5t46 29.5q17 25 11.5 53.5T1011 221L532 550h1277zm-18 143H183v929h1608V693z" fill="#000000"></path></svg>