<?xml version='1.0' encoding='utf-8'?>
<svg xmlns="http://www.w3.org/2000/svg" viewBox="0 0 2008 2041" width="394" height="400"><path d="M1695 480q-14-28-39-43.5t-52-15.5q-42 0-68 25.5t-41.5 62-23 76.5-13.5 69q-8 69-12 139.5t-4 142.5q0 56 2 110.5t6 108.5q4 43 12 95t25 97.5 44.5 76 70.5 30.5q36 0 61.5-21.5t42.5-57 27.5-81 16.5-94.5 8.5-97.5 4.5-89.5V877q0-48-3-93t-8-91q-6-57-18-111t-39-102zm153-93q30 50 49.5 104.5t31 112T1946 721t9 120q0 5 .5 21t.5 35 .5 35.5.5 20.5q0 133-18 258.5t-69 236.5q-38 82-107.5 133t-162.5 51q-82 0-140-38t-97-99.5-62-139-34.5-156-15-151T1248 925q0-120 14.5-234.5T1316 472q17-45 42.5-86t61-72.5T1501 263t103-19q78 0 137 35.5T1848 387zM497 480q-15-26-39-42.5T404 421q-35 0-59.5 20.5t-42 55-28 78.5-16.5 91.5-8.5 94T245 846l-1 156q2 82 9 160.5t27 153.5q6 23 16 47t25 44.5 36 33.5 49 13q34 0 58-20.5t40.5-51.5 26-66.5T545 1250q13-72 17-147t4-151q0-51-1.5-101T561 750q-4-35-8-70.5t-11-70-17.5-67T497 480zm153-93q35 60 56.5 126T740 648.5t16 142 4 145.5q0 135-17.5 264.5T673 1445q-18 41-45 75t-61.5 59.5T491 1619t-88 14q-83 0-141-38.5t-97-101-62-141-35-159T53 1038t-3-130q0-72 6-149.5t21-151 41-140 65.5-116 94-79T404 243q76 0 140 37t106 107zm471 1043q13 26 13 58 0 31-11.5 57.5T1092 1591t-43.5 30-51.5 11q-28 0-54-11t-45.5-30-31.5-44.5-12-54.5q0-27 10-53t28.5-45.5 44-31.5 56.5-12q44 0 77 23t51 57z" fill="#000000"></path></svg>