<?xml version='1.0' encoding='utf-8'?>
<svg xmlns="http://www.w3.org/2000/svg" viewBox="0 0 1326 2041" width="260" height="400"><path d="M1177 1821H134v-108h1043v108zm-716-193q-52-7-105.5-30.5t-103-61-92-87T89 1341t-41.5-126-3.5-138q29 46 64.5 66.5T169 1159t31.5-35.5T178 1037q-24-46-34.5-86T133 874.5t7-70 18-68.5q15 19 34 48t40.5 58.5T276 897t41.5 36.5T354 939t28-40q10-34 11.5-58t-3-42.5-12-34-14.5-33-11.5-39T351 640q3-46 17-80t29.5-57 29.5-35.5 19-14.5q8-4 12-10 2-3 3-5-11 73-7 126 1 23 6 43t14 33 24 17 37-5q29-12 42-32.5t16-46-.5-55T586 459t-3-59.5 10-54.5 19.5-37.5T632 288t20-10.5 21-9.5 24-18 29-35q23-35 34-63t14.5-50.5 1.5-40-4-29.5q19 19 38.5 49.5t27 70-1.5 86-45 95.5q-29 39-39.5 75.5t-7 66.5 18.5 51.5 37 30.5 53.5-1 63.5-33.5 60-58.5 43-75q17 26 22 51.5t.5 53T1026 554t-28 74q-32 84-26 123.5t45 49.5q19 5 35-4.5t29.5-23 26.5-26 28-14.5q15 30 16.5 54t-4.5 45-17.5 40.5-22.5 40-19 44-7 52.5q1 44 25 65.5t56.5 23.5 66-13.5 54.5-45.5q3 41-1.5 66.5T1269 1150t-20 35-22 38.5-19.5 55-11.5 84.5q-5 77-32 133t-69 94-94 58.5-107 26.5q-19-31-21.5-54.5t5-42.5 20.5-35 24-33q12-18 22-49t8.5-69.5-21-82T864 1224q0 29-3.5 50t-11 39-19 34.5T803 1384q-18-11-20.5-30.5t1.5-44 10.5-51 7-51-8.5-44.5-37-31q-10 14-22.5 31t-24.5 30-23 17.5-18-7.5q-14-25-12.5-48t4-45.5-1-46.5-27.5-52q-26 14-38.5 35.5t-16 45-.5 45.5 8 37q9 25 15 42t8 28.5-.5 18.5-10.5 13-18 3.5-20.5-11.5-19.5-24.5-15-37.5q-14 11-23 27.5t-9 35.5 10.5 39.5T538 1350q-36 8-53.5-2t-29-29.5-23-43.5-35.5-45q-26 17-37.5 43.5t-12 55.5 8.5 58 26 52q16 23 30 56t25 62q12 35 24 71z" fill="#000000"></path></svg>