<?xml version='1.0' encoding='utf-8'?>
<svg xmlns="http://www.w3.org/2000/svg" viewBox="0 0 2005 2041" width="393" height="400"><path d="M1502 331l-4 37-11 34-17 35-23 30-29 24-32 20-35 12-38 6-37-2-36-10-35-16-30-21-27-28-19-32-15-34-8-36v-39l8-36 15-33 19-31 27-30 30-20 35-16 36-9 37-3 38 6 35 13 32 20 29 24 23 28 17 36 11 34zm-114 0l-3-24-11-23-16-19-23-11-24-6-25 2-24 10-20 13-14 22-7 23v26l7 23 14 21 20 14 24 10 25 2 24-5 23-12 16-19 11-23zm-112 1384l-114-198-122-190-129-187 56-25 55-30 141 203 132 209 121 218h-140zM371 675l-5-70 4-71 11-70 23-67 30-63 37-59 34-38 41-34 45-30 47-18 49-16 50-7 53 2 52 10 48 17 48 22 42 32 18 24 2 27-7 61 7 62 16 58 28 54 40 47 13 25v27l-10 24-48 80-27 90-12 41-27 35-42 36-48 29-51 21-54 14-55 5-55-4-56-14-52-21-48-28-42-36-35-43-29-48-22-53zm-193 933l22 17 28 8 28-2 26-9 165-102 165-96 74-25 76 1 108 21 110 21 41 63 40 65-7-1-6-1-163-31-160-31-41-1-41 14-149 89-150 91-34 18-38 10-41 2-41-6-36-14-32-21-30-27-22-32-17-38-3-30 11-30 22-21 261-159 264-156 51-20 53-10 54 5 15 3 15 3 49 66 46 68-80-17-82-15-45-1-43 15-230 135-228 137-11 13-2 17zm1222-153l-41-67-41-66 6-12 2-13 75-270 71-269-4-23-18-13-27-4-24-4-35-2-35 6-30 16-27 23-21 29-12 31-37 135-37 137-42-61-43-59 24-88 25-92 16-45 24-40 30-36 38-30 42-21 45-13 47-5 46 3 27 5 25 5 37 11 32 20 26 31 17 35 6 38-5 39-89 334zm555-871v18l-265 81-22-54-34-47 284-87 22 52z" fill="#ffd100"></path></svg>