<?xml version='1.0' encoding='utf-8'?>
<svg xmlns="http://www.w3.org/2000/svg" viewBox="0 0 1864 2041" width="365" height="400"><path d="M934 35q123 0 237 32t212.5 89.5 180 139 139 180T1792 688t32 237q0 124-32 238.5t-89.5 214-139 180.5-180 139-212.5 90-237 32q-124 0-238.5-32t-214-90T301 1558t-139-180.5-90-214T40 925q0-123 32-237t90-212.5 139-180 180.5-139 214-89.5T934 35zm0 1688q109 0 210.5-28.5t189.5-80 160.5-124.5 124.5-161.5 80.5-190.5 28.5-213q0-109-28.5-210.5T1619 525t-124.5-160.5-160.5-124-189.5-80T934 132q-110 0-212 28.5t-190.5 80-161.5 124T245.5 525t-80 189.5T137 925q0 110 28.5 212.5t80 191 124.5 161T531.5 1614t190.5 80.5 212 28.5zm127-1062q72 0 137 20t120.5 56.5 99.5 87 72 111.5q-1 0-1 1 0 2 3.5 7t8 10 8 8.5l3.5 3.5q0 2-4 3.5t-4 6.5 2.5 14 2.5 17q0 7-6 13t-11 6q-6 0-17-3.5t-16-3.5q-3 0-3 2 0 5 6.5 14t14.5 17q10 10 22 21 6 15 10 28 4 11 7 24t3 22q0 2 3 6t6 8.5 6 8 3 4.5q0 2-4.5 2h-9.5q-15 0-37-1.5t-42-3.5q-24-2-48-5h-2q-8 0-13.5-13t-9.5-29q-4-18-8-42-12 4-37 7t-56 5.5-65 4.5-64.5 3.5-54.5 2-35 .5-34.5-.5-53.5-1.5-63-2-63-3.5-54-5.5-35-7q-6 26-11 50t-10 50q-34-2-62-4-24-2-46-3t-28-3q-2-1-7.5-12t-5.5-14q0-8 8.5-18.5t19-21.5 19-23 8.5-24q0-8-1.5-16.5T630 1034v-5l1 5q-30-4-70-18.5T479 980t-83-46-73-51-52-49.5-20-41.5q0-10 11-21.5t29.5-21.5 43-16.5T386 726q55 0 100 22.5t78 49 53.5 49T645 869q12 0 24-6.5t17-14.5q28-46 68.5-81t89.5-58.5T948 673t113-12z" fill="#ffd100"></path></svg>