<?xml version='1.0' encoding='utf-8'?>
<svg xmlns="http://www.w3.org/2000/svg" viewBox="0 0 1999 2041" width="392" height="400"><path d="M189 383l-13 179-5 180 5 179 13 182 16 45 32 35 44 17 101 15 98 10-10-44v-45l9-44 20-43 77-129 17-45-6-46-59-174h-58l107-279 109 279h-58l49 143 9 57-5 59-23 54-81 130-11 33-2 34 10 35 13 35 126 8 122 4-5-9-14-46-3-49 9-48 19-46 80-129 16-45-5-46-60-174h-59l109-279 109 279h-59l48 143 11 57-7 59-24 54-78 130-14 33-3 34 11 35 22 48 117-1 120-7-2-2-16-46-2-49 9-48 21-46 78-129 16-45-6-46-58-174h-60l108-279 109 279h-60l49 143 11 57-6 59-23 54-80 130-11 33-3 34 9 35 15 33 144-13 144-20 44-17 33-35 14-45 12-182 5-179-5-180-12-179-14-47-33-34-44-18-212-27-214-16-213-7-215 7-214 16-212 27-44 18-32 34zM64 370l10-49 23-48 31-41 39-35 46-21 50-14 187-25 188-15 190-8h189l187 8 187 15 188 25 50 14 46 21 38 35 33 41 20 48 11 49 14 226 2 225-10 225 9 48 33 33 93 54 23 22 8 31v217l-5 25-15 20-24 13-23 3-25-9-252-143-55-22-62-2-81 9-79 10 26 59 17 62-3 65-24 60-87 146-80-48 86-147 17-49-10-51-40-89-120 6-117 3 20 42 17 62-4 65-25 60-86 146-80-48 87-147 15-49-9-51-38-79-121-3-122-5 24 49 14 62-3 65-23 60-87 146-83-48 88-147 16-49-10-51-43-96-138-13-139-20-50-12-46-25-39-34-31-41-23-48-10-49-11-187-3-185 3-187z" fill="#000000"></path></svg>