<?xml version='1.0' encoding='utf-8'?>
<svg xmlns="http://www.w3.org/2000/svg" viewBox="0 0 1974 2041" width="387" height="400"><path d="M1049 869q-47 0-67-21t-20-68 20-67.5 67-20.5q48 0 68.5 20.5T1138 780t-20.5 68-68.5 21zm85-357q0 48-18 74t-70 26q-26 0-43-7t-27-19.5-14-31.5-4-43V176q0-24 4-42.5t14-31.5 27-20 43-7q53 0 70.5 27t17.5 74v336zm199 811q15-2 10 12-24 93-48 184t-48 183q-9 34-28 47t-53 13-53-13-28-47q-25-92-48.5-183T988 1335q-3-14 11-12h62q10 0 11 10 21 88 42 175.5t43 175.5q2 9 9 9t9-9q21-89 42.5-176t42.5-175q1-10 12-10h61zm537-644q11 11 15.5 23.5t8.5 26.5q20 69 30 137t9 139q0 21-6.5 32t-18 16-25.5 7-29 4q-18 3-36.5 4t-37.5 1h-9q-22 52-55.5 80.5T1628 1194q-43 13-80 9.5t-77-23.5q-37-18-62-44t-43-64H617q-11 26-24.5 46t-31 34.5-39 25T474 1195q-38 11-76.5 7t-72-19.5-61.5-42-45-62.5q-27-1-53.5-2t-53.5-3q-26-1-40.5-9.5T50 1041t-8.5-32.5T40 969q0-20 1.5-39t5.5-39 9.5-38.5T75 817q26-36 64-56 32-17 66.5-26.5T275 717q121-25 248-45 15-3 25.5-9.5t19.5-15 17-18.5 17-19q19-17 37.5-33.5T678 543q41-33 84.5-56t95.5-37v69q1 9 1.5 18.5T861 557q-39 11-69.5 30t-57 42.5T683 678t-53 48q-11 10-23 20t-24 19q-10 2-19 3.5t-18 2.5q-49 7-97.5 16T352 804q-84 14-165 45-8 4-15 6.5T160 866q-7 11-10 22.5t-5 25.5q-5 23-3 49 0 8 8 9 15 2 30.5 3t31.5 2h36.5l36.5 1q-2 28 8 53.5t28 44.5 42.5 30 52.5 11q38 0 63-10t39.5-28.5T540 1033t9-61h886l2 26q1 25 13 46.5t30 37.5 41 25 47 9 47-9 41.5-25 29.5-38 11-47q0-7 .5-13.5t.5-12.5q60-1 122-6 8-1 8-10-3-48-10-93.5t-19-92.5q-55-16-116-30-27-8-53-19t-51-25q-26-14-50-27.5t-49-28.5q-42-24-84.5-44t-90.5-32q-17-4-35.5-7.5T1233 550q2-26 1.5-52.5t.5-52.5q25 3 48 7.5t47 9.5q53 13 99 36t93 48q23 14 45.5 26.5T1613 597q24 12 47.5 23t49.5 18q20 5 41 5t41.5 1.5 40 8.5 37.5 26zM794 1388q-27 0-37.5 12t-10.5 38v31.5l1 31.5h159q11 0 11 11v44q0 10-11 10H747q0 19-.5 38t-.5 38q0 25 10.5 37.5T793 1692h120q11 0 11 12v38q0 11-12 11-22 4-43 6-8 0-15 .5t-15 1.5l-39 1q-37 0-70-10-15-6-26.5-14t-19.5-22q-12-18-15-36.5t-3-38.5v-203q0-20 3-37.5t15-35.5q8-14 19.5-23t26.5-14q18-6 35.5-8t36.5-1h34l34 1q10 1 20.5 2.5t21.5 3.5q6 2 9 4t3 9v38q0 11-11 11H794z" fill="#ffd100"></path></svg>