<?xml version='1.0' encoding='utf-8'?>
<svg xmlns="http://www.w3.org/2000/svg" viewBox="0 0 1534 2041" width="301" height="400"><path d="M148 690v1006h1238V117H520v573H148zm681 186q-11-18-23-42t-23-51.5-18-56-7-55.5q0-38 18.5-66.5T844 566q35-10 77-16.5t85.5-10 85.5-5 78-1.5q23 0 43.5.5t34.5.5q17 1 30 1-31 22-58 40-23 16-46.5 31.5T1138 627q-9 6-28.5 6.5t-44.5 1-51 2.5-48 10.5-36 27-14 50.5q0 33 19 85t64 127l3 7q10 17 18.5 31t14 30 8.5 35 3 45q0 30-4 72.5t-12 104.5q0 23-7.5 44t-7.5 34q11 11 13 30.5t2 30.5q0 41-25 75.5t-68.5 59-103 38.5-128.5 14-128.5-14-103-38.5-68.5-59-25-75.5q0-34 25-67.5t68.5-59.5 103-42 128.5-16q17 0 36.5 2.5t38.5 7 36 10 28 11.5q16-15 25.5-33.5t14.5-37 6.5-36 1.5-30.5q0-50-10-92.5T860 943q-14-37-31-67zM426 226q-29 40-64.5 89.5t-70.5 99-65 93.5-47 73h247V226zM1494 24v1780H40V581L426 39l16-15h1052z" fill="#000000"></path></svg>