<?xml version='1.0' encoding='utf-8'?>
<svg xmlns="http://www.w3.org/2000/svg" viewBox="0 0 2058 2041" width="403" height="400"><path d="M1075 1289l57 138v46q0 9-1.5 24.5T1120 1530l-68 104-92-57 56-92v-46l-56-150q-44 9-86 13.5t-76 20.5l34 104q9 9 10.5 19t1.5 27q0 9-6 24.5t-6 32.5l-68 104-104-57 57-92q0-9 6.5-12t6.5-12q0-8-2-11t-11-11l-34-82q-35 19-70.5 37.5T534 1439L50 587q100-78 213-140t237-105 257.5-66 270.5-23q139 0 270 23t254.5 66T1790 447t218 140l-496 852q-26-17-53-33t-63-24l24 45q0 9 6 19t6 27q0 9-7.5 24.5T1409 1530l-59 104-103-57 58-92v-46l-46-116q-44-8-88.5-16.5T1075 1289zm23-553l45 184v23q0 18-1.5 35t-9.5 35l-93 137v24q45 0 87.5 7.5t85.5 16.5v-36q0-9 1.5-24.5t10.5-32.5l92-151v-34l-45-184h-47q-9 0-9-5 0-6 9-6l92-230q0-9 7-9t16 9l93 230v11h-47l47 184v23q0 18-1.5 35t-10.5 35l-81 137q-9 9-10.5 12.5t-1.5 11.5v12l23 46q27 8 58.5 23t58.5 23l390-657q-182-121-392-187t-437-66q-235 0-440.5 66T199 621l380 657q17-8 34.5-17.5T648 1243l-11-23q-8-17-9.5-28.5T626 1162q0-9 2.5-24.5T648 1105l82-151q11-14 11-22-11-3-11-12l-47-184h-46q-8 0-8-5 0-6 8-6l104-230q0-9 1-9 2 0 10 9l92 230q9 0 9 6 0 5-9 5h-46l46 184q9 9 10.5 12t1.5 11q0 18-7.5 35t-16.5 35l-80 137q-8 9-9.5 12.5T741 1174t1.5 10 9.5 2v23q43-8 81-17.5t80-17.5v-12q0-9 7.5-24.5T936 1105l80-151q9 0 10.5-7t1.5-15v-12l-46-184h-46q-8 0-9.5-5.5T1028 495q0-9 5-9 6 0 6 9l104 230q-3 11-11 11h-34z" fill="#000000"></path></svg>