<?xml version='1.0' encoding='utf-8'?>
<svg xmlns="http://www.w3.org/2000/svg" viewBox="0 0 1886 2041" width="370" height="400"><path d="M1836 1291v124h-332q-19 45-28 83.5t-9 75.5q0 29 14 62t33.5 66 40 64.5 35.5 54.5h-136q-19-33-38.5-59.5t-35.5-54-26.5-59.5-10.5-74q0-37 14-75.5t23-83.5h-296v-124h346q18-37 27.5-73.5t9.5-74.5q0-37-9.5-75t-27.5-85h-346V859h296q-9-37-23-73t-14-74q0-37 14-75t23-85h-296V429h346q18-38 27.5-79t9.5-70q0-55-29.5-113T1343 35h136q23 28 43.5 52.5t35 52T1581 201t9 79q0 38-14 74.5t-23 74.5h283v123h-332q-10 23-16.5 42.5t-11.5 38-7 37.5-2 42q0 75 37 147h332v124h-283q9 47 17 85t8 75q0 38-8 74.5t-17 73.5h283zM703 1661q55-176 89-354.5T826 933t-34-376.5T703 206q-116 37-213.5 107.5T322 478.5t-109.5 210T173 933q0 125 39.5 241T322 1385.5t167.5 167T703 1661zM50 933q0-166 54.5-313T256 357.5t230-193T777 59q84 205 128.5 423.5T950 933q0 233-44.5 452T777 1809q-158-27-291-107t-230-196.5T104.5 1242 50 933z" fill="#000000"></path></svg>