<?xml version='1.0' encoding='utf-8'?>
<svg xmlns="http://www.w3.org/2000/svg" viewBox="0 0 2156 2041" width="423" height="400"><path d="M341 625q1-11 3-28t2-34q0-32-2.5-64.5T341 438q0-27 7.5-42t23.5-22.5 41-9 60-1.5q36 0 68 4t41 14v954q-18 18-51 21t-70 3H201q-8 1-16.5 1H168q-51 0-89-15.5T20 1287V846q0-59 2.5-102.5t17-72 44-42.5 83.5-14q37 0 75 5t87 5h12zm47-221q-5 8-7 21t-2 30l7 122q0 38-10 61t-39 23q-12 0-26-2t-27.5-4-25.5-4-18-2q-60 0-97.5 7.5T84 681t-28.5 44.5T48 792v9l1 9v40q-1 6-1 11.5V1022q0 110 4.5 180t18.5 99q17 13 41.5 17t64.5 4q28 0 63.5-2t80.5-5 101.5-5 127.5-2V403zm587 295q12-24 27.5-39t37-22.5 50-10 66.5-2.5q63 0 134.5-5t140.5-5q36 0 44 27t8 81q0 27-1 46t-5.5 31.5-15 18.5-28.5 6q-19 0-45.5-1.5t-55-3-56.5-3-50-1.5q-25 0-40 6t-15 24 12.5 28 30.5 14.5 39.5 5.5 39.5 1l98-12h3q10 0 24.5 1.5t30 10 32 26T1512 969v170q0 50-2.5 92.5t-16 73.5-43 48.5-84.5 17.5q-32 0-59-2t-58.5-4-73-4-102.5-2h-23q-19 0-41-5t-34-19q-5-20-6-38-2-17-3-37.5t-1-40.5 2-32.5 7.5-20 16-10.5 28.5-3q33 0 59.5 3t53 6.5 54.5 6.5 64 3q28 0 48-7t20-26q0-18-12-27.5t-30.5-14-40.5-5.5-41-1q-45 0-85-2t-70-13.5-47-36-17-70.5V699zm605-7q17-43 61-57t105-14h86q69 0 122.5 4t90 23 55.5 60 19 114q0 39-4 62.5t-17 35.5-38 15.5-67 3.5q-35 0-56-5t-32.5-13-15.5-18-4-21v-4l3-52q0-23-10.5-35t-46.5-12q-19 0-25 24.5t-6 61.5q0 45 1 74.5t1.5 55 1.5 52 1 63.5q0 44 5 74t22 30q34 0 44-17t10-43v-50q0-15 1.5-28t9-23 23-16 43.5-6q19 0 41 1.5t41.5 3.5 34.5 3.5 21 1.5q10 10 15 23t7.5 26.5 3 26.5.5 22q0 47-9 88t-30.5 71-56.5 47-86 17q-24 0-52.5-1.5t-60.5-1.5-60 1.5-54 1.5q-27 0-47.5-1.5t-37-7.5-29.5-18-24-33q-9-32-14-59.5t-7-56.5V835q0-52 3.5-90.5T1580 692zm493 27q-9-24-30-37t-50-19-64.5-7.5-72.5-1.5q-41 0-80.5-2.5T1711 649q-31 7-51 25t-31 44-15.5 58.5-4.5 69.5q0 5 .5 9t3.5 9v128q0 37-6 92.5t-6 110.5v5q0 27 1.5 49t10.5 37 28.5 23 54.5 8q29 0 64-3t72-3q36 0 71.5 5.5t61.5 5.5q27 0 38-11 25-6 40.5-18t23.5-30 11-40 3-47q0-24-1.5-52t-1.5-57h-148q0 36-1 67.5t-8 57-22 43.5-43 27q-29 0-48.5-10.5t-31-28.5-16.5-43-5-54q0-2 .5-5t3.5-6V992q0-20-2.5-50t-2.5-60q0-26 3-50.5t11.5-43 24-30T1832 747q36 0 56 9.5t29 28 11 46 2 64.5h148q0-33 3.5-59t3.5-51q0-16-2.5-32.5T2073 719zm-979-60q-24 6-38.5 14.5T1033 695t-10.5 30-2.5 41q0 31-3 70.5t-3 78.5q0 45 9 73t25.5 43.5 41 21 55.5 5.5q4 0 6-1h75q23 0 45 3t39.5 11.5 28 25 10.5 43.5q0 40-28.5 58t-69.5 16l-169-6q-17 0-30.5 1.5t-27.5 4.5v97h196q25 0 61.5 5.5t71.5 5.5q36 0 58.5-7.5t36-21.5 19-32.5 8.5-41.5v-202q0-59-30.5-80.5T1357 915q-8 0-11 3h-103q-24 0-46-2.5t-38.5-10-26-22-9.5-37.5q7-43 39-59t77-17l144 8q31 0 58-7V649q-14 3-28 4t-27 1h-12l-13-1h-149q-29 0-58.5 1t-59.5 5zm-248-44q20 0 32.5 2t20 8 10.5 17 3 29v639q0 18-2.5 28t-7 14.5-12.5 5.5-18 1H749q-13 0-27-2.5t-26-9-19.5-17.5-7.5-28V681q0-43 11-56zm32 696V649H706v662h172zM215 869q0-27 1.5-49.5t8.5-41 22-32.5 43-23q9 0 22 1t26.5 5.5 26.5 14 23 27.5v443q-11 20-35 33t-52 13q-23 0-46-11t-40-35V869zm-23 736q-19 18-37.5 24.5T115 1636q-22 0-44.5-3.5T20 1629v-195l98-11q46 0 67.5 28t21.5 79q0 20-3.5 39.5T192 1605zm62-461q0 25 5.5 39t16 21 26 8.5 36.5 1.5q7-7 9-20.5t2-31.5q0-98-4-157t-4-96v-40q0-25 .5-34t.5-17q0-22-10-34.5T290 771q-20 0-25.5 9.5T259 807zm1701 313q1-4 6-11 5-5 14.5-8.5t27.5-3.5q10-7 21.5-8.5t20.5-1.5q45 0 68 23t23 65q0 17-3.5 36t-11 36-18 29.5-25.5 15.5q-33 0-59-2.5t-44-12-27.5-28-9.5-51.5q0-21 4.5-42t12.5-36zm-146 148q-14 13-30.5 18t-33.5 5l-72-6q-20 0-37 7v-195l108-11q35 0 54.5 33.5t19.5 95.5q0 14-2.5 26.5t-6.5 26.5zM1097 381h74q8 9 13.5 22t10.5 27.5 10.5 27.5 14.5 21q9-8 14.5-21.5t7.5-27.5 2.5-27.5.5-21.5h98v171q0 10-8 15t-17 5q-10 0-17.5-5t-7.5-15V404q-9 20-18 42t-15.5 45-10.5 45-4 41h-51q-9-18-17.5-40.5t-15.5-46-11-46-4-40.5q-3 14-4 28.5t-1 29.5q0 30 2.5 60t2.5 55q-11 0-20.5 2.5T1108 582q-13 0-13-14zm-170-13q6-4 14-4 43 0 68 9t37.5 24.5T1062 434t3 46q0 29-9.5 50.5T1028 558q-26 14-65 14-48 0-72.5-30.5T866 452q0-24 12-48zM362 1434q11-7 23-8.5t29-1.5q15 0 32 4t31 11.5 23.5 18.5 9.5 24h-17q-22 0-31 1.5t-12 1.5q-2 0-2-4t-6-18h-15q-14 0-21 2t-15 7q-8 8-15 20t-7 30q0 14 2.5 27.5t8.5 24 15.5 17 23.5 6.5q11 0 19.5-6t14.5-14 9-16 3-11q0-2-.5-2.5t-.5-1.5v-1l-48-4 2-27h92q0 28-2 51t-11 39.5-27.5 25.5-51.5 9q-16 0-32-6t-29.5-15.5-24-22T316 1569v-6q0-17 .5-36.5t5-37 14-32.5 26.5-23zM1905 429v-2l-2-9-3-2q-3-12-20-12 0 2-4 2-7 0-20.5 3t-20.5 11l-2 2-1 1v100q26 11 44 11 20 0 27-10.5t7-18.5l-5-1 28-1q8 0 12 1h10q1 5 1 13 0 30-25 47t-60 17h-24q-32-5-56.5-18t-31.5-33V403q15-16 41.5-28.5T1866 362h10q32 0 55.5 17.5T1955 429h-50zm-367 75q-20 17-40 20t-57 3v50h-50V381l99-10q29 0 48 13.5t19 57.5q0 18-4 34.5t-15 27.5zm168-124q0 34 15 82.5t33 100.5l5 14h-48q0-9-.5-14.5T1707 552t-8-10.5-14-14.5h-72v50h-51q0-55 15.5-107.5T1613 381zM902 1434q18 36 33 88t15 107h-48l-7-49h-67q-5 12-10 19.5t-14 29.5h-49q20-55 37.5-107t35.5-88h74zm441 0q18 36 33 88t15 107h-48q5-4 5-12-6-35-14-37l-11-1-17 1h-38q-5 11-10 20t-13 29h-51q20-55 38.5-107t35.5-88h75zm122 0v146h73v-146h49v56q0 15 1.5 33.5t6.5 48.5q0 13-2 22t-9 14.5-20.5 9-37.5 6.5h-21l-18-.5-19-1.5-24-3q-11-4-25.5-15.5T1404 1573v-34q3-10 7.5-38t4.5-57v-10h49zM657 404q10-18 40.5-30t63.5-12q29 0 49 10.5t20 38.5q0 4-.5 8.5T828 429h-24q-10-8-21.5-13t-27.5-5q-22 0-33 13t-11 42q0 17 3.5 33.5T730 527q19 0 38-3t36-20h24q8 16 8 27 0 20-19.5 30.5T771 572q-18 0-36-3.5t-34-9.5-27.5-14.5T657 527V404zm391 1176h75v49H975v-195h73v146zm-267-98h-51v147h-50v-147h-72v-48h173v48zm1124-48v195h-73v-195h73zm222-1030l-57 4q-6 12-6 20 0 7 1.5 14t1.5 18q0 18 1.5 31t3 25.5 3 25.5 1.5 30h-70V404h-45l-5-31h172zM290 1434v195h-50v-195h50zm633-951l17 34q10 2 17 5.5t18 3.5h7.5l8.5-1q17-9 21.5-25.5t4.5-33.5q0-18-6.5-29T995 420t-18-8.5-14-2.5q-19 0-37 18zM582 1629h-48v-195h48v195zm1421-147q-11 13-11 32 0 8 2.5 18.5t6.5 20 9.5 16 11.5 6.5q4 2 8 2h7q23 0 34-10t11-17q0-15-1-30t-5.5-27.5-13-20-22.5-7.5q-20 0-37 17zm-1860 98q7-14 9-29t2-29v-19q0-10-4.5-16t-10.5-9.5-12-5-9-1.5q-14 0-25.5 5.5T70 1482v98h73zm1616 0q0-9-.5-25.5t-3-32.5-7.5-28-14-12h-49v98h74zM1441 479h49q8-9 12.5-14t6.5-10 2.5-10.5.5-15.5q-8-10-13.5-12.5T1485 414t-16.5 1-23.5 1zm220-75q-19 19-26.5 43t-11.5 56h62q0-9-4-22t-8.5-27-8-27.5-3.5-22.5zM893 1556q-9-7-12.5-19.5T874 1512t-7-21-15-9q0 19-4.5 32.5T834 1554zm440 0q-6-9-9.5-22t-7-24.5-9-19.5-14.5-8q0 9-.5 16.5t-3 15.5-7.5 17.5-14 24.5h65z" fill="#000000"></path></svg>