<?xml version='1.0' encoding='utf-8'?>
<svg xmlns="http://www.w3.org/2000/svg" viewBox="0 0 1612 2041" width="316" height="400"><path d="M1387 1556q0 23-16.5 39.5T1331 1612q-24 0-40-16.5t-16-39.5q0-24 16-40t40-16q23 0 39.5 16t16.5 40zM40 329q55-80 126.5-141.5T319 89t166.5-48 168 10.5 158 77T947 279l89-40-108 293-300-115 100-55q-50-81-121.5-120t-160-41T255 232 40 329zm1460 628q15 0 28-5.5t22.5-15.5 15.5-23 6-27v-41q0-30-21.5-51t-50.5-21h-23l14-129q2-7 1-12t-5.5-9-14.5-4h-16l1-79q4-9 8.5-27.5t7.5-43.5 2.5-55-6.5-61l62-41q17-11 21-29.5t-6-35.5l-96-141q-5-9-16-14.5t-23-5.5q-14 0-25 8l-58 38q-43-34-84.5-53t-77-26.5-63-7T1061 50q-17 5-23 10.5t-8 11.5q-2 7 2 14l355 506v27H779q-8 0-11.5 3.5T762 631t-2 12l58 916q2 12 7 21 5 8 13.5 14t22.5 6v104h-23v28H322v90h1241v-90h-193q30-7 56-23t44.5-39.5 29.5-52.5 11-61q0-53-27.5-95.5T1411 1395l47-438h42zm-29-130h29q8 0 12.5 5t4.5 13v41q0 7-4.5 12t-12.5 5h-38zm-48-594q-11-13-21.5-26t-19.5-25l25-16q1-2 6-2 7 0 10 5l54 81q5 11-3 16l-25 16q-5-12-11.5-25t-14.5-24zM956 1732v-28h-23v-104h222q14 49 50 84.5t86 47.5H956zm485-176q0 23-9 42.5t-24 34.5-35 23.5-42 8.5q-23 0-43-8.5t-35-23.5-23.5-34.5-8.5-42.5 8.5-43 23.5-35 35-23.5 43-8.5q22 0 42 8.5t35 23.5 24 35 9 43z" fill="#000000"></path></svg>