<?xml version='1.0' encoding='utf-8'?>
<svg xmlns="http://www.w3.org/2000/svg" viewBox="0 0 2001 2041" width="392" height="400"><path d="M1101 1429l14 53q10 11 11.5 21t1.5 20q0 20-8 39t-19 29l-68 134-121-67 68-108q0-9 6.5-18t6.5-14-6.5-8.5-6.5-12.5l-28-68H765l13 53v41q0 20-2 39t-11 29l-68 134-121-67 67-108v-53l-27-68H252q-45 0-82.5-16.5t-64-44-41-64.5-14.5-77V336q0-40 14.5-76.5t41-64 64-44.5 82.5-17h1496q40 0 77 17t65 44.5 44.5 64T1951 336v891q0 40-16.5 77t-44.5 64.5-65 44-77 16.5h-309l13 53q9 11 11 21t2 20q0 20-2 39t-11 29l-81 134-121-67 67-108q10-9 11.5-18t1.5-35l-27-68h-202zm-27-755l54 215v28q0 20-1.5 38.5T1115 984l-95 175q-9 11-11 14.5t-2 12.5v13l41 96h202l-28-55q-9-20-11-33t-2-34q0-10 8.5-28.5t19.5-38.5l93-176q14-17 14-27l-14-14-53-215h-55q-9 0-9-8 0-9 9-19l122-270h14l107 270q11 10 11 19 0 8-11 8h-41l41 215q11 11 12.5 14.5t1.5 13.5q0 20-9 38.5t-18 28.5l-94 175q0 11-7 14.5t-7 12.5q3 13 14 13l26 96h338q20 0 37-9.5t29.5-24.5 20-34.5 7.5-40.5V377q0-50-27-78.5t-67-28.5H278q-40 0-67 28.5T184 377v809q0 21 7.5 40.5t20 34.5 29.5 24.5 37 9.5h284l-27-55v-67q0-10 2-28.5t11-38.5l108-176v-41l-53-215h-55q-9 0-11-8.5t-2-18.5l121-270h13l122 270v27h-54l54 215v28q0 20-2 38.5T778 984l-109 175v40l41 96h202l-26-55q-11-20-12.5-33t-1.5-34q0-10 1.5-28.5T886 1106l107-176v-41l-54-215h-53q-11 0-11-8 0-9 11-19l107-270h14l121 270q10 10 10 19 0 8-10 8h-54z" fill="#000000"></path></svg>