<?xml version='1.0' encoding='utf-8'?>
<svg xmlns="http://www.w3.org/2000/svg" viewBox="0 0 1421 2041" width="278" height="400"><path d="M596 898l-242 243 375 364 231-242q43-43 60-91.5t13.5-96.5-24-92.5T955 903t-77-56.5-90.5-25.5-97 14.5T596 898zm400-120l73-73q22-18 28-43.5t-2-49.5-28-42-47-23l-48-12-400 12q-23-5-43.5-9.5t-40-12.5-38-20.5T413 474q-40-36-55-85.5t-7-99 37-94 75-72.5q36-18 80-35t90-26q86-14 179.5-18t189.5 0 189.5 18T1371 99l-48 109q-77-18-162-29.5T989.5 164 818 165t-162 18q-36 10-70.5 20.5T524 232q-23 14-37 33.5T470 307t4 43 25 39.5 37.5 27.5 46.5 9l389-12q18 0 36 1.5t36 10.5q64 14 108 53.5t60.5 92 4 110.5-63.5 107l-72 73q40 55 58.5 120.5t14 132.5-31.5 130.5-78 113.5l-315 316-96-98-231 218q-9 10-19.5 17.5T354 1820q-10 0-20.5-4.5t-20-12.5-15-19-5.5-25q0-18 7.5-28.5T317 1711l218-218-158-170-230 231q0 8-14 10t-22 2q-28 0-44.5-17T50 1505q0-9 1.5-19.5T63 1457l230-219-109-97 327-315q50-49 111.5-78.5T749 711t129 9.5T996 778z" fill="#000000"></path></svg>