<?xml version='1.0' encoding='utf-8'?>
<svg xmlns="http://www.w3.org/2000/svg" viewBox="0 0 2069 2041" width="405" height="400"><path d="M508 1409q-4-27-8.5-53.5T488 1303l-6-24q-4-12-4-26 1-14 5-23.5t12-19.5q14-17 62-29.5t118-20.5 156.5-12 177.5-4q94 0 185.5 4.5t168 12.5 131 20 74.5 28q8 6 14.5 16.5t6.5 29.5q0 16-4 29l-5 25q-5 26-12.5 52.5t-8.5 53.5q32 10 75.5 21.5t88.5 22.5 87.5 20 72.5 14q8-32 10.5-71.5t2.5-78.5q0-23-.5-44.5t-1.5-40.5q-3-3-6-5.5t-7-5.5q-83-66-185.5-112t-212.5-74-221.5-40.5T1048 1008h-45q-102 0-214 12.5t-222 41-211.5 74.5T173 1249q-1 20-2 43.5t-1 48.5q0 38 2.5 76t10.5 68q30-5 72.5-13.5t88-19 89-22T508 1409zm113-115q5 23 11.5 56.5t6.5 66.5q0 38-12.5 66t-47.5 41q-24 9-59.5 19t-76 20-83 20-80.5 17.5-68.5 13-47.5 7.5h-15q-37 0-58.5-27t-33-65-14.5-78-3-66q0-13 1-38.5t1.5-52T44 1245t1-32q0-14 5.5-23t13.5-17q2-3 27.5-26t76-56 126.5-70.5T473 951t233.5-53T996 877q173 0 313 21t250.5 52.5T1751 1020t135.5 72 84 59 35.5 31q11 8 17 42.5t6 110.5q0 47-4.5 98t-17 94-35 72-57.5 31l-15 1q-18-3-54.5-10.5t-82-17-95-21.5-92-23.5-74.5-23-42-20.5q-19-16-26-39t-7-51q0-34 7-68t13-58q-31-6-79.5-10t-107.5-7-126-4-134-1q-59 0-115.5 1t-106 3.5-90 5.5-67.5 7z" fill="#000000"></path></svg>