<?xml version='1.0' encoding='utf-8'?>
<svg xmlns="http://www.w3.org/2000/svg" viewBox="0 0 2457 2041" width="482" height="400"><path d="M893 1245q-57 0-107.5-21.5t-88-59-59.5-88T616 968q0-57 22-107.5t59.5-87.5 88-58.5T893 693t108 21.5 89 58.5 60 87.5 22 107.5q0 58-22 108.5t-60 88-89 59-108 21.5zm0-425q-30 0-57 11.5t-47.5 32-32 47.5-11.5 57q0 32 11.5 59t32 47.5 47.5 32 57 11.5q31 0 58-11.5t47.5-32 32.5-47.5 12-59q0-30-12-57t-32.5-47.5-47.5-32-58-11.5zM1958 38l24.5-3.5L2001 33l55-4-3 59q-1 14 11.5 23t27.5 9l3-1q5-2 9.5-6t14.5-18l18-49 48 22q18 8 35 19l34 22 45 34-38 41q-5 5-7 12.5t-2 13.5q2 14 12 21.5t21 7.5h6l60-37 22 55q0 2 3.5 10t8 19.5 9 23.5 6.5 22l12 55-56 5q-26 10-26 32 0 11 7 22t19 11l61 9-48 129-27 49-47-29q-5-5-15-5h-13q-22 10-22 32 0 6 3 12t6 8l39 46-50 29q-2 1-9 6t-17 11-21.5 12-21.5 10l-50 21-16-53q-6-10-13.5-16t-18.5-6h-6q-25 6-26 38l-2 52-51-6q-22-2-41-5t-39-9l-43-12 9-47q1-5 1-10v-10q0-18-8-26t-22-8l-15 3q-5 4-11 13l-35 36-38-36q-13-16-26-31t-24-32l-25-37 34-29q8-7 15.5-16.5t9.5-15.5v-4q0-13-8-21.5t-16-8.5h-17l-51 8-4-53q-3-18-3-38 0-13 3-30l-5-5v-65l67 12q4 2 7 2.5t5 .5q14-7 18-12t9-18q0-6-4-15.5t-14-15.5l-52-29 38-46q1-2 6.5-8.5t13-15 16-17.5 16.5-17l32-31 35 29q8 5 18.5 12t15.5 10h3q27-10 27-33 0-9-1-10l-22-58 57-11q5 0 10-2 5-1 11-2.5zM900 228q-15 0-28 .5t-24 .5q-12 1-22 1 2 11 3.5 21t1.5 21l-3 25q-6 32-22 59.5T766 404t-53.5 31.5T651 447q-23 0-51.5-13.5t-53-31-41-34T489 347q-17 11-37.5 27T413 406q-21 18-43 38 32 23 49 62t17 78q0 34-13 66t-36 57-56 40.5-73 15.5q-20 0-36.5-2.5T188 751q-12 39-19.5 77.5T159 904q39 0 72 14.5t58 39 39 56.5 14 68q0 33-11 63-8 20-27 40t-39 36-35 25.5l-15 9.5q17 36 35.5 69.5T292 1390q4-6 16.5-13t29.5-14 36-11.5 36-4.5q30 0 61 10.5t56.5 30.5 41.5 48 16 64q0 21-3.5 43t-8.5 40q-5 21-12 41 35 17 71.5 31.5T707 1679q4-35 21-63t42-48 55-31 60-11q37 0 68.5 13.5t54.5 36 37 51 17 58.5q20-4 44.5-12.5t47.5-16.5q26-10 54-21-25-48-25-96 0-33 11-62.5t31-53 47.5-39.5 60.5-22l36-2q34 0 63.5 14t53.5 33q12-15 25.5-37.5t25.5-43.5q14-25 28-51-60-21-91-69t-31-103q0-38 15-71t39.5-57 57.5-37.5 69-13.5h8q-2-20-5.5-45.5T1618 829q-5-27-11-57-28 11-66 11-37 0-69.5-14t-57-38-39-56.5T1361 604q0-45 20-82t53-63q-28-28-57.5-53t-61.5-48q-4 16-20.5 32.5t-39 30.5-48.5 23-48 9q-36 0-68.5-14.5t-58-39-40.5-57-15-69.5q0-10 1-20t4-21q-17-2-39.5-3t-42.5-1zm0-108q29 0 53 1t42 4l121 13-29 119q-1 3-1 12 0 32 21.5 53t51.5 21q7 0 14-1t15.5-5 17-12.5T1224 300l60-96 93 65q37 26 70 54.5t66 63.5l83 87-98 74q-27 21-27 56 0 29 20.5 50t49.5 21q12 0 24-3l121-49 29 126q0 5 3 23.5t7.5 43.5 8.5 53 6 50l7 122-123-7q-30 0-51 21.5t-21 50.5q0 14 5.5 28t18.5 25l23 14 121 41-60 112-10.5 21-20.5 39.5-27 46-28 41.5-74 97-89-82q-11-10-24-13.5t-26-5.5h-12q-25 5-41 25t-16 46l1 12q2 5 3.5 11.5t5.5 11.5l66 110-119 48q-4 2-21.5 9.5T1186 1760t-50.5 18-48.5 14l-119 26-14-119q-6-26-23-44.5t-46-18.5q-32 0-48.5 19t-23.5 48l-26 112-111-29q-82-21-165-64l-87-45 35-90q8-20 12.5-43.5t4.5-37.5v-6q-8-21-25.5-32t-40.5-11q-13 0-25.5 4t-26.5 18l-91 69-65-92q-27-38-48-77.5t-38-79.5l-39-88 84-49q38-20 55-42t17-38q0-37-22.5-49.5T152 1012l-112-4 9-113q2-42 10-83.5T79 731l13-140 138 59q15 5 28 5 24 0 46.5-18.5T327 585q0-13-5.5-29.5T301 531l-99-83 96-86q2-3 16-15.5t33.5-29 42-34T431 253l82-54 62 77q14 18 34 36t32 25h10q26 0 45-17t24-42v-27l-26-131h206zm1117 421q25 0 46.5-9.5t38-25.5 26-37.5 9.5-45.5q0-25-9.5-46.5t-26-37.5-38-25-46.5-9q-24 0-45.5 9t-37.5 25-25.5 37.5-9.5 46.5q0 24 9.5 45.5T1934 506t37.5 25.5 45.5 9.5z" fill="#000000"></path></svg>