<?xml version='1.0' encoding='utf-8'?>
<svg xmlns="http://www.w3.org/2000/svg" viewBox="0 0 2612 2041" width="512" height="400"><path d="M2314 517q29 0 51-22.5t22-54.5q0-30-22-51t-51-21q-32 0-54 21t-22 51q0 32 22 54.5t54 22.5zm0 414l-182-414q-8-17-11.5-36.5T2117 440q0-40 15.5-75.5t42-62.5 62.5-42.5 77-15.5q40 0 75.5 15.5T2451 302t41.5 62.5T2508 440q0 21-3.5 40.5T2493 517zm145-48q57 87 85 154t28 112v399q0 21-8.5 37t-21 26.5-27.5 15.5-28 5h-168q-13 2-34-.5t-38-19.5q-12-11-17-26t-5-34v-89h-817v89q0 19-5 34t-17 26q-17 17-38.5 19.5t-33.5.5h-168q-13 0-28-5t-27.5-15.5-21-26.5-8.5-37v-399q0-45 28-112t85-154q20-31 40.5-60.5t38.5-54 32.5-42.5 21.5-27q13-15 25-27t25-24 29-24.5 37-27.5q7-6 20.5-12t39-12 66-11.5T1650 552q31-2 60.5-3t52.5-1.5 37-.5h32.5l37.5.5 51.5 1.5 59.5 3q38 3 65 5.5t49 5.5l37 79q-20-5-56.5-10t-97.5-9q-30-1-59-1.5t-51.5-1-36.5-.5h-29l-36.5.5-51.5 1-60 1.5q-57 4-92.5 8.5t-55.5 9-28.5 8-11.5 4.5q-20 15-34 26.5t-25.5 22-22 21T1362 747q-17 18-45 54.5t-60 82.5q18 20 30 33.5t24 24.5 26 20.5 36 20.5q24 14 46.5 20t47.5 8 55.5 1.5 69.5-.5h449q39 0 69.5.5t55.5-1.5 47.5-8 45.5-20q7-2 11-5t9-5l1 2q5 10 14 15t19 5 18.5-5 13.5-15l69-159q12 15 23 32t22 35zm32 289q-14-21-23-35t-18-22.5-20-12-29-3.5-30.5 4-22 10-16.5 13-14 13-13 9.5-14.5 5-21.5 1.5h-34q-42 0-65.5-4.5T2146 1120q0-14-5-17.5t-16-3.5h-208q0 23-11 41-9 15-30 27.5t-60 12.5-59.5-12.5-29.5-27.5q-11-18-11-41h-208q-12 0-16.5 3.5t-4.5 17.5q0 26-23.5 30.5t-66.5 4.5h-33l-21.5-1.5-14.5-5-13-9.5-14.5-13-17-13-22-10-30.5-4-28.5 3.5-19.5 12-18 22.5-24 35v368q0 9 6 11 3 2 6 1h156q4 0 10 .5t8-.5q0-1 1.5-2.5t1.5-6.5v-161h972v161q0 5 1 6.5t1 2.5q4 1 10 .5t10-.5h156q2 1 5-1 6-2 6-11v-368zm-1488 376q0 31 13 58t34 45q-62 23-129 36t-137 13q-103 0-198-26.5t-177.5-75T258 1482t-116.5-150.5-75-177.5T40 956t26.5-198 75-178T258 429t150.5-116.5 177.5-75T784 211q98 0 189.5 24.5t172 69T1293 412t117 140l-68 53q-19-32-42-61t-49-56q-5-4-10.5-8.5T1230 470q-19 2-36.5 10.5T1165 504q-11 12-16 26t-22 25q-16 9-28 10.5t-18 12.5q-7 9-4 23t9 25q7 10 15 14.5t16.5 8.5 16.5 9 14 16q4 8 5.5 19t-3.5 20q-1 2-8.5 5t-30.5 4q-14 1-22.5 0t-14.5-1.5-10-.5-9 2q-6 3-8.5 7t-5 10-6 14.5-9.5 18.5q-5 9-8.5 14.5t-7.5 10-9 9.5-11 14q-8 10-19.5 32T951 903q-5 19-4.5 31.5t1 22.5 0 18.5T941 994q-6 11-13.5 16t-15 9-15.5 10-15 18q-2 5-8.5 21t-1.5 38q0 2 2 7.5t5.5 13.5 10 16.5T907 1159q4 2 8.5 4t13 3.5 23.5 3 40 2.5h11v376zm-238-157q1-3 5.5-14.5t6.5-27 .5-34T765 1280q-8-14-17-20.5t-15-9.5q-12-8-21.5-11t-18-4-16-3-16.5-8q-9-7-13-13t-7.5-13-9-15-16.5-19q-8-7-19.5-16t-28.5-14-39-4.5-44 9.5q-13 6-29.5 14.5T427 1157h-3q-1 0-1-1-9-6-13.5-12.5t-5.5-9.5q-7-11-16.5-25t-14.5-20q-6-7-11-10.5t-11.5-7-16.5-8.5-25-16q-18-13-27.5-21.5T269 1006q-3-15 3-29.5t17-23.5q15-12 34-13t33 6q18 8 41.5 22t34.5 36q4 11 6.5 16.5t3.5 9.5 1.5 7.5.5 10.5q8 37 27 21 1-2 3.5-12t.5-28q-2-15-4.5-23.5T465 990t-5-14-3-18q-2-21 8-37.5t17-25.5q16-20 32-28.5t20-9.5q7-3 12-4t11-1 14-.5 21-3.5q23-3 41-7t35-16q3-2 9.5-7t14-12.5 13-17T710 768q0-9-6.5-19T684 722q-17-22-26.5-33.5T636 670q-2 0-8-2.5t-14-4-17-1-18 5.5q-7 4-10 8.5t-5.5 10-6.5 12-13 14.5q-5 3-18.5 11.5T489 738q-8 1-19 1t-22-7q-8-4-13.5-11.5t-8.5-15-4-14-1-9.5q-2-26 9-47.5t29-50.5q14-20 23.5-31.5T506 536q17-5 36.5-2.5T573 550q4 6 5 12t1 12.5 1.5 13T587 600q6 6 13 8.5t13.5 3 11 .5h5.5l5.5-1 10.5-4 12-7.5 10-12.5q9-17 4-32.5t-9-22.5q-5-10-20-26.5T587 470q-7-3-16-6.5t-23.5-7-37-8T455 439q-23-2-39.5-5t-30.5-4q-17 14-34 28.5T317 488q-90 93-141 211-17 38-27.5 80T131 863q5 4 12 11.5t14 20.5q10 18 13.5 31.5t6 27T183 982t15 35q7 12 17 27t27 29q4 4 8 7t11 6.5l19 9.5 32 15q19 9 30 14.5t17 9.5 8.5 6.5l5.5 5.5q17 19 27.5 34t10.5 16q1 10-1 19.5t-4.5 18.5-3.5 17 2 15q3 6 7 15t9.5 18.5T431 1318t9 11q10 8 16.5 21t11 28 7.5 30 7 27q10 28 17.5 45.5t14 31 14 26T544 1568q22 10 43.5 17t44.5 12q0-11 .5-24.5t7.5-32.5q3-8 7.5-19.5T663 1495q7-9 14-14.5t14.5-10.5 15.5-10.5 17-14.5q8-6 20.5-20t20.5-34zm-2-794q6 8 21 5t29-8q12-4 23.5-9t24.5-12.5 29-18 38-25.5q21-16 34-25.5t20.5-16T994 477t7-9q6-8 16-27.5t15-48.5q2-13 1.5-25t-2.5-23q-119-48-247-48-23 0-45.5 1t-44.5 5q4 17 14.5 34.5T731 366q11 11 21.5 16.5T773 393t19.5 11.5T811 424q1 2 5 9t7 16.5 3.5 21T823 494q-3 8-8 12t-10.5 8.5-12 10.5-13.5 16q-5 6-9 14t-7 16-3 15 3 11z" fill="#000000"></path></svg>