<?xml version='1.0' encoding='utf-8'?>
<svg xmlns="http://www.w3.org/2000/svg" viewBox="0 0 1941 2041" width="380" height="400"><path d="M1814 1432l67 117q7 12 8.5 24.5t1.5 29.5v13q0 25-10 48t-27 41-40 28.5-49 10.5H185q-26 0-50-10.5T92 1705t-30.5-41-11.5-48q0-22 7-42.5t22-35.5L854 182q15-29 47.5-48t68.5-19q37 0 70.5 19t55.5 48zm-29 155L1009 230q-7-7-15-13t-24-6q-7 0-18 6t-11 13L156 1587q-10 13-10 29 0 7 12.5 18t26.5 11h1580q15 0 22-11t7-18-1-14.5-8-14.5zm-940-126q0 26 10.5 48.5t28.5 40 42.5 27.5 53.5 10q26 0 49-10t40.5-27.5 27.5-40 10-48.5-10-49-27.5-40-40.5-27-49-10q-29 0-53.5 10t-42.5 27-28.5 40-10.5 49zM970 453q-26 0-48.5 10.5T882 493t-27 46-10 59v524q0 29 10 55.5t27 46.5 39.5 31.5T970 1267q29 0 54-11.5t43.5-31.5 29-46.5 10.5-55.5V598q0-32-10.5-59t-29-46-43.5-29.5-54-10.5z" fill="#ffffff"></path></svg>