<?xml version='1.0' encoding='utf-8'?>
<svg xmlns="http://www.w3.org/2000/svg" viewBox="0 0 2089 2041" width="409" height="400"><path d="M1506 448l9 9-6 11-123 78-189-2-186-1-134-79-5-13 10-9h311zM936 911l-96 61-106 44-23 1-18-12-12-20-16-121-7-123 7-124 16-121 12-20 18-11 23 1 106 43 96 61 5 6v7l-12 157 12 159v6l-5 6zm714 96l-66-35-64-37-5-7-1-7 11-120V680l-11-119 1-8 5-6 64-38 66-35 19-3 18 4 13 12 9 19 16 155v159l-16 156-9 18-13 12-18 5zm262 45l18-207V637l-18-208-8-16-16-7-148-6-146-5-13-9-16-4-375-7-374 1-19 4-17 9-263 5-264 8-36 11-28 24-14 36-15 133-5 135 5 135 15 133 14 34 28 26 36 10 233 7 232 5 20-2 18-5 84-34 78-44 72-52 13-5 12-3 185-1 186-2 16 4 15 10 52 50 60 40 67 30 23 6 25 1 122-4 122-5 16-6zM767 1188l-2 5-6 2-258-8-258-13-43-7-41-18-33-26-29-33-20-39-12-42-15-178V651l15-178 12-43 20-39 29-33 33-25 41-18 43-7 393-16 391-12 433 5 431 13 31 5 30 12 25 18 21 24 14 28 9 31 18 216v218l-18 216-9 30-14 28-21 25-25 19-30 12-31 4-143 6-143 4-2-1-3-2-6-11-12-7-79-33-75-44-65-57-165 2-165 1-81 54-87 47-92 37-4 3zm672 317l-39 63-41 60-5 4-7-2-267-165-262-173-10-14v-17l17-29 23-23 31-14 32-4h48l235 155 242 147 4 6z" fill="#000000"></path></svg>